<svg width="220" height="217" viewBox="0 0 220 217" fill="none" xmlns="http://www.w3.org/2000/svg">
<g clip-path="url(#clip0_454_10145)">
<path d="M107.268 10.8335C91.1489 20.7957 80.1895 35.9714 70.6097 51.1857C61.0299 66.4001 52.215 82.2922 38.8933 95.1056C28.8634 104.758 16.3501 112.585 8.67272 123.811C-1.97686 139.355 -1.41049 159.836 7.89337 176.042C17.1972 192.249 34.3866 204.264 53.5317 210.75C72.6767 217.237 93.6709 218.539 114.084 216.937C136.298 215.189 158.701 209.84 176.631 198.058C201.498 181.74 215.216 154.404 217.961 127.064C220.706 99.7236 213.546 72.2961 203.066 46.4709C199.436 37.5301 195.355 28.6232 189.169 20.8683C171.166 -1.72813 132.213 -4.56963 107.268 10.8335Z" fill="#C53F3F"/>
<g opacity="0.7">
<path d="M107.268 10.8335C91.1489 20.7957 80.1895 35.9714 70.6097 51.1857C61.0299 66.4001 52.215 82.2922 38.8933 95.1056C28.8634 104.758 16.3501 112.585 8.67272 123.811C-1.97686 139.355 -1.41049 159.836 7.89337 176.042C17.1972 192.249 34.3866 204.264 53.5317 210.75C72.6767 217.237 93.6709 218.539 114.084 216.937C136.298 215.189 158.701 209.84 176.631 198.058C201.498 181.74 215.216 154.404 217.961 127.064C220.706 99.7236 213.546 72.2961 203.066 46.4709C199.436 37.5301 195.355 28.6232 189.169 20.8683C171.166 -1.72813 132.213 -4.56963 107.268 10.8335Z" fill="white"/>
</g>
<path d="M31.3857 199.994H103.449" stroke="#263238" stroke-width="0.483015" stroke-miterlimit="10"/>
<path d="M172.947 199.994H125.208" stroke="#263238" stroke-width="0.483015" stroke-miterlimit="10"/>
<path d="M106.566 199.994H122.042" stroke="#263238" stroke-width="0.483015" stroke-miterlimit="10"/>
<path d="M161.824 145.309L172.212 126.943" stroke="#263238" stroke-width="0.483015" stroke-linecap="round" stroke-linejoin="round"/>
<path d="M174.622 137.801L182.338 124.155" stroke="#263238" stroke-width="0.483015" stroke-linecap="round" stroke-linejoin="round"/>
<path d="M171.95 142.52L173.46 139.853" stroke="#263238" stroke-width="0.483015" stroke-linecap="round" stroke-linejoin="round"/>
<path d="M147.369 133.338H116.64V159.991H147.369V133.338Z" stroke="#263238" stroke-width="0.483015" stroke-linecap="round" stroke-linejoin="round"/>
<path d="M126.757 133.338H116.64V159.991H126.757V133.338Z" stroke="#263238" stroke-width="0.483015" stroke-linecap="round" stroke-linejoin="round"/>
<path d="M120.377 154.792C120.378 155.053 120.457 155.308 120.603 155.525C120.748 155.741 120.955 155.91 121.197 156.009C121.438 156.108 121.704 156.134 121.96 156.082C122.216 156.031 122.451 155.905 122.635 155.72C122.819 155.535 122.945 155.299 122.995 155.043C123.046 154.787 123.02 154.521 122.919 154.28C122.819 154.039 122.65 153.833 122.433 153.688C122.215 153.543 121.96 153.465 121.699 153.465C121.525 153.465 121.353 153.5 121.192 153.566C121.031 153.633 120.886 153.731 120.763 153.854C120.64 153.977 120.543 154.124 120.477 154.284C120.411 154.445 120.377 154.618 120.377 154.792Z" stroke="#263238" stroke-width="0.483015" stroke-linecap="round" stroke-linejoin="round"/>
<path d="M121.036 149.617C121.035 149.748 121.073 149.877 121.145 149.987C121.217 150.096 121.321 150.182 121.442 150.233C121.563 150.284 121.696 150.298 121.825 150.273C121.954 150.248 122.073 150.185 122.166 150.092C122.259 150 122.323 149.882 122.349 149.753C122.375 149.624 122.362 149.491 122.312 149.369C122.262 149.248 122.177 149.144 122.068 149.071C121.959 148.998 121.83 148.959 121.699 148.959C121.524 148.959 121.356 149.028 121.232 149.151C121.107 149.274 121.037 149.442 121.036 149.617Z" stroke="#263238" stroke-width="0.483015" stroke-miterlimit="10"/>
<mask id="mask0_454_10145" style="mask-type:luminance" maskUnits="userSpaceOnUse" x="136" y="157" width="8" height="3">
<path d="M143.187 159.991H136.284V159.376C136.284 159.091 136.342 158.809 136.455 158.547C136.568 158.285 136.733 158.049 136.94 157.853C137.147 157.657 137.391 157.505 137.659 157.406C137.926 157.308 138.211 157.265 138.496 157.28L141.202 157.425C141.738 157.455 142.242 157.688 142.611 158.078C142.98 158.468 143.186 158.984 143.187 159.521V159.991Z" fill="white"/>
</mask>
<g mask="url(#mask0_454_10145)">
<path opacity="0.8" d="M143.187 159.991H136.284V159.376C136.284 159.091 136.342 158.809 136.455 158.547C136.568 158.285 136.733 158.049 136.94 157.853C137.147 157.657 137.391 157.505 137.659 157.406C137.926 157.308 138.211 157.265 138.496 157.28L141.202 157.425C141.738 157.455 142.242 157.688 142.611 158.078C142.98 158.468 143.186 158.984 143.187 159.521V159.991Z" stroke="#263238" stroke-width="0.483015" stroke-miterlimit="10"/>
</g>
<path d="M143.187 159.991H136.284V159.376C136.284 159.091 136.342 158.809 136.455 158.547C136.568 158.285 136.733 158.049 136.94 157.853C137.147 157.657 137.391 157.505 137.659 157.406C137.926 157.308 138.211 157.265 138.496 157.28L141.202 157.425C141.738 157.455 142.242 157.688 142.611 158.078C142.98 158.468 143.186 158.984 143.187 159.521V159.991Z" stroke="#263238" stroke-width="0.483015" stroke-linecap="round" stroke-linejoin="round"/>
<path d="M163.527 150.566L164.418 158.374H169.419V158.858H174.772L173.03 150.561L163.527 150.566Z" stroke="#263238" stroke-width="0.483015" stroke-linecap="round" stroke-linejoin="round"/>
<path d="M186.875 150.566H187.973C188.187 150.562 188.391 150.48 188.55 150.337C188.708 150.194 188.809 149.998 188.835 149.786L191.589 123.903C191.603 123.805 191.594 123.704 191.565 123.609C191.536 123.514 191.487 123.427 191.421 123.353C191.354 123.279 191.273 123.22 191.182 123.18C191.09 123.141 190.992 123.121 190.892 123.124H189.793C189.893 123.121 189.992 123.141 190.083 123.18C190.174 123.22 190.255 123.279 190.322 123.353C190.388 123.427 190.437 123.514 190.467 123.609C190.496 123.704 190.504 123.805 190.491 123.903L187.736 149.786C187.711 149.998 187.609 150.194 187.451 150.337C187.293 150.48 187.088 150.562 186.875 150.566Z" stroke="#263238" stroke-width="0.483015" stroke-linecap="round" stroke-linejoin="round"/>
<path d="M147.93 150.566H186.864C187.078 150.562 187.282 150.48 187.441 150.337C187.599 150.194 187.7 149.998 187.726 149.786L190.48 123.903C190.494 123.805 190.485 123.704 190.456 123.609C190.427 123.514 190.378 123.427 190.311 123.353C190.245 123.279 190.164 123.22 190.072 123.18C189.981 123.141 189.883 123.121 189.783 123.124H150.859C150.646 123.128 150.441 123.209 150.283 123.352C150.124 123.496 150.023 123.691 149.997 123.903L147.243 149.786C147.23 149.884 147.238 149.983 147.266 150.078C147.295 150.172 147.343 150.259 147.409 150.333C147.474 150.407 147.554 150.466 147.644 150.506C147.734 150.546 147.832 150.567 147.93 150.566Z" stroke="#263238" stroke-width="0.483015" stroke-linecap="round" stroke-linejoin="round"/>
<path d="M169.418 158.863V159.991H175.402C175.542 159.978 175.673 159.912 175.768 159.808C175.863 159.704 175.916 159.568 175.916 159.427C175.916 159.285 175.863 159.149 175.768 159.045C175.673 158.941 175.542 158.876 175.402 158.863H169.418Z" stroke="#263238" stroke-width="0.483015" stroke-linecap="round" stroke-linejoin="round"/>
<path d="M148.826 147.352L151.246 124.77C151.268 124.585 151.356 124.414 151.494 124.288C151.632 124.163 151.81 124.092 151.997 124.087H188.714C188.801 124.085 188.887 124.102 188.967 124.136C189.047 124.171 189.118 124.222 189.177 124.287C189.235 124.352 189.278 124.429 189.303 124.512C189.329 124.595 189.335 124.683 189.323 124.77L186.903 147.352C186.88 147.536 186.792 147.705 186.654 147.83C186.516 147.954 186.338 148.025 186.153 148.029H149.431C149.345 148.031 149.259 148.015 149.179 147.981C149.1 147.946 149.029 147.895 148.972 147.831C148.914 147.766 148.871 147.69 148.846 147.607C148.821 147.524 148.814 147.437 148.826 147.352Z" stroke="#263238" stroke-width="0.483015" stroke-linecap="round" stroke-linejoin="round"/>
<path d="M106.45 163.912H103.449V216.917H106.45V163.912Z" stroke="#263238" stroke-width="0.483015" stroke-linecap="round" stroke-linejoin="round"/>
<path d="M196.347 159.991H170.338V163.916H196.347V159.991Z" stroke="#263238" stroke-width="0.483015" stroke-linecap="round" stroke-linejoin="round"/>
<path d="M125.044 163.912H122.042V216.917H125.044V163.912Z" stroke="#263238" stroke-width="0.483015" stroke-linecap="round" stroke-linejoin="round"/>
<path d="M194.615 163.912H191.613V216.917H194.615V163.912Z" stroke="#263238" stroke-width="0.483015" stroke-linecap="round" stroke-linejoin="round"/>
<path opacity="0.7" d="M170.338 159.991H101.716V163.916H170.338V159.991Z" stroke="#263238" stroke-width="0.483015" stroke-miterlimit="10"/>
<path d="M170.338 159.991H101.716V163.916H170.338V159.991Z" stroke="#263238" stroke-width="0.483015" stroke-linecap="round" stroke-linejoin="round"/>
<path d="M176.021 163.912H173.02V216.917H176.021V163.912Z" stroke="#263238" stroke-width="0.483015" stroke-linecap="round" stroke-linejoin="round"/>
<path d="M169.418 158.374H147.708V159.991H169.418V158.374Z" stroke="#263238" stroke-width="0.483015" stroke-linecap="round" stroke-linejoin="round"/>
<path d="M173.586 93.6873C174.613 93.6873 176.365 94.2439 176.859 93.2903C177.536 91.9736 178.839 90.6521 178.839 91.78C178.766 93.5953 177.967 94.9894 176.772 96.2819C176.154 96.8693 175.442 97.3488 174.666 97.7002C173.417 98.2472 169.859 98.073 169.254 96.4223C168.358 94.0164 172.289 93.7115 173.586 93.6873Z" fill="white" stroke="#263238" stroke-width="0.483015" stroke-linecap="round" stroke-linejoin="round"/>
<path d="M172.211 94.8927C172.413 94.9563 172.627 94.9661 172.834 94.9211C173.04 94.8761 173.231 94.7778 173.388 94.6361C173.706 94.3383 173.999 94.0145 174.264 93.668C174.748 93.1258 175.198 92.5643 175.876 93.0968C175.987 93.2155 176.056 93.3682 176.071 93.5304C176.086 93.6927 176.046 93.8552 175.958 93.9923C175.353 95.2848 174.893 95.6091 173.683 96.2675" fill="white"/>
<path d="M172.211 94.8927C172.413 94.9563 172.627 94.9661 172.834 94.9211C173.04 94.8761 173.231 94.7778 173.388 94.6361C173.706 94.3383 173.999 94.0145 174.264 93.668C174.748 93.1258 175.198 92.5643 175.876 93.0968C175.987 93.2155 176.056 93.3682 176.071 93.5304C176.086 93.6927 176.046 93.8552 175.958 93.9923C175.353 95.2848 174.893 95.6091 173.683 96.2675" stroke="#263238" stroke-width="0.483015" stroke-linecap="round" stroke-linejoin="round"/>
<path d="M152.132 104.492C152.055 105.159 152.135 105.835 152.366 106.466C152.596 107.098 152.97 107.666 153.459 108.127C155.395 109.913 162.037 114.546 163.489 114.725C164.055 114.788 164.628 114.754 165.183 114.623C167.177 114.173 173.964 98.165 173.964 98.165C173.601 97.1533 172.086 96.3207 171.06 96.2965C170.033 96.2723 169.482 96.616 168.862 97.4873L163.421 104.986C162.579 104.986 159.064 100.3 158.769 99.4672C157.917 96.9936 156.47 94.7185 155.187 93.9197C155.163 93.9197 153.255 94.1957 152.132 104.492Z" fill="white" stroke="#263238" stroke-width="0.483015" stroke-linecap="round" stroke-linejoin="round"/>
<path d="M163.847 105.571C163.847 105.571 165.783 106.932 166.437 107.885" stroke="#263238" stroke-width="0.483015" stroke-linecap="round" stroke-linejoin="round"/>
<path d="M163.871 106.438C164.371 107.052 164.626 107.83 164.588 108.621" stroke="#263238" stroke-width="0.483015" stroke-linecap="round" stroke-linejoin="round"/>
<path d="M158.551 98.9588C159.076 100.285 159.272 101.718 159.122 103.136" stroke="#263238" stroke-width="0.483015" stroke-linecap="round" stroke-linejoin="round"/>
<path d="M161 216.753L155.037 216.869H151.232C149.915 216.869 150.08 215.848 149.93 214.449C149.87 213.262 150.101 212.079 150.602 211.002H156.644C156.881 211.418 159.103 211.81 159.229 212.183C162.453 214.666 161 216.753 161 216.753Z" fill="white" stroke="#263238" stroke-width="0.483015" stroke-linecap="round" stroke-linejoin="round"/>
<path d="M124.371 216.753L130.18 216.864H130.853H136.051C138.496 216.864 138.607 215.523 138.554 213.868C138.449 212.824 138.052 211.83 137.407 211.002L130.63 210.266C130.194 210.75 126.757 211.907 126.549 212.319C121.5 215.615 124.371 216.753 124.371 216.753Z" fill="white" stroke="#263238" stroke-width="0.483015" stroke-linecap="round" stroke-linejoin="round"/>
<path d="M133.21 216.864C133.295 216.869 133.381 216.869 133.466 216.864H133.64H133.21Z" fill="#263238" stroke="#263238" stroke-width="0.483015" stroke-linecap="round" stroke-linejoin="round"/>
<path d="M125.208 145.953C125.208 145.953 127.047 180.893 128.112 186.987C128.437 188.861 129.995 201.921 130.218 204.69C129.947 206.18 129.936 207.707 130.184 209.201L130.63 210.281C131.38 211.956 137.988 212.028 138.21 211.578C138.433 211.128 139.29 211.017 138.288 204.666C138.176 203.964 138.002 196.485 137.721 186.474C137.629 183.187 137.198 180.612 137.547 172.334C137.547 171.971 139.285 150.508 139.319 150.135L139.672 150.285C139.716 150.701 139.754 151.108 139.788 151.49C139.96 153.334 140.274 155.161 140.727 156.956L147.059 182.127V186.702C146.962 192.269 147.427 198.886 148.86 204.249L148.719 205.643C148.453 208.282 147.882 211.312 150.656 211.815L156.3 212.106C157.239 212.106 158.304 212.004 158.236 211.012L157.718 206.941C156.561 202.25 156.963 187.249 156.75 182.408L154.393 146.287L153.018 135.589L126.147 135.008L125.208 145.953Z" fill="#C53F3F"/>
<mask id="mask1_454_10145" style="mask-type:luminance" maskUnits="userSpaceOnUse" x="125" y="135" width="34" height="78">
<path d="M125.208 145.953C125.208 145.953 127.047 180.893 128.112 186.987C128.437 188.861 129.995 201.921 130.218 204.69C129.947 206.18 129.936 207.707 130.184 209.201L130.63 210.281C131.38 211.956 137.988 212.028 138.21 211.578C138.433 211.128 139.29 211.017 138.288 204.666C138.176 203.964 138.002 196.485 137.721 186.474C137.629 183.187 137.198 180.612 137.547 172.334C137.547 171.971 139.285 150.508 139.319 150.135L139.672 150.285C139.716 150.701 139.754 151.108 139.788 151.49C139.96 153.334 140.274 155.161 140.727 156.956L147.059 182.127V186.702C146.962 192.269 147.427 198.886 148.86 204.249L148.719 205.643C148.453 208.282 147.882 211.312 150.656 211.815L156.3 212.106C157.239 212.106 158.304 212.004 158.236 211.012L157.718 206.941C156.561 202.25 156.963 187.249 156.75 182.408L154.393 146.287L153.018 135.589L126.147 135.008L125.208 145.953Z" fill="white"/>
</mask>
<g mask="url(#mask1_454_10145)">
<path opacity="0.2" d="M139.629 140.604C145.085 140.468 148.115 140.187 153.183 138.406C153.255 138.37 153.32 138.322 153.377 138.265C153.377 138.265 138.438 138.14 125.223 137.244C128.036 138.603 131.019 139.58 134.091 140.149L139.629 140.604Z" fill="black"/>
<path opacity="0.2" d="M149.209 150.299C148.018 152.526 144.698 152.521 143.473 154.724C142.306 156.82 141.711 160.533 142.563 164.255L141.483 159.962C140.244 157.711 140.515 156.181 140.06 153.669C139.987 153.286 139.794 150.788 139.673 150.28C139.673 150.28 142.844 151.156 143.11 151.166C145.738 151.277 146.798 150.943 149.209 150.299Z" fill="black"/>
<path opacity="0.2" d="M137.959 193.421C137.698 193.001 137.593 192.502 137.664 192.012C138.293 185.893 136.977 179.707 137.804 173.617C137.651 173.272 137.583 172.895 137.606 172.518C137.766 168.98 138.013 165.393 138.361 161.869C138.502 159.81 138.749 157.76 139.102 155.726C139.063 153.887 139.063 152.105 139.136 150.401C139.111 150.551 134.924 152.144 131.874 150.663C131.032 150.256 134.256 153.736 135.384 157.58C136.706 162.101 137.451 166.845 137.083 171.565C136.991 172.78 136.822 174.038 136.178 175.05C135.534 176.062 134.305 176.74 133.23 176.328C132.707 176.134 132.262 175.708 131.705 175.665C131.536 175.645 131.365 175.678 131.217 175.761C131.068 175.843 130.949 175.971 130.877 176.125C130.832 176.259 130.824 176.404 130.854 176.543C130.883 176.681 130.95 176.81 131.047 176.914C131.478 177.514 132.088 177.964 132.417 178.632C132.746 179.3 132.62 180.331 131.933 180.535C132.615 180.51 133.554 180.743 133.511 181.469C133.462 182.292 132.083 182.577 132.218 183.405C133.629 185.301 134.526 187.528 134.823 189.872C135.466 194.955 133.23 199.835 134 204.758C134.074 205.136 134.012 205.529 133.826 205.866C133.639 206.204 133.339 206.464 132.978 206.602L132.828 206.636C134.118 207.089 135.474 207.323 136.841 207.328C137.388 207.996 134.45 211.147 133.971 211.317C134.28 211.447 135.515 212.111 135.558 212.101C136.686 211.902 137.412 212.101 138.1 211.961C140.205 208.543 138.1 203.063 137.979 199.331C137.924 197.369 137.917 195.399 137.959 193.421Z" fill="black"/>
<path opacity="0.2" d="M151.929 206.273C152.81 207.105 153.982 207.812 155.057 207.313C150.651 200.609 148.793 191.697 149.63 183.56C150.545 184.189 153.362 183.715 154.156 182.926C153.837 181.827 150.201 182.844 149.998 181.716C149.978 181.387 150.07 181.061 150.259 180.791C151.353 178.855 153.483 177.301 154.616 173.559C153.701 173.893 150.167 178.593 149.291 178.211C148.794 177.943 148.388 177.534 148.125 177.035C147.49 176.067 145.065 171.047 143.976 168.776C143.94 168.952 143.866 169.117 143.758 169.261C143.855 169.593 143.921 169.933 143.957 170.277C144.165 171.245 144.441 172.213 144.683 173.182C145.125 174.795 145.591 176.409 146.082 178.022C146.164 178.284 146.227 178.545 146.295 178.811C146.678 179.88 146.927 180.992 147.035 182.122C147.069 182.681 147.06 183.241 147.006 183.797C147.055 184.867 147.06 185.947 147.05 187.055C147.05 187.888 147.05 188.74 147.021 189.601C147.115 189.867 147.163 190.147 147.161 190.429C147.205 194.248 147.365 198.397 148.236 202.124C148.666 203.606 148.859 205.147 148.807 206.689C148.735 207.696 148.536 208.703 148.415 209.71C148.523 209.998 148.673 210.269 148.86 210.513C149.925 211.878 152.99 212.488 154.616 212.111C153.256 211.017 151.905 208.146 151.929 206.273Z" fill="black"/>
</g>
<path d="M125.208 145.953C125.208 145.953 127.047 180.893 128.112 186.987C128.437 188.861 129.995 201.921 130.218 204.69C129.947 206.18 129.936 207.707 130.184 209.201L130.63 210.281C131.38 211.956 137.988 212.028 138.21 211.578C138.433 211.128 139.29 211.017 138.288 204.666C138.176 203.964 138.002 196.485 137.721 186.474C137.629 183.187 137.198 180.612 137.547 172.334C137.547 171.971 139.285 150.508 139.319 150.135L139.672 150.285C139.716 150.701 139.754 151.108 139.788 151.49C139.96 153.334 140.274 155.161 140.727 156.956L147.059 182.127V186.702C146.962 192.269 147.427 198.886 148.86 204.249L148.719 205.643C148.453 208.282 147.882 211.312 150.656 211.815L156.3 212.106C157.239 212.106 158.304 212.004 158.236 211.012L157.718 206.941C156.561 202.25 156.963 187.249 156.75 182.408L154.393 146.287L153.018 135.589L126.147 135.008L125.208 145.953Z" stroke="#263238" stroke-width="0.483015" stroke-linecap="round" stroke-linejoin="round"/>
<path d="M143.419 90.4392L140.936 83.8655L141.773 78.0567L140.936 71.7347L135.781 69.6629L131.521 69.629L130.02 71.0134L129.609 72.9497C129.609 72.9497 129.125 76.072 128.733 78.8602C128.592 79.8284 129.58 80.5109 129.58 80.5109C129.58 80.5109 128.713 82.8006 128.321 83.0184C127.28 83.5993 129.081 84.3302 129.517 85.6856C129.952 87.041 131.027 89.9551 132.615 89.8486C134.203 89.7422 135.035 89.6308 135.432 91.0588C135.829 92.4868 136.778 96.3836 136.778 96.3836L143.419 90.4392Z" fill="white"/>
<mask id="mask2_454_10145" style="mask-type:luminance" maskUnits="userSpaceOnUse" x="128" y="69" width="16" height="28">
<path d="M143.419 90.4392L140.936 83.8655L141.773 78.0567L140.936 71.7347L135.781 69.6629L131.521 69.629L130.02 71.0134L129.609 72.9497C129.609 72.9497 129.125 76.072 128.733 78.8602C128.592 79.8284 129.58 80.5109 129.58 80.5109C129.58 80.5109 128.713 82.8006 128.321 83.0184C127.28 83.5993 129.081 84.3302 129.517 85.6856C129.952 87.041 131.027 89.9551 132.615 89.8486C134.203 89.7422 135.035 89.6308 135.432 91.0588C135.829 92.4868 136.778 96.3836 136.778 96.3836L143.419 90.4392Z" fill="white"/>
</mask>
<g mask="url(#mask2_454_10145)">
<path d="M136.957 75.6653C137.044 77.1176 136.473 78.289 137.359 80.9127C137.359 80.9127 138.008 79.2087 138.811 79.1894C138.966 79.1788 139.121 79.2027 139.266 79.2594C139.41 79.316 139.541 79.4039 139.647 79.5169C139.753 79.6298 139.834 79.765 139.882 79.9126C139.93 80.0602 139.944 80.2166 139.925 80.3705C139.925 81.0966 139.639 81.997 139.034 82.3504C139.034 82.3504 139.716 84.064 139.866 84.7175C140.268 84.7175 140.917 83.8655 140.917 83.8655L143.4 78.3277C141.841 77.1563 138.734 76.435 136.957 75.6653Z" fill="#263238" stroke="#263238" stroke-width="0.483015" stroke-linecap="round" stroke-linejoin="round"/>
</g>
<path d="M143.419 90.4392L140.936 83.8655L141.773 78.0567L140.936 71.7347L135.781 69.6629L131.521 69.629L130.02 71.0134L129.609 72.9497C129.609 72.9497 129.125 76.072 128.733 78.8602C128.592 79.8284 129.58 80.5109 129.58 80.5109C129.58 80.5109 128.713 82.8006 128.321 83.0184C127.28 83.5993 129.081 84.3302 129.517 85.6856C129.952 87.041 131.027 89.9551 132.615 89.8486C134.203 89.7422 135.035 89.6308 135.432 91.0588C135.829 92.4868 136.778 96.3836 136.778 96.3836L143.419 90.4392Z" stroke="#263238" stroke-width="0.483015" stroke-linecap="round" stroke-linejoin="round"/>
<path d="M130.842 80.0365C130.886 80.3851 131.084 80.6416 131.283 80.6126C131.481 80.5835 131.602 80.2786 131.559 79.93C131.515 79.5815 131.317 79.3298 131.118 79.3588C130.92 79.3879 130.794 79.688 130.842 80.0365Z" fill="#263238"/>
<path d="M130.475 85.8503C130.518 86.1988 130.717 86.4554 130.915 86.4263C131.114 86.3973 131.235 86.0923 131.191 85.7438C131.148 85.3952 130.949 85.1435 130.751 85.1726C130.552 85.2016 130.426 85.5066 130.475 85.8503Z" fill="#263238"/>
<path d="M132.276 78.9378C132.276 78.9378 131.898 77.1564 130.126 77.6743" stroke="#263238" stroke-width="0.483015" stroke-linecap="round" stroke-linejoin="round"/>
<path d="M133.055 89.7713C133.055 89.7713 136.444 87.9754 137.3 86.7797L135.417 91.0492C135.417 91.0492 135.185 89.05 133.055 89.7713Z" fill="#263238" stroke="#263238" stroke-width="0.483015" stroke-linecap="round" stroke-linejoin="round"/>
<path d="M145.104 91.0975C145.104 91.0975 143.201 91.0297 140.19 91.1701C137.884 91.3154 135.588 91.5869 133.312 91.9833C133.312 91.9833 134.096 89.3645 136.26 89.1612C138.423 88.9579 143.467 88.9579 143.467 88.9579L145.104 91.0975Z" fill="white" stroke="#263238" stroke-width="0.483015" stroke-linecap="round" stroke-linejoin="round"/>
<path d="M126.186 112.905L126.36 114.314C127.092 120.117 126.894 125.999 125.775 131.74L124.855 137.51L139.43 138.164L155.037 138.319C155.1 136.074 154.916 133.829 154.49 131.624C151.392 115.926 157.147 96.708 155.637 94.2489C154.514 92.4143 145.123 91.0298 145.123 91.0298C145.123 91.0298 136.473 90.7684 133.312 91.9399L132.924 92.1964C128.713 93.7309 125.373 95.3816 123.558 96.7612L124.226 98.5281C124.26 99.414 126.186 112.905 126.186 112.905Z" fill="white"/>
<mask id="mask3_454_10145" style="mask-type:luminance" maskUnits="userSpaceOnUse" x="123" y="91" width="33" height="48">
<path d="M126.186 112.905L126.36 114.314C127.092 120.117 126.894 125.999 125.775 131.74L124.855 137.51L139.43 138.164L155.037 138.319C155.1 136.074 154.916 133.829 154.49 131.624C151.392 115.926 157.147 96.708 155.637 94.2489C154.514 92.4143 145.123 91.0298 145.123 91.0298C145.123 91.0298 136.473 90.7684 133.312 91.9399L132.924 92.1964C128.713 93.7309 125.373 95.3816 123.558 96.7612L124.226 98.5281C124.26 99.414 126.186 112.905 126.186 112.905Z" fill="white"/>
</mask>
<g mask="url(#mask3_454_10145)">
<path d="M156.368 117.823C156.368 117.823 154.984 122.761 156.422 126.198L154.127 126.943C153.829 124.447 153.761 121.929 153.924 119.421L156.368 117.823Z" fill="#C53F3F"/>
<path opacity="0.6" d="M156.368 117.823C156.368 117.823 154.984 122.761 156.422 126.198L154.127 126.943C153.829 124.447 153.761 121.929 153.924 119.421L156.368 117.823Z" fill="white"/>
<path d="M146.121 119.42C145.615 120.36 145.322 121.4 145.264 122.465C145.307 124.886 147.558 126.483 149.558 127.669C145.13 126.1 140.405 125.557 135.737 126.081C136.928 125.946 139.034 123.501 139.934 122.693C141.362 121.414 142.72 120.058 144 118.631C146.458 115.94 148.61 112.985 150.419 109.821C149.015 113.05 147.554 116.235 146.121 119.42Z" fill="#C53F3F"/>
<g opacity="0.5">
<path d="M146.121 119.42C145.615 120.36 145.322 121.4 145.264 122.465C145.307 124.886 147.558 126.483 149.558 127.669C145.13 126.1 140.405 125.557 135.737 126.081C136.928 125.946 139.034 123.501 139.934 122.693C141.362 121.414 142.72 120.058 144 118.631C146.458 115.94 148.61 112.985 150.419 109.821C149.015 113.05 147.554 116.235 146.121 119.42Z" fill="white"/>
</g>
<path d="M136.7 122.359C134.561 122.814 132.005 121.541 130.432 119.939C131.463 119.246 132.804 119.696 134.023 119.851C135.418 120.02 136.831 119.767 138.08 119.125C138.608 118.859 142.867 115.204 142.838 115.872C142.683 119.338 137.47 122.194 136.7 122.359Z" fill="#C53F3F"/>
<path opacity="0.5" d="M136.7 122.359C134.561 122.814 132.005 121.541 130.432 119.939C131.463 119.246 132.804 119.696 134.023 119.851C135.418 120.02 136.831 119.767 138.08 119.125C138.608 118.859 142.867 115.204 142.838 115.872C142.683 119.338 137.47 122.194 136.7 122.359Z" fill="white"/>
<path d="M132.542 129.818C133.471 129.876 135.015 128.904 135.993 128.695C137.229 128.432 138.49 128.301 139.754 128.303C141.928 128.303 146.1 129.233 148.86 130.288C147.964 131.803 142.083 130.385 140.582 130.288L132.542 129.818Z" fill="#C53F3F"/>
<path opacity="0.5" d="M132.542 129.818C133.471 129.876 135.015 128.904 135.993 128.695C137.229 128.432 138.49 128.301 139.754 128.303C141.928 128.303 146.1 129.233 148.86 130.288C147.964 131.803 142.083 130.385 140.582 130.288L132.542 129.818Z" fill="white"/>
<path d="M140.582 130.298L132.542 129.814L140.582 130.298Z" fill="white"/>
</g>
<path d="M126.186 112.905L126.36 114.314C127.092 120.117 126.894 125.999 125.775 131.74L124.855 137.51L139.43 138.164L155.037 138.319C155.1 136.074 154.916 133.829 154.49 131.624C151.392 115.926 157.147 96.708 155.637 94.2489C154.514 92.4143 145.123 91.0298 145.123 91.0298C145.123 91.0298 136.473 90.7684 133.312 91.9399L132.924 92.1964C128.713 93.7309 125.373 95.3816 123.558 96.7612L124.226 98.5281C124.26 99.414 126.186 112.905 126.186 112.905Z" stroke="#263238" stroke-width="0.483015" stroke-linecap="round" stroke-linejoin="round"/>
<path d="M151.498 107.696C148.321 115.07 143.079 121.367 136.405 125.83" stroke="#263238" stroke-width="0.483015" stroke-linecap="round" stroke-linejoin="round"/>
<path d="M152.103 106.22C151.987 106.535 151.982 106.535 151.856 106.844" stroke="#263238" stroke-width="0.483015" stroke-linecap="round" stroke-linejoin="round"/>
<path d="M153.008 103.669C152.849 104.153 152.679 104.666 152.5 105.16" stroke="#263238" stroke-width="0.483015" stroke-linecap="round" stroke-linejoin="round"/>
<path d="M140.67 119.827C139.622 121.031 138.251 121.909 136.72 122.359C134.517 122.935 131.879 122.078 130.819 119.968" stroke="#263238" stroke-width="0.483015" stroke-linecap="round" stroke-linejoin="round"/>
<path d="M142.001 118.104C141.785 118.427 141.552 118.749 141.304 119.072" stroke="#263238" stroke-width="0.483015" stroke-linecap="round" stroke-linejoin="round"/>
<path d="M148.86 130.288C143.396 128.049 137.289 127.947 131.753 130.002" stroke="#263238" stroke-width="0.483015" stroke-linecap="round" stroke-linejoin="round"/>
<path d="M143.7 126.75C141.743 126.12 139.639 126.12 137.683 126.75" stroke="#263238" stroke-width="0.483015" stroke-linecap="round" stroke-linejoin="round"/>
<path d="M139.944 80.3705C139.826 80.9524 139.615 81.5114 139.319 82.0261C138.787 82.7667 138.269 82.8829 137.722 82.7425" stroke="#263238" stroke-width="0.483015" stroke-linecap="round" stroke-linejoin="round"/>
<path d="M143.419 78.3278C141.909 79.475 136.86 78.0325 136.86 78.0325C136.376 77.9066 136.308 77.3403 136.342 76.6626L135.693 76.5416C134.779 76.3673 133.791 76.1543 133.196 75.4476C132.6 74.7408 132.552 73.7581 132.532 72.8239C130.514 72.6109 129.73 73.6178 129.536 73.1966C129.265 72.6012 128.398 69.6435 131.274 69.1401C134.599 68.5641 140.069 69.6242 141.565 71.1829C143.061 72.7416 146.803 75.767 143.419 78.3278Z" fill="#263238" stroke="#263238" stroke-width="0.483015" stroke-linecap="round" stroke-linejoin="round"/>
<path d="M104.756 96.7757C103.735 96.7515 101.978 97.3324 101.484 96.3739C100.806 95.0621 99.5039 93.7406 99.5039 94.8685C99.5765 96.6838 100.375 98.073 101.576 99.3655C102.191 99.9539 102.901 100.434 103.677 100.784C104.926 101.336 108.483 101.161 109.089 99.5107C109.97 97.1049 106.039 96.7999 104.756 96.7757Z" fill="white" stroke="#263238" stroke-width="0.483015" stroke-linecap="round" stroke-linejoin="round"/>
<path d="M106.112 97.9811C105.911 98.0452 105.697 98.0547 105.491 98.0088C105.285 97.9628 105.095 97.8631 104.941 97.7197C104.621 97.4234 104.328 97.0994 104.065 96.7515C103.58 96.2094 103.125 95.6479 102.448 96.1803C102.336 96.2991 102.267 96.4517 102.253 96.614C102.238 96.7762 102.277 96.9388 102.365 97.0759C102.971 98.3683 103.43 98.6927 104.641 99.3462" fill="white"/>
<path d="M106.112 97.9811C105.911 98.0452 105.697 98.0547 105.491 98.0088C105.285 97.9628 105.095 97.8631 104.941 97.7197C104.621 97.4234 104.328 97.0994 104.065 96.7515C103.58 96.2094 103.125 95.6479 102.448 96.1803C102.336 96.2991 102.267 96.4517 102.253 96.614C102.238 96.7762 102.277 96.9388 102.365 97.0759C102.971 98.3683 103.43 98.6927 104.641 99.3462" stroke="#263238" stroke-width="0.483015" stroke-linecap="round" stroke-linejoin="round"/>
<path d="M126.588 107.348C126.666 108.016 126.588 108.692 126.358 109.325C126.129 109.957 125.755 110.526 125.266 110.988C123.33 112.774 116.688 117.402 115.231 117.581C114.673 117.645 114.108 117.612 113.561 117.484C111.567 117.034 104.78 101.026 104.78 101.026C105.148 100.009 106.658 99.1766 107.685 99.1572C108.711 99.1379 109.263 99.4767 109.878 100.343L115.338 107.851C116.18 107.851 119.695 103.17 119.995 102.338C120.847 99.8591 122.289 97.584 123.572 96.7901C123.557 96.7804 125.455 97.0564 126.588 107.348Z" fill="white" stroke="#263238" stroke-width="0.483015" stroke-linecap="round" stroke-linejoin="round"/>
<path d="M114.873 108.432C114.873 108.432 112.937 109.792 112.283 110.741" stroke="#263238" stroke-width="0.483015" stroke-linecap="round" stroke-linejoin="round"/>
<path d="M114.849 109.294C114.349 109.91 114.096 110.69 114.138 111.482" stroke="#263238" stroke-width="0.483015" stroke-linecap="round" stroke-linejoin="round"/>
<path d="M120.169 101.815C119.645 103.141 119.449 104.574 119.598 105.992" stroke="#263238" stroke-width="0.483015" stroke-linecap="round" stroke-linejoin="round"/>
<path d="M130.911 178.681C132.201 179.493 133.677 179.961 135.2 180.041C133.811 179.922 132.417 180.197 131.177 180.835" stroke="#263238" stroke-width="0.483015" stroke-linecap="round" stroke-linejoin="round"/>
<path d="M135.558 182.437C134.041 182.71 132.541 183.07 131.065 183.517" stroke="#263238" stroke-width="0.483015" stroke-linecap="round" stroke-linejoin="round"/>
<path d="M128.398 148.518C131.433 151.331 135.659 152.212 139.319 150.135C142.915 151.771 148.148 151.587 151.295 149.109" stroke="#263238" stroke-width="0.483015" stroke-linecap="round" stroke-linejoin="round"/>
<path d="M126.956 146.911C127.188 147.221 127.44 147.516 127.687 147.797" stroke="#263238" stroke-width="0.483015" stroke-linecap="round" stroke-linejoin="round"/>
<path d="M156.131 207.096C155.077 207.416 153.949 207.396 152.906 207.04C151.864 206.684 150.96 206.009 150.322 205.111" stroke="#263238" stroke-width="0.483015" stroke-linecap="round" stroke-linejoin="round"/>
<path d="M136.962 207.149C136.163 207.406 135.31 207.446 134.49 207.266C133.67 207.086 132.913 206.691 132.295 206.123" fill="#C53F3F"/>
<path d="M136.962 207.149C136.163 207.406 135.31 207.446 134.49 207.266C133.67 207.086 132.913 206.691 132.295 206.123" stroke="#263238" stroke-width="0.483015" stroke-linecap="round" stroke-linejoin="round"/>
<path d="M148.375 182.495H148.53C149.818 184.093 152.558 184.17 154.155 182.926L150.835 182.166" stroke="#263238" stroke-width="0.483015" stroke-linecap="round" stroke-linejoin="round"/>
<path d="M153.483 176.105C152.399 178.229 150.749 180.012 148.715 181.256" stroke="#263238" stroke-width="0.483015" stroke-linecap="round" stroke-linejoin="round"/>
<path d="M154.616 173.085C154.494 173.59 154.342 174.088 154.161 174.576" stroke="#263238" stroke-width="0.483015" stroke-linecap="round" stroke-linejoin="round"/>
<path d="M139.629 142.215L139.43 148.407" stroke="#263238" stroke-width="0.483015" stroke-linecap="round" stroke-linejoin="round"/>
<path d="M139.702 139.853L139.658 141.194" stroke="#263238" stroke-width="0.483015" stroke-linecap="round" stroke-linejoin="round"/>
<path d="M132.571 78.5989C132.726 78.7928 132.8 79.0389 132.779 79.2862C132.779 79.8671 132.813 80.4432 132.832 81.024C132.852 81.6049 132.832 82.3068 132.397 82.6796C132.162 82.8425 131.875 82.9115 131.591 82.873C131.308 82.8344 131.05 82.6912 130.867 82.4714C130.281 81.8421 129.846 80.0511 130.189 79.2136C130.504 78.4488 131.956 78.0131 132.571 78.5989Z" stroke="#263238" stroke-width="0.483015" stroke-linecap="round" stroke-linejoin="round"/>
<path d="M138.395 79.354C138.196 79.5234 132.779 79.2863 132.779 79.2863" stroke="#263238" stroke-width="0.483015" stroke-linecap="round" stroke-linejoin="round"/>
<path d="M130.161 80.5254C130.172 80.4368 130.163 80.3468 130.134 80.2624C130.105 80.178 130.056 80.1016 129.992 80.0391C129.929 79.9767 129.851 79.93 129.766 79.9026C129.681 79.8753 129.591 79.8681 129.503 79.8816C129.419 79.9156 129.344 79.9676 129.283 80.0338C129.222 80.1001 129.176 80.1789 129.149 80.2649C129.122 80.3508 129.114 80.4416 129.125 80.531C129.137 80.6203 129.168 80.706 129.217 80.7819" stroke="#263238" stroke-width="0.483015" stroke-linecap="round" stroke-linejoin="round"/>
<path d="M142.272 82.5489C142.918 80.9773 143.489 79.3767 143.986 77.7469C142.978 77.955 141.958 78.0957 140.931 78.1681C140.742 79.8333 140.147 81.9148 140.326 83.5752C140.549 85.6422 141.904 83.4299 142.272 82.5489Z" fill="#263238"/>
<path d="M199.465 89.5001V90.4682C199.465 91.2668 199.148 92.0326 198.583 92.5973C198.019 93.1619 197.253 93.4791 196.454 93.4791H155.676C154.878 93.4778 154.114 93.1601 153.55 92.5955C152.986 92.031 152.67 91.2659 152.67 90.4682V89.5001C152.67 90.2978 152.986 91.0629 153.55 91.6274C154.114 92.1919 154.878 92.5097 155.676 92.511H196.449C196.845 92.5116 197.237 92.4342 197.603 92.2832C197.969 92.1322 198.301 91.9105 198.582 91.6308C198.862 91.3512 199.084 91.019 199.235 90.6534C199.387 90.2878 199.465 89.8959 199.465 89.5001Z" fill="#999999"/>
<path d="M196.454 77.7759H155.685C154.022 77.7759 152.674 79.124 152.674 80.7869V90.4489C152.674 92.1118 154.022 93.4599 155.685 93.4599H196.454C198.117 93.4599 199.465 92.1118 199.465 90.4489V80.7869C199.465 79.124 198.117 77.7759 196.454 77.7759Z" fill="#BFBFBF"/>
<path d="M196.454 76.8222H155.685C154.022 76.8222 152.674 78.1702 152.674 79.8331V90.4488C152.674 92.1117 154.022 93.4597 155.685 93.4597H196.454C198.117 93.4597 199.465 92.1117 199.465 90.4488V79.8331C199.465 78.1702 198.117 76.8222 196.454 76.8222Z" stroke="#263238" stroke-width="0.483015" stroke-linecap="round" stroke-linejoin="round"/>
<path d="M111.908 90.6849C112.885 86.515 110.297 82.3424 106.127 81.3651C101.957 80.3878 97.7844 82.976 96.8071 87.1459C95.8298 91.3157 98.418 95.4883 102.588 96.4656C106.758 97.4429 110.93 94.8548 111.908 90.6849Z" fill="#C53F3F" stroke="#263238" stroke-width="0.483015" stroke-linecap="round" stroke-linejoin="round"/>
<path opacity="0.5" d="M110.173 85.6711C110.173 87.3266 107.588 85.8647 104.394 85.8647C101.199 85.8647 98.6138 87.3169 98.6138 85.6711C98.6138 84.0252 101.204 82.0889 104.394 82.0889C107.584 82.0889 110.173 84.0155 110.173 85.6711Z" fill="white"/>
<path opacity="0.1" d="M110.913 92.0222C110.913 94.3119 107.399 96.6257 104.533 96.6257C101.886 96.6257 98.1533 94.3119 98.1533 92.0222C98.1533 89.7325 101.009 87.8737 104.533 87.8737C108.057 87.8737 110.913 89.7325 110.913 92.0222Z" fill="black"/>
<path d="M140.751 36.6202C142.767 36.6202 144.401 34.9861 144.401 32.9703C144.401 30.9545 142.767 29.3204 140.751 29.3204C138.736 29.3204 137.102 30.9545 137.102 32.9703C137.102 34.9861 138.736 36.6202 140.751 36.6202Z" fill="white"/>
<path d="M142.136 12.2907H139.222V24.8282H142.136V12.2907Z" fill="#263238" stroke="#263238" stroke-width="0.483015" stroke-linecap="round" stroke-linejoin="round"/>
<path d="M153.633 33.919H127.75L139.212 21.6672H142.17L153.633 33.919Z" fill="#263238" stroke="#263238" stroke-width="0.483015" stroke-linecap="round" stroke-linejoin="round"/>
<path d="M140.674 1.46686V12.2907" stroke="#263238" stroke-width="0.483015" stroke-linecap="round" stroke-linejoin="round"/>
<path d="M139.212 21.6672H142.17" stroke="white" stroke-width="0.483015" stroke-linecap="round" stroke-linejoin="round"/>
<path d="M55.1442 155.305L53.7162 155.329C53.5384 154.942 53.3244 154.572 53.0772 154.225L53.813 153.001C53.4359 152.532 53.009 152.105 52.5399 151.728L51.3152 152.463C50.9672 152.218 50.5978 152.004 50.2115 151.825L50.2357 150.396C49.6773 150.173 49.0962 150.011 48.5028 149.912L47.8057 151.161C47.5992 151.142 47.3862 151.132 47.1667 151.132C46.9537 151.132 46.7407 151.132 46.5326 151.161L45.8355 149.917C45.2421 150.015 44.661 150.178 44.1025 150.401V151.829C43.7147 152.009 43.3437 152.223 42.994 152.468L41.7693 151.733C41.3029 152.111 40.8778 152.538 40.5011 153.006L41.2368 154.23C40.9897 154.578 40.7742 154.948 40.593 155.334L39.1408 155.31C38.9195 155.869 38.7572 156.45 38.6567 157.043L39.9105 157.74C39.9105 157.948 39.8766 158.161 39.8766 158.379C39.8766 158.597 39.8766 158.805 39.9105 159.018L38.6567 159.71C38.7572 160.303 38.9195 160.884 39.1408 161.443L40.593 161.419C40.7742 161.807 40.9897 162.178 41.2368 162.527L40.5011 163.752C40.8791 164.217 41.3041 164.642 41.7693 165.02L42.994 164.285C43.3436 164.532 43.7146 164.747 44.1025 164.928V166.356C44.6618 166.578 45.2426 166.74 45.8355 166.84L46.5326 165.587C46.7407 165.587 46.9537 165.621 47.1667 165.621C47.3797 165.621 47.5975 165.621 47.8057 165.587L48.5028 166.84C49.0957 166.74 49.6765 166.578 50.2357 166.356L50.2115 164.928C50.5979 164.747 50.9673 164.532 51.3152 164.285L52.5399 165.02C53.0078 164.644 53.4345 164.218 53.813 163.752L53.0772 162.503C53.3247 162.155 53.5387 161.783 53.7162 161.395L55.1442 161.419C55.3678 160.86 55.5301 160.279 55.6283 159.686L54.3794 158.994C54.3988 158.781 54.4084 158.568 54.4084 158.355C54.4084 158.142 54.3988 157.929 54.3794 157.716L55.6283 157.019C55.5287 156.432 55.3664 155.857 55.1442 155.305Z" stroke="#263238" stroke-width="0.483015" stroke-linecap="round" stroke-linejoin="round"/>
<path opacity="0.3" d="M55.1442 155.305L53.7162 155.329C53.5384 154.942 53.3244 154.572 53.0772 154.225L53.813 153.001C53.4359 152.532 53.009 152.105 52.5399 151.728L51.3152 152.463C50.9672 152.218 50.5978 152.004 50.2115 151.825L50.2357 150.396C49.6773 150.173 49.0962 150.011 48.5028 149.912L47.8057 151.161C47.5992 151.142 47.3862 151.132 47.1667 151.132C46.9537 151.132 46.7407 151.132 46.5326 151.161L45.8355 149.917C45.2421 150.015 44.661 150.178 44.1025 150.401V151.829C43.7147 152.009 43.3437 152.223 42.994 152.468L41.7693 151.733C41.3029 152.111 40.8778 152.538 40.5011 153.006L41.2368 154.23C40.9897 154.578 40.7742 154.948 40.593 155.334L39.1408 155.31C38.9195 155.869 38.7572 156.45 38.6567 157.043L39.9105 157.74C39.9105 157.948 39.8766 158.161 39.8766 158.379C39.8766 158.597 39.8766 158.805 39.9105 159.018L38.6567 159.71C38.7572 160.303 38.9195 160.884 39.1408 161.443L40.593 161.419C40.7742 161.807 40.9897 162.178 41.2368 162.527L40.5011 163.752C40.8791 164.217 41.3041 164.642 41.7693 165.02L42.994 164.285C43.3436 164.532 43.7146 164.747 44.1025 164.928V166.356C44.6618 166.578 45.2426 166.74 45.8355 166.84L46.5326 165.587C46.7407 165.587 46.9537 165.621 47.1667 165.621C47.3797 165.621 47.5975 165.621 47.8057 165.587L48.5028 166.84C49.0957 166.74 49.6765 166.578 50.2357 166.356L50.2115 164.928C50.5979 164.747 50.9673 164.532 51.3152 164.285L52.5399 165.02C53.0078 164.644 53.4345 164.218 53.813 163.752L53.0772 162.503C53.3247 162.155 53.5387 161.783 53.7162 161.395L55.1442 161.419C55.3678 160.86 55.5301 160.279 55.6283 159.686L54.3794 158.994C54.3988 158.781 54.4084 158.568 54.4084 158.355C54.4084 158.142 54.3988 157.929 54.3794 157.716L55.6283 157.019C55.5287 156.432 55.3664 155.857 55.1442 155.305Z" stroke="#263238" stroke-width="0.483015" stroke-linecap="round" stroke-linejoin="round"/>
<path d="M47.7457 163.123C50.3674 162.801 52.2317 160.415 51.9098 157.793C51.5879 155.171 49.2017 153.307 46.58 153.629C43.9583 153.951 42.094 156.337 42.4159 158.959C42.7378 161.58 45.124 163.445 47.7457 163.123Z" stroke="#263238" stroke-width="0.483015" stroke-linecap="round" stroke-linejoin="round"/>
<path d="M81.0557 8.33105H85.543" stroke="#263238" stroke-width="0.483015" stroke-linecap="round" stroke-linejoin="round"/>
<path d="M58.0054 8.33105H77.5377" stroke="#263238" stroke-width="0.483015" stroke-linecap="round" stroke-linejoin="round"/>
<path d="M91.1297 5.25232H5.14404V143.087H91.1297V5.25232Z" stroke="#263238" stroke-width="0.483015" stroke-linecap="round" stroke-linejoin="round"/>
<path d="M83.2693 83.5414C86.2978 80.5129 86.2978 75.6028 83.2693 72.5744C80.2409 69.5459 75.3308 69.5459 72.3023 72.5744C69.2739 75.6028 69.2739 80.5129 72.3023 83.5414C75.3308 86.5698 80.2409 86.5698 83.2693 83.5414Z" fill="#263238" stroke="white" stroke-width="0.483015" stroke-linecap="round" stroke-linejoin="round"/>
<path d="M77.7836 34.863C82.0665 34.863 85.5385 31.391 85.5385 27.1082C85.5385 22.8253 82.0665 19.3533 77.7836 19.3533C73.5008 19.3533 70.0288 22.8253 70.0288 27.1082C70.0288 31.391 73.5008 34.863 77.7836 34.863Z" fill="#C53F3F" stroke="#263238" stroke-width="0.483015" stroke-linecap="round" stroke-linejoin="round"/>
<path d="M85.3344 53.9771C86.3116 49.8072 83.7235 45.6346 79.5536 44.6574C75.3837 43.6801 71.2111 46.2682 70.2339 50.4381C69.2566 54.608 71.8447 58.7806 76.0146 59.7578C80.1845 60.7351 84.3571 58.147 85.3344 53.9771Z" stroke="#263238" stroke-width="0.483015" stroke-linecap="round" stroke-linejoin="round"/>
<path d="M77.7843 56.9755C80.2867 56.9755 82.3152 54.9469 82.3152 52.4445C82.3152 49.9422 80.2867 47.9136 77.7843 47.9136C75.282 47.9136 73.2534 49.9422 73.2534 52.4445C73.2534 54.9469 75.282 56.9755 77.7843 56.9755Z" fill="#C53F3F"/>
<path d="M69.0612 121.246H28.2927C26.6298 121.246 25.2817 122.594 25.2817 124.257V134.872C25.2817 136.535 26.6298 137.883 28.2927 137.883H69.0612C70.7241 137.883 72.0721 136.535 72.0721 134.872V124.257C72.0721 122.594 70.7241 121.246 69.0612 121.246Z" stroke="#263238" stroke-width="0.483015" stroke-linecap="round" stroke-linejoin="round"/>
<path d="M69.7578 125.312V133.57C69.7478 133.889 69.6748 134.203 69.5429 134.494C69.411 134.785 69.2229 135.047 68.9893 135.264C68.7558 135.482 68.4815 135.652 68.1822 135.763C67.8829 135.874 67.5645 135.925 67.2454 135.913H29.817C29.4979 135.925 29.1796 135.874 28.8803 135.763C28.581 135.652 28.3067 135.482 28.0731 135.264C27.8396 135.047 27.6515 134.785 27.5196 134.494C27.3877 134.203 27.3147 133.889 27.3047 133.57V125.312C27.3153 124.993 27.3888 124.68 27.521 124.389C27.6531 124.099 27.8413 123.838 28.0748 123.62C28.3083 123.403 28.5824 123.234 28.8814 123.123C29.1804 123.012 29.4983 122.961 29.817 122.974H67.26C67.9012 122.953 68.5244 123.187 68.9928 123.626C69.4612 124.064 69.7363 124.671 69.7578 125.312Z" fill="#C53F3F"/>
<path d="M61.388 77.5824C61.3874 78.6759 61.1712 79.7587 60.7518 80.7686C60.3325 81.7786 59.7181 82.696 58.944 83.4684C58.1698 84.2407 57.251 84.8529 56.24 85.2699C55.2291 85.687 54.1459 85.9006 53.0523 85.8987H22.914C20.7084 85.8987 18.5931 85.0225 17.0335 83.4629C15.4738 81.9033 14.5977 79.788 14.5977 77.5824C14.597 76.4899 14.8117 75.4079 15.2293 74.3984C15.647 73.3888 16.2594 72.4714 17.0317 71.6987C17.8041 70.9259 18.7211 70.3129 19.7304 69.8947C20.7397 69.4764 21.8215 69.2612 22.914 69.2612H53.0523C54.1463 69.2593 55.2299 69.4731 56.2412 69.8904C57.2524 70.3077 58.1714 70.9204 58.9457 71.6933C59.7199 72.4661 60.3341 73.3841 60.7532 74.3946C61.1723 75.4052 61.388 76.4884 61.388 77.5824Z" fill="white"/>
<mask id="mask4_454_10145" style="mask-type:luminance" maskUnits="userSpaceOnUse" x="14" y="69" width="48" height="17">
<path d="M61.388 77.5824C61.3874 78.6759 61.1712 79.7587 60.7518 80.7686C60.3325 81.7786 59.7181 82.696 58.944 83.4684C58.1698 84.2407 57.251 84.8529 56.24 85.2699C55.2291 85.687 54.1459 85.9006 53.0523 85.8987H22.914C20.7084 85.8987 18.5931 85.0225 17.0335 83.4629C15.4738 81.9033 14.5977 79.788 14.5977 77.5824C14.597 76.4899 14.8117 75.4079 15.2293 74.3984C15.647 73.3888 16.2594 72.4714 17.0317 71.6987C17.8041 70.9259 18.7211 70.3129 19.7304 69.8947C20.7397 69.4764 21.8215 69.2612 22.914 69.2612H53.0523C54.1463 69.2593 55.2299 69.4731 56.2412 69.8904C57.2524 70.3077 58.1714 70.9204 58.9457 71.6933C59.7199 72.4661 60.3341 73.3841 60.7532 74.3946C61.1723 75.4052 61.388 76.4884 61.388 77.5824Z" fill="white"/>
</mask>
<g mask="url(#mask4_454_10145)">
<path d="M61.388 77.5824C61.3874 78.6759 61.1712 79.7587 60.7518 80.7686C60.3325 81.7786 59.7181 82.696 58.944 83.4684C58.1698 84.2407 57.251 84.8529 56.24 85.2699C55.2291 85.687 54.1459 85.9006 53.0523 85.8987H22.914C20.7084 85.8987 18.5931 85.0225 17.0335 83.4629C15.4738 81.9033 14.5977 79.788 14.5977 77.5824C14.597 76.4899 14.8117 75.4079 15.2293 74.3984C15.647 73.3888 16.2594 72.4714 17.0317 71.6987C17.8041 70.9259 18.7211 70.3129 19.7304 69.8947C20.7397 69.4764 21.8215 69.2612 22.914 69.2612H53.0523C54.1463 69.2593 55.2299 69.4731 56.2412 69.8904C57.2524 70.3077 58.1714 70.9204 58.9457 71.6933C59.7199 72.4661 60.3341 73.3841 60.7532 74.3946C61.1723 75.4052 61.388 76.4884 61.388 77.5824Z" fill="#C0C0C0"/>
<path d="M55.6955 85.5357C56.2627 85.392 56.8153 85.1959 57.3461 84.95H19.2158C19.7443 85.3324 20.3123 85.657 20.9101 85.9181H54.858C55.1117 85.741 55.3955 85.6114 55.6955 85.5357Z" fill="#999999"/>
<path opacity="0.2" d="M54.0203 79.9979H22.0135C18.775 79.9979 16.1514 79.7946 16.1514 76.561C16.1514 75.0063 16.769 73.5152 17.8683 72.4159C18.9677 71.3165 20.4587 70.6989 22.0135 70.6989H54.0203C54.7901 70.6989 55.5524 70.8505 56.2636 71.1451C56.9749 71.4397 57.6211 71.8715 58.1654 72.4159C58.7098 72.9602 59.1416 73.6065 59.4362 74.3177C59.7308 75.0289 59.8824 75.7912 59.8824 76.561C59.8727 79.7946 57.2491 79.9979 54.0203 79.9979Z" fill="white"/>
</g>
<path d="M61.388 77.5824C61.3874 78.6759 61.1712 79.7587 60.7518 80.7686C60.3325 81.7786 59.7181 82.696 58.944 83.4684C58.1698 84.2407 57.251 84.8529 56.24 85.2699C55.2291 85.687 54.1459 85.9006 53.0523 85.8987H22.914C20.7084 85.8987 18.5931 85.0225 17.0335 83.4629C15.4738 81.9033 14.5977 79.788 14.5977 77.5824C14.597 76.4899 14.8117 75.4079 15.2293 74.3984C15.647 73.3888 16.2594 72.4714 17.0317 71.6987C17.8041 70.9259 18.7211 70.3129 19.7304 69.8947C20.7397 69.4764 21.8215 69.2612 22.914 69.2612H53.0523C54.1463 69.2593 55.2299 69.4731 56.2412 69.8904C57.2524 70.3077 58.1714 70.9204 58.9457 71.6933C59.7199 72.4661 60.3341 73.3841 60.7532 74.3946C61.1723 75.4052 61.388 76.4884 61.388 77.5824Z" stroke="#757575" stroke-width="0.483015" stroke-linecap="round" stroke-linejoin="round"/>
<path d="M50.6614 36.3733H26.787C25.4729 36.374 24.1715 36.1156 22.9572 35.613C21.743 35.1104 20.6397 34.3734 19.7105 33.4441C18.7812 32.5149 18.0442 31.4116 17.5416 30.1974C17.039 28.9831 16.7806 27.6817 16.7813 26.3676C16.7806 25.0534 17.039 23.752 17.5416 22.5378C18.0442 21.3235 18.7812 20.2203 19.7105 19.291C20.6397 18.3618 21.743 17.6248 22.9572 17.1222C24.1715 16.6196 25.4729 16.3612 26.787 16.3618H50.6614C51.9758 16.3612 53.2774 16.6195 54.492 17.1221C55.7065 17.6246 56.8101 18.3615 57.7397 19.2907C58.6693 20.2199 59.4068 21.3232 59.9099 22.5374C60.4131 23.7517 60.672 25.0532 60.672 26.3676C60.672 27.682 60.4131 28.9835 59.9099 30.1977C59.4068 31.412 58.6693 32.5153 57.7397 33.4444C56.8101 34.3736 55.7065 35.1105 54.492 35.6131C53.2774 36.1156 51.9758 36.374 50.6614 36.3733Z" fill="#263238" stroke="#263238" stroke-width="0.483015" stroke-linecap="round" stroke-linejoin="round"/>
<path d="M49.9309 15.626H26.0517C20.5256 15.626 16.0459 20.1058 16.0459 25.6318V25.6366C16.0459 31.1627 20.5256 35.6424 26.0517 35.6424H49.9309C55.4569 35.6424 59.9367 31.1627 59.9367 25.6366V25.6318C59.9367 20.1058 55.4569 15.626 49.9309 15.626Z" fill="#BFBFBF"/>
<path d="M52.5154 42.1967H23.6356C18.1096 42.1967 13.6299 46.6764 13.6299 52.2025V52.2073C13.6299 57.7333 18.1096 62.2131 23.6356 62.2131H52.5154C58.0414 62.2131 62.5211 57.7333 62.5211 52.2073V52.2025C62.5211 46.6764 58.0414 42.1967 52.5154 42.1967Z" fill="#C53F3F"/>
<path d="M52.5154 42.1967H23.6356C18.1096 42.1967 13.6299 46.6764 13.6299 52.2025V52.2073C13.6299 57.7333 18.1096 62.2131 23.6356 62.2131H52.5154C58.0414 62.2131 62.5211 57.7333 62.5211 52.2073V52.2025C62.5211 46.6764 58.0414 42.1967 52.5154 42.1967Z" fill="#757575"/>
<path d="M49.8144 44.9316H26.1724C21.6463 44.9316 17.9771 48.2959 17.9771 52.4444C17.9771 56.5929 21.6463 59.9572 26.1724 59.9572H49.8144C54.3405 59.9572 58.0049 56.5929 58.0049 52.4444C58.0049 48.2959 54.3405 44.9316 49.8144 44.9316Z" fill="#999999" stroke="#263238" stroke-width="0.483015" stroke-linecap="round" stroke-linejoin="round"/>
<path d="M49.8146 44.9316C54.3407 44.9316 58.0051 48.2959 58.0051 52.4444C58.0051 56.5929 54.3407 59.9572 49.8146 59.9572H26.1726C21.6465 59.9572 17.9772 56.5929 17.9772 52.4444C17.9772 48.2959 21.6465 44.9316 26.1726 44.9316H49.8146ZM49.8146 44.4476H26.1726C21.3851 44.4476 17.4932 48.0345 17.4932 52.4444C17.4932 56.8543 21.3657 60.4413 26.1726 60.4413H49.8146C54.5973 60.4413 58.4892 56.8543 58.4892 52.4444C58.4892 48.0345 54.6166 44.4476 49.8146 44.4476Z" fill="white"/>
<path d="M49.8144 44.9316H26.1724C21.6463 44.9316 17.9771 48.2959 17.9771 52.4444C17.9771 56.5929 21.6463 59.9572 26.1724 59.9572H49.8144C54.3405 59.9572 58.0049 56.5929 58.0049 52.4444C58.0049 48.2959 54.3405 44.9316 49.8144 44.9316Z" stroke="#263238" stroke-width="0.483015" stroke-linecap="round" stroke-linejoin="round"/>
<path d="M69.6906 99.9997H28.9221C27.2592 99.9997 25.9111 101.348 25.9111 103.011V112.673C25.9111 114.336 27.2592 115.684 28.9221 115.684H69.6906C71.3535 115.684 72.7015 114.336 72.7015 112.673V103.011C72.7015 101.348 71.3535 99.9997 69.6906 99.9997Z" fill="#263238"/>
<mask id="mask5_454_10145" style="mask-type:luminance" maskUnits="userSpaceOnUse" x="25" y="99" width="48" height="17">
<path d="M69.6906 99.9997H28.9221C27.2592 99.9997 25.9111 101.348 25.9111 103.011V112.673C25.9111 114.336 27.2592 115.684 28.9221 115.684H69.6906C71.3535 115.684 72.7015 114.336 72.7015 112.673V103.011C72.7015 101.348 71.3535 99.9997 69.6906 99.9997Z" fill="white"/>
</mask>
<g mask="url(#mask5_454_10145)">
<path d="M72.7064 111.724V112.692C72.7064 113.087 72.6285 113.479 72.4772 113.844C72.3258 114.21 72.1041 114.541 71.8245 114.821C71.5449 115.101 71.213 115.322 70.8477 115.474C70.4823 115.625 70.0908 115.703 69.6954 115.703H28.9172C28.1195 115.702 27.3549 115.384 26.7913 114.819C26.2277 114.255 25.9111 113.49 25.9111 112.692V111.724C25.9111 112.522 26.2277 113.287 26.7913 113.851C27.3549 114.416 28.1195 114.734 28.9172 114.735H69.6954C70.0908 114.735 70.4823 114.657 70.8477 114.506C71.213 114.354 71.5449 114.133 71.8245 113.853C72.1041 113.573 72.3258 113.241 72.4772 112.876C72.6285 112.511 72.7064 112.119 72.7064 111.724Z" fill="#263238"/>
</g>
<path d="M68.9108 99.1672H28.1423C26.4794 99.1672 25.1313 100.515 25.1313 102.178V111.84C25.1313 113.503 26.4794 114.851 28.1423 114.851H68.9108C70.5737 114.851 71.9217 113.503 71.9217 111.84V102.178C71.9217 100.515 70.5737 99.1672 68.9108 99.1672Z" fill="#BFBFBF"/>
<mask id="mask6_454_10145" style="mask-type:luminance" maskUnits="userSpaceOnUse" x="25" y="99" width="47" height="16">
<path d="M68.9108 99.1672H28.1423C26.4794 99.1672 25.1313 100.515 25.1313 102.178V111.84C25.1313 113.503 26.4794 114.851 28.1423 114.851H68.9108C70.5737 114.851 71.9217 113.503 71.9217 111.84V102.178C71.9217 100.515 70.5737 99.1672 68.9108 99.1672Z" fill="white"/>
</mask>
<g mask="url(#mask6_454_10145)">
<path d="M71.9314 110.891V111.86C71.9314 112.255 71.8535 112.646 71.7022 113.012C71.5509 113.377 71.3291 113.709 71.0495 113.989C70.7699 114.268 70.438 114.49 70.0727 114.641C69.7074 114.793 69.3159 114.87 68.9205 114.87H28.1374C27.3397 114.869 26.5751 114.551 26.0115 113.987C25.4479 113.422 25.1313 112.657 25.1313 111.86V110.891C25.1313 111.689 25.4479 112.454 26.0115 113.019C26.5751 113.583 27.3397 113.901 28.1374 113.902H68.9108C69.307 113.904 69.6996 113.827 70.066 113.676C70.4324 113.525 70.7655 113.304 71.0461 113.024C71.3267 112.744 71.5494 112.412 71.7013 112.046C71.8532 111.68 71.9314 111.288 71.9314 110.891Z" fill="#BFBFBF"/>
</g>
<path d="M79.0716 217.295C78.907 217.334 73.3305 217.334 73.1708 217.295C69.0755 216.399 54.5485 211.626 67.6427 196.165H84.4061C97.4954 211.617 83.162 216.399 79.0716 217.295Z" fill="white" stroke="#263238" stroke-width="0.483015" stroke-miterlimit="10"/>
<path d="M84.4013 196.267C84.4013 196.518 84.0237 196.751 83.3606 196.959C81.9084 196.509 79.1588 196.209 75.9736 196.209C72.7884 196.209 70.0244 196.509 68.5915 196.959C67.9284 196.756 67.5508 196.518 67.5508 196.267C67.5508 195.473 71.3217 194.815 75.9736 194.815C80.6256 194.815 84.4013 195.473 84.4013 196.267Z" fill="white" stroke="#263238" stroke-width="0.483015" stroke-miterlimit="10"/>
<path d="M83.3598 196.959C81.9076 197.404 79.1581 197.705 75.9729 197.705C72.7877 197.705 70.0237 197.404 68.5908 196.959C70.043 196.509 72.7926 196.209 75.9729 196.209C79.1533 196.209 81.927 196.509 83.3598 196.959Z" fill="#263238" stroke="#263238" stroke-width="0.483015" stroke-miterlimit="10"/>
<path d="M82.4312 200.643C83.0217 200.522 83.5978 200.386 84.169 200.236L82.4312 200.643Z" fill="white"/>
<path d="M82.4312 200.643C83.0217 200.522 83.5978 200.386 84.169 200.236" stroke="#263238" stroke-width="0.483015" stroke-miterlimit="10"/>
<path d="M67.9761 199.994C71.9745 201.422 76.6652 201.587 81.0073 200.899L67.9761 199.994Z" fill="white"/>
<path d="M67.9761 199.994C71.9745 201.422 76.6652 201.587 81.0073 200.899" stroke="#263238" stroke-width="0.483015" stroke-miterlimit="10"/>
<path d="M87.7509 171.957C85.8582 172.252 83.128 171.25 83.0796 169.377C83.0801 169.077 83.1208 168.779 83.2006 168.491C84.6044 168.718 85.9985 167.847 87.3539 168.384C88.0897 168.694 89.5662 169.444 89.7743 170.233C90.026 171.298 88.7868 171.797 87.7509 171.957Z" fill="#263238"/>
<path d="M81.6123 169.808C80.1601 169.154 78.9596 168.268 78.7901 166.216C78.7175 165.349 79.0903 164.4 79.9035 164.352C80.201 164.363 80.4919 164.443 80.7526 164.587C81.0133 164.731 81.2365 164.934 81.4041 165.18C81.7457 165.665 81.983 166.215 82.1012 166.797C82.2355 167.391 82.2584 168.005 82.169 168.607C82.0634 169.04 81.8743 169.447 81.6123 169.808Z" fill="#263238"/>
<path d="M85.7418 165.296C83.9749 167.619 81.8692 169.706 79.8555 171.937L85.7418 165.296Z" fill="#263238"/>
<path d="M85.7418 165.296C83.9749 167.619 81.8692 169.706 79.8555 171.937" stroke="#263238" stroke-width="0.483015" stroke-miterlimit="10"/>
<path d="M82.1307 178.293C81.1495 178.38 80.1609 178.265 79.2262 177.954C78.2968 177.625 77.411 177.088 77.2657 176.154C77.2148 175.856 77.2148 175.551 77.2657 175.253C78.6792 175.292 80.0056 174.44 81.3271 175.06C82.0484 175.389 83.4425 176.255 83.6894 176.967C84.0331 177.911 83.0649 178.182 82.1307 178.293Z" fill="#263238"/>
<path d="M75.9198 176.88C75.1531 176.787 74.4134 176.538 73.7463 176.149C73.1122 175.723 72.6427 175.045 72.5071 173.796C72.3861 172.77 72.8072 171.565 73.7415 171.313C74.0441 171.255 74.3569 171.288 74.6415 171.405C74.9261 171.523 75.1702 171.722 75.3438 171.976C75.6908 172.479 75.9374 173.045 76.0699 173.641C76.2283 174.256 76.3 174.89 76.2829 175.524C76.2279 175.991 76.1056 176.448 75.9198 176.88Z" fill="#263238"/>
<path d="M79.856 171.937C78.8359 173.055 77.8808 174.23 76.9952 175.457C76.5448 176.085 76.1372 176.743 75.7753 177.427C75.6107 177.775 75.4219 178.119 75.2912 178.477L74.8652 179.552" fill="#263238"/>
<path d="M79.856 171.937C78.8359 173.055 77.8808 174.23 76.9952 175.457C76.5448 176.085 76.1372 176.743 75.7753 177.427C75.6107 177.775 75.4219 178.119 75.2912 178.477L74.8652 179.552" stroke="#263238" stroke-width="0.483015" stroke-miterlimit="10"/>
<path d="M79.6765 184.17C78.8438 184.684 77.9204 185.034 76.956 185.201C75.9637 185.37 74.9472 185.254 74.3856 184.509C74.2113 184.262 74.0742 183.992 73.979 183.705C74.584 183.36 75.1504 182.951 75.6684 182.485C76.1787 182.041 76.8267 181.786 77.503 181.764C78.2872 181.764 79.9234 182.03 80.4462 182.5C80.8189 182.819 80.8141 183.105 80.6156 183.376C80.3567 183.699 80.0378 183.968 79.6765 184.17Z" fill="#263238"/>
<path d="M73.4901 185.738C71.941 186.135 70.4356 186.363 69.056 184.572C68.4847 183.812 68.2718 182.495 69.0124 181.803C69.2493 181.602 69.5425 181.479 69.8519 181.451C70.1613 181.424 70.4717 181.492 70.7405 181.648C71.2806 181.945 71.7575 182.344 72.1443 182.824C72.5658 183.301 72.9223 183.832 73.2045 184.402C73.3658 184.831 73.4621 185.281 73.4901 185.738Z" fill="#263238"/>
<path d="M74.8358 179.552C74.3382 181.002 73.9879 182.499 73.7902 184.02C73.5874 185.528 73.5 187.049 73.5288 188.57" fill="#263238"/>
<path d="M74.8358 179.552C74.3382 181.002 73.9879 182.499 73.7902 184.02C73.5874 185.528 73.5 187.049 73.5288 188.57" stroke="#263238" stroke-width="0.483015" stroke-miterlimit="10"/>
<path d="M79.5699 191.625C78.9291 192.386 78.1316 193 77.2318 193.425C76.3073 193.851 75.3198 193.987 74.5646 193.425C74.3298 193.236 74.1271 193.011 73.9644 192.757C75.0245 191.818 75.3778 190.269 76.7671 189.819C77.5223 189.567 79.1294 189.248 79.7974 189.577C80.6784 189.993 80.1605 190.884 79.5699 191.625Z" fill="#263238"/>
<path d="M74.0176 194.834C72.638 195.594 71.2051 196.156 69.4431 194.834C68.6928 194.277 68.1797 193.145 68.6734 192.346C68.8552 192.097 69.105 191.906 69.3927 191.797C69.6805 191.687 69.9938 191.662 70.2951 191.726C70.893 191.846 71.4618 192.081 71.97 192.418C72.5131 192.741 73.0029 193.146 73.4222 193.619C73.6904 193.986 73.892 194.397 74.0176 194.834Z" fill="#263238"/>
<path d="M73.543 188.57C73.5986 191.599 73.9997 194.612 74.7386 197.55L73.543 188.57Z" fill="#263238"/>
<path d="M73.543 188.57C73.5986 191.599 73.9997 194.612 74.7386 197.55" stroke="#263238" stroke-width="0.483015" stroke-miterlimit="10"/>
<path d="M91.604 186.745C89.7355 187.466 86.831 187.011 86.5019 185.104C86.4584 184.796 86.4584 184.483 86.5019 184.175C87.9541 184.107 89.2078 182.916 90.6552 183.163C91.4442 183.313 93.0465 183.758 93.3708 184.523C93.792 185.554 92.6205 186.372 91.604 186.745Z" fill="#263238"/>
<path d="M85.1125 185.845C83.549 185.472 82.2081 184.809 81.724 182.761C81.5207 181.9 81.724 180.864 82.5518 180.641C82.8454 180.59 83.147 180.611 83.4304 180.703C83.7139 180.795 83.9706 180.955 84.1783 181.169C84.6083 181.593 84.9389 182.107 85.1464 182.674C85.376 183.259 85.4942 183.881 85.4949 184.509C85.4508 184.974 85.3211 185.427 85.1125 185.845Z" fill="#263238"/>
<path d="M88.5253 180.355C87.1553 183.124 85.3352 185.704 83.6265 188.372L88.5253 180.355Z" fill="#263238"/>
<path d="M88.5253 180.355C87.1553 183.124 85.3352 185.704 83.6265 188.372" stroke="#263238" stroke-width="0.483015" stroke-miterlimit="10"/>
<path d="M86.6324 194.602C85.6585 194.89 84.6302 194.945 83.6312 194.761C82.6195 194.568 81.7433 194.093 81.5013 193.149C81.4313 192.843 81.4068 192.528 81.4286 192.215C82.8809 192.055 84.1152 190.923 85.5287 191.31C86.3032 191.513 87.8232 192.128 88.1572 192.835C88.5929 193.769 87.5618 194.301 86.6324 194.602Z" fill="#263238"/>
<path d="M80.1841 194.045C78.5915 193.866 77.1102 193.512 76.51 191.291C76.3905 190.798 76.4022 190.282 76.5439 189.795C76.604 189.563 76.7146 189.347 76.8678 189.163C77.0209 188.979 77.2128 188.831 77.4297 188.73C77.722 188.634 78.0359 188.625 78.3333 188.704C78.6306 188.783 78.8986 188.947 79.1046 189.175C79.5183 189.631 79.8345 190.166 80.034 190.748C80.2657 191.353 80.4044 191.99 80.4455 192.636C80.4311 193.116 80.3429 193.592 80.1841 194.045Z" fill="#263238"/>
<path d="M83.6262 188.372C81.9078 191.039 79.2696 194.776 78.1514 197.816L83.6262 188.372Z" fill="#263238"/>
<path d="M83.6262 188.372C81.9078 191.039 79.2696 194.776 78.1514 197.816" stroke="#263238" stroke-width="0.483015" stroke-miterlimit="10"/>
<path d="M90.7619 179.126C90.5881 180.27 89.9902 181.307 89.087 182.03C88.9902 182.093 87.5428 182.964 87.2185 182.814C86.59 182.167 86.1992 181.326 86.1099 180.428C85.9688 179.472 86.1119 178.496 86.5214 177.62C86.928 176.807 88.3415 175.486 89.5033 175.815C90.6651 176.144 90.8926 178.288 90.7619 179.126Z" fill="#263238"/>
<path d="M88.3894 162.566C88.2208 163.705 87.6341 164.74 86.7436 165.47C86.6419 165.533 85.2091 166.438 84.8799 166.269C84.2449 165.629 83.8455 164.793 83.7472 163.897C83.5935 162.942 83.7265 161.963 84.1296 161.084C84.5265 160.271 85.9255 158.93 87.0921 159.25C88.2587 159.569 88.4862 161.728 88.3894 162.566Z" fill="#263238"/>
</g>
<defs>
<clipPath id="clip0_454_10145">
<rect width="218.4" height="216.509" fill="white" transform="translate(0.800293 0.245667)"/>
</clipPath>
</defs>
</svg>
