<svg width="294" height="334" viewBox="0 0 294 334" fill="none" xmlns="http://www.w3.org/2000/svg">
<g clip-path="url(#clip0_454_9670)">
<path opacity="0.7" d="M10.4411 103.787C10.4411 103.787 -10.5308 157.947 18.9412 212.483C48.4133 267.019 109.118 295.829 157.704 320.465C206.289 345.1 256.741 333.102 280.714 292.753C304.688 252.404 271.808 223.601 271.763 166.064C271.718 108.526 280.376 93.2937 249.196 44.6852C218.017 -3.92333 141.583 -14.6876 83.7827 21.3664C25.982 57.4203 10.4411 103.787 10.4411 103.787Z" fill="white"/>
<path d="M42.0855 62.701C52.2104 50.6053 65.8933 41.2853 82.2015 41.4432C110.034 41.7892 125.078 66.4245 141.04 85.4256C149.315 95.2797 158.71 104.788 171.001 109.421C189.438 116.364 209.974 112.31 227.937 105.863C235.986 102.975 245.516 98.9129 254.58 100.989C282.134 107.293 279.268 140.917 274.717 162.212C268.572 190.977 258.582 221.563 238.34 243.633C189.874 296.506 102.654 264.093 58.9353 221.901C55.7233 218.794 52.6467 215.56 49.7507 212.122C42.227 203.351 35.859 193.651 30.8022 183.259C16.7206 153.96 14.7799 118.35 27.0411 88.0734C30.723 78.8934 35.7973 70.3355 42.0855 62.701Z" fill="#10B981"/>
<path opacity="0.7" d="M42.0855 62.701C52.2104 50.6053 65.8933 41.2853 82.2015 41.4432C110.034 41.7892 125.078 66.4245 141.04 85.4256C149.315 95.2797 158.71 104.788 171.001 109.421C189.438 116.364 209.974 112.31 227.937 105.863C235.986 102.975 245.516 98.9129 254.58 100.989C282.134 107.293 279.268 140.917 274.717 162.212C268.572 190.977 258.582 221.563 238.34 243.633C189.874 296.506 102.654 264.093 58.9353 221.901C55.7233 218.794 52.6467 215.56 49.7507 212.122C42.227 203.351 35.859 193.651 30.8022 183.259C16.7206 153.96 14.7799 118.35 27.0411 88.0734C30.723 78.8934 35.7973 70.3355 42.0855 62.701Z" fill="white"/>
<path d="M0 311.656H294.796" stroke="#263238" stroke-width="0.752221" stroke-linecap="round" stroke-linejoin="round"/>
<path d="M178.969 159.234V48.5518H185.821" stroke="#263238" stroke-width="0.752221" stroke-linecap="round" stroke-linejoin="round"/>
<path d="M178.969 172.405V169.471" stroke="#263238" stroke-width="0.752221" stroke-linecap="round" stroke-linejoin="round"/>
<path d="M203.446 48.5518H274.162V182.726H178.969" stroke="#263238" stroke-width="0.752221" stroke-linecap="round" stroke-linejoin="round"/>
<path d="M194.78 48.5518H200.994" stroke="#263238" stroke-width="0.752221" stroke-linecap="round" stroke-linejoin="round"/>
<path d="M270.582 52.1246H182.549V179.152H270.582V52.1246Z" stroke="#263238" stroke-width="0.752221" stroke-linecap="round" stroke-linejoin="round"/>
<path d="M266.49 58.9248V111.678H186.642V108.233" stroke="#263238" stroke-width="0.752221" stroke-linecap="round" stroke-linejoin="round"/>
<path d="M186.642 100.169V55.8706H266.49" stroke="#263238" stroke-width="0.752221" stroke-linecap="round" stroke-linejoin="round"/>
<path d="M186.642 105.593V102.245" stroke="#263238" stroke-width="0.752221" stroke-linecap="round" stroke-linejoin="round"/>
<path d="M253.003 115.635H270.582" stroke="#263238" stroke-width="0.752221" stroke-linecap="round" stroke-linejoin="round"/>
<path d="M246.751 115.635H249.241" stroke="#263238" stroke-width="0.752221" stroke-linecap="round" stroke-linejoin="round"/>
<path d="M182.549 115.635H243.788" stroke="#263238" stroke-width="0.752221" stroke-linecap="round" stroke-linejoin="round"/>
<path d="M222.138 111.678V109.858H229.502V110.888H226.569V111.678" stroke="#263238" stroke-width="0.752221" stroke-linecap="round" stroke-linejoin="round"/>
<path d="M182.699 163.145C182.699 163.145 183.925 164.07 184.783 169.667C184.783 169.667 186.287 160.73 188.048 160.595C189.808 160.46 189.477 166.402 189.477 166.402C189.477 166.402 189.778 163.476 191.177 163.612C192.576 163.747 191.177 169.629 191.177 169.629C191.177 169.629 192.862 165.011 194.456 165.116C196.051 165.221 193.403 173.481 193.403 173.481C193.403 173.481 197.495 170.517 199.15 171.976C200.805 173.436 198.233 177.076 198.233 177.076C198.233 177.076 204.1 175.805 205.003 179.25" stroke="#263238" stroke-width="0.752221" stroke-linecap="round" stroke-linejoin="round"/>
<path d="M205.01 175.933C205.01 175.933 207.568 174.255 209.584 175.038C209.584 175.038 208.305 173.089 209.584 171.901C210.863 170.712 212.502 175.038 212.502 175.038C212.502 175.038 212.69 167.779 215.248 168.147C217.806 168.516 215.248 175.038 215.248 175.038C215.248 175.038 219.814 170.991 220.912 172.397C222.01 173.804 220.16 175.933 220.16 175.933C220.986 175.698 221.858 175.682 222.691 175.887C223.525 176.091 224.291 176.509 224.914 177.099C224.914 177.099 227.976 173.977 231.376 173.526C231.376 173.526 229.119 166.959 230.21 165.635C231.3 164.311 233.301 171.367 233.301 171.367C233.301 171.367 234.174 166.778 237.062 166.417C237.062 166.417 234.678 165.123 235.385 163.16C236.092 161.197 239.379 163.626 239.379 163.626C239.379 163.626 238.025 160.174 240.169 159.226C242.313 158.278 243.178 162.114 243.178 162.114C243.178 162.114 243.78 158.098 246.292 158.353C248.805 158.609 247.992 163.198 247.992 163.198C247.992 163.198 250.362 159.527 251.633 159.895C254.168 160.648 253.401 166.455 253.401 166.455C253.401 166.455 256.936 163.995 257.854 165.131C258.772 166.267 254.168 169.501 254.168 169.501C254.168 169.501 257.681 169.885 259.87 171.938" stroke="#263238" stroke-width="0.752221" stroke-linecap="round" stroke-linejoin="round"/>
<path d="M270.581 164.499C270.581 164.499 270.175 160.813 266.489 160.618C262.803 160.422 267.504 168.704 267.504 168.704C267.504 168.704 264.458 166.184 263.367 166.959C262.276 167.734 266.489 172.006 266.489 172.006C266.489 172.006 264.465 170.133 262.336 170.712C260.208 171.292 263.547 177.227 263.547 177.227C260.398 176.596 257.13 176.98 254.212 178.325" stroke="#263238" stroke-width="0.752221" stroke-linecap="round" stroke-linejoin="round"/>
<path d="M144.907 278.724V311.461" stroke="#263238" stroke-width="0.752221" stroke-linecap="round" stroke-linejoin="round"/>
<path d="M144.907 268.012V275.023" stroke="#263238" stroke-width="0.752221" stroke-linecap="round" stroke-linejoin="round"/>
<path d="M7.10059 311.656V250.651H144.908V264.041" stroke="#263238" stroke-width="0.752221" stroke-linecap="round" stroke-linejoin="round"/>
<path d="M27.1776 257.323H15.2173V306.06" stroke="#263238" stroke-width="0.752221" stroke-linecap="round" stroke-linejoin="round"/>
<path d="M136.792 311.461V257.323H34.1211" stroke="#263238" stroke-width="0.752221" stroke-linecap="round" stroke-linejoin="round"/>
<path d="M131.059 244.332H127.26" stroke="#263238" stroke-width="0.752221" stroke-linecap="round" stroke-linejoin="round"/>
<path d="M121.807 244.332H3.67773V250.606H148.33V244.332H133.481" stroke="#263238" stroke-width="0.752221" stroke-linecap="round" stroke-linejoin="round"/>
<path d="M11.8252 204.134C11.8252 204.134 23.1085 205.029 23.62 213.378C23.62 213.378 12.1487 218.659 11.8252 204.134Z" stroke="#263238" stroke-width="0.752221" stroke-linecap="round" stroke-linejoin="round"/>
<path d="M34.2188 206.21C34.2188 206.21 40.5449 197.657 50.7676 202.042C50.7676 202.042 44.5242 212.378 34.2188 206.21Z" stroke="#263238" stroke-width="0.752221" stroke-linecap="round" stroke-linejoin="round"/>
<path d="M49.9034 179.205C49.9034 179.205 51.7238 195.656 36.7471 191.128C36.7471 191.128 41.5011 179.032 49.9034 179.205Z" stroke="#263238" stroke-width="0.752221" stroke-linecap="round" stroke-linejoin="round"/>
<path d="M31.5104 170.043C31.5104 170.043 43.3579 176.437 34.6472 186.125C34.6472 186.125 26.3426 179.205 31.5104 170.043Z" stroke="#263238" stroke-width="0.752221" stroke-linecap="round" stroke-linejoin="round"/>
<path d="M16.9395 184.749C16.9395 184.749 29.8175 183.455 29.8175 195.37C29.8175 195.37 16.9395 195.882 16.9395 184.749Z" stroke="#263238" stroke-width="0.752221" stroke-linecap="round" stroke-linejoin="round"/>
<path d="M26.5899 220.111C26.4018 216.109 26.4018 210.964 28.8466 205.525C34.4807 192.978 36.3688 182.41 33.4426 174.963" stroke="#263238" stroke-width="0.752221" stroke-linecap="round" stroke-linejoin="round"/>
<path d="M21.1675 187.968C21.1675 187.968 28.8853 191.038 31.5105 198.988" stroke="#263238" stroke-width="0.752221" stroke-linecap="round" stroke-linejoin="round"/>
<path d="M45.8475 185.787C45.8475 185.787 41.3869 191.865 33.812 191.21" stroke="#263238" stroke-width="0.752221" stroke-linecap="round" stroke-linejoin="round"/>
<path d="M45.8475 203.765C45.8475 203.765 33.4885 207.323 28.5464 206.157" stroke="#263238" stroke-width="0.752221" stroke-linecap="round" stroke-linejoin="round"/>
<path d="M15.5098 207.895C15.5098 207.895 21.0386 213.958 26.59 213.86" stroke="#263238" stroke-width="0.752221" stroke-linecap="round" stroke-linejoin="round"/>
<path d="M41.282 220.111H14.4352C14.2616 220.111 14.0952 220.18 13.9724 220.302C13.8497 220.425 13.7808 220.592 13.7808 220.765V222.804C13.7808 222.889 13.7977 222.974 13.8307 223.053C13.8637 223.132 13.912 223.204 13.9729 223.264C14.0338 223.324 14.106 223.372 14.1853 223.404C14.2647 223.436 14.3496 223.452 14.4352 223.451H15.1874L17.5795 244.332H38.1001L40.4921 223.451H41.282C41.3672 223.452 41.4518 223.436 41.5307 223.403C41.6097 223.371 41.6814 223.324 41.7416 223.263C41.8019 223.203 41.8495 223.131 41.8817 223.053C41.9138 222.974 41.9299 222.889 41.9289 222.804V220.765C41.9299 220.68 41.9139 220.595 41.8818 220.515C41.8497 220.436 41.8022 220.364 41.7421 220.303C41.6819 220.242 41.6103 220.194 41.5313 220.161C41.4523 220.128 41.3676 220.111 41.282 220.111Z" stroke="#263238" stroke-width="0.752221" stroke-miterlimit="10"/>
<path d="M16.9395 223.451H32.5556" stroke="#263238" stroke-width="0.752221" stroke-linecap="round" stroke-linejoin="round"/>
<path d="M35.4966 223.451H37.8435" stroke="#263238" stroke-width="0.752221" stroke-linecap="round" stroke-linejoin="round"/>
<path d="M206.605 136.885L203.597 153.238L179.059 168.147L182.452 174.376C182.452 174.376 210.818 165.725 211.51 163.702C212.202 161.678 218.739 140.247 218.739 140.247L206.605 136.885Z" fill="#263238"/>
<path d="M217.354 109.233L215.714 129.062L214.849 139.465C210.118 141.767 205.491 138.307 205.206 138.081C206.492 134.305 207.989 112.994 217.354 109.233Z" fill="#999999" stroke="#263238" stroke-width="0.752221" stroke-linecap="round" stroke-linejoin="round"/>
<path d="M215.683 129.062L214.818 139.465C210.087 141.767 205.461 138.307 205.175 138.081C205.378 138.171 207.868 139.224 209.485 138.081C208.919 137.47 208.415 136.805 207.981 136.095C207.883 135.704 209.485 135.599 209.485 135.599C209.485 135.599 208.432 127.166 211.238 123.563C212.336 122.194 214.051 125.052 215.683 129.062Z" fill="#263238"/>
<path d="M234.347 292.858L235.099 295.07C233.959 296.951 232.682 298.747 231.278 300.44C231.278 300.44 230.525 300.2 229.292 301.29C228.532 302.048 228.063 303.05 227.968 304.119C227.968 304.119 222.221 311.009 214.932 311.107C207.643 311.205 209.839 307.534 209.839 307.534L234.347 292.858Z" fill="#10B981" stroke="#263238" stroke-width="0.752221" stroke-linecap="round" stroke-linejoin="round"/>
<path d="M227.494 275.324C227.494 275.324 217.715 271.721 215.804 278.927C215.804 278.927 217.55 286.863 216.504 291.203C215.458 295.543 210.193 303.833 209.869 305.405C209.23 308.489 209.711 308.7 209.711 308.7C209.711 308.7 213.54 310.911 218.685 308.542C223.831 306.172 232.737 295.972 234.129 293.874C235.52 291.775 229.766 283.5 229.766 283.5L227.494 275.324Z" fill="white"/>
<mask id="mask0_454_9670" style="mask-type:luminance" maskUnits="userSpaceOnUse" x="209" y="274" width="26" height="36">
<path d="M227.494 275.324C227.494 275.324 217.715 271.721 215.804 278.927C215.804 278.927 217.55 286.863 216.504 291.203C215.458 295.543 210.193 303.833 209.869 305.405C209.23 308.489 209.711 308.7 209.711 308.7C209.711 308.7 213.54 310.911 218.685 308.542C223.831 306.172 232.737 295.972 234.129 293.874C235.52 291.775 229.766 283.5 229.766 283.5L227.494 275.324Z" fill="white"/>
</mask>
<g mask="url(#mask0_454_9670)">
<path opacity="0.4" d="M227.494 275.324C227.494 275.324 217.715 271.721 215.804 278.927C215.804 278.927 217.55 286.863 216.504 291.203C215.458 295.543 210.193 303.833 209.869 305.405C209.23 308.489 209.711 308.7 209.711 308.7C209.711 308.7 213.54 310.911 218.685 308.542C223.831 306.172 232.737 295.972 234.129 293.874C235.52 291.775 229.766 283.5 229.766 283.5L227.494 275.324Z" fill="#10B981"/>
</g>
<path d="M227.494 275.324C227.494 275.324 217.715 271.721 215.804 278.927C215.804 278.927 217.55 286.863 216.504 291.203C215.458 295.543 210.193 303.833 209.869 305.405C209.23 308.489 209.711 308.7 209.711 308.7C209.711 308.7 213.54 310.911 218.685 308.542C223.831 306.172 232.737 295.972 234.129 293.874C235.52 291.775 229.766 283.5 229.766 283.5L227.494 275.324Z" stroke="#263238" stroke-width="0.752221" stroke-linecap="round" stroke-linejoin="round"/>
<path d="M222.492 285.516C223.343 290.371 222.478 295.371 220.047 299.658" stroke="#263238" stroke-width="0.752221" stroke-linecap="round" stroke-linejoin="round"/>
<path d="M220.045 301.554C219.681 302.47 219.117 303.292 218.393 303.961C217.669 304.631 216.805 305.129 215.863 305.42C213.892 305.948 211.816 305.948 209.845 305.42L212.192 300.666C214.683 301.659 217.395 301.965 220.045 301.554Z" fill="#10B981" stroke="#263238" stroke-width="0.752221" stroke-linecap="round" stroke-linejoin="round"/>
<path d="M221.431 298.673C221.431 298.673 216.315 298.981 213.645 297.92" stroke="#263238" stroke-width="0.752221" stroke-linecap="round" stroke-linejoin="round"/>
<path d="M222.378 295.852C222.378 295.852 217.594 296.604 214.923 295.1" stroke="#263238" stroke-width="0.752221" stroke-linecap="round" stroke-linejoin="round"/>
<path d="M223.191 292.715C223.191 292.715 219.001 293.324 216.263 292.031" stroke="#263238" stroke-width="0.752221" stroke-linecap="round" stroke-linejoin="round"/>
<path d="M223.657 289.165C223.657 289.165 218.994 290.624 216.79 289.165" stroke="#263238" stroke-width="0.752221" stroke-linecap="round" stroke-linejoin="round"/>
<path d="M224.356 280.394L225.169 285.516C225.169 285.516 219 289.578 214.923 284.501V279.153C214.923 279.153 216.458 282.748 224.356 280.394Z" fill="#10B981" stroke="#263238" stroke-width="0.752221" stroke-linecap="round" stroke-linejoin="round"/>
<path d="M219.002 165.402C212.751 185.208 193.351 216.974 195.314 225.105C196.39 229.544 202.791 254.69 207.801 265.725C209.704 269.945 213.819 272.766 213.819 272.766L216.79 279.138C224.034 282.289 226.629 275.88 226.629 275.88L225.17 268.659C229.051 261.603 227.426 261.603 222.379 225.03C221.785 220.72 231.782 207.398 231.782 207.398L236.912 240.917L237.747 268.373L240.41 276.858C240.41 276.858 241.072 284.824 241.012 285.306H252.919L254.213 276.55C254.213 276.55 259.742 271.337 259.742 265.319C259.742 259.301 258.553 228.648 259.742 219.72C260.93 210.791 256.959 169.163 256.959 169.163L219.002 165.402Z" fill="#263238"/>
<path d="M138.051 147.754L154.6 149.243C154.975 149.277 155.321 149.459 155.562 149.748C155.804 150.037 155.92 150.41 155.887 150.785L154.824 162.595L135.447 160.851L136.509 149.041C136.543 148.666 136.725 148.32 137.014 148.078C137.303 147.837 137.676 147.72 138.051 147.754Z" fill="#10B981"/>
<mask id="mask1_454_9670" style="mask-type:luminance" maskUnits="userSpaceOnUse" x="135" y="147" width="21" height="16">
<path d="M138.049 147.754L154.598 149.243C154.973 149.277 155.319 149.458 155.56 149.747C155.802 150.037 155.918 150.41 155.885 150.785L154.822 162.595L135.445 160.851L136.507 149.041C136.541 148.666 136.723 148.319 137.012 148.078C137.301 147.837 137.674 147.72 138.049 147.754Z" fill="white"/>
</mask>
<g mask="url(#mask1_454_9670)">
<path opacity="0.3" d="M138.049 147.754L154.598 149.243C154.973 149.277 155.319 149.458 155.56 149.747C155.802 150.037 155.918 150.41 155.885 150.785L154.822 162.595L135.445 160.851L136.507 149.041C136.541 148.666 136.723 148.319 137.012 148.078C137.301 147.837 137.674 147.72 138.049 147.754Z" fill="black" fill-opacity="0.7"/>
<path opacity="0.3" d="M154.859 149.038L150.115 148.631L149.3 158.119L154.044 158.526L154.859 149.038Z" fill="white" fill-opacity="0.7"/>
</g>
<path d="M138.051 147.754L154.6 149.243C154.975 149.277 155.321 149.459 155.562 149.748C155.804 150.037 155.92 150.41 155.887 150.785L154.824 162.595L135.447 160.851L136.509 149.041C136.543 148.666 136.725 148.32 137.014 148.078C137.303 147.837 137.676 147.72 138.051 147.754Z" stroke="#263238" stroke-width="0.755262" stroke-linecap="round" stroke-linejoin="round"/>
<path d="M166.616 148.799L183.104 150.216C183.477 150.248 183.823 150.427 184.065 150.714C184.306 151.001 184.424 151.372 184.392 151.746L183.381 163.512L164.075 161.854L165.086 150.087C165.118 149.714 165.297 149.368 165.584 149.127C165.871 148.885 166.242 148.767 166.616 148.799Z" fill="#10B981"/>
<mask id="mask2_454_9670" style="mask-type:luminance" maskUnits="userSpaceOnUse" x="164" y="148" width="21" height="16">
<path d="M166.616 148.799L183.104 150.216C183.478 150.248 183.823 150.427 184.065 150.714C184.307 151.001 184.424 151.372 184.392 151.746L183.381 163.512L164.075 161.854L165.086 150.087C165.118 149.714 165.297 149.368 165.584 149.126C165.871 148.885 166.242 148.767 166.616 148.799Z" fill="white"/>
</mask>
<g mask="url(#mask2_454_9670)">
<path opacity="0.3" d="M166.616 148.799L183.104 150.216C183.478 150.248 183.823 150.427 184.065 150.714C184.307 151.001 184.424 151.372 184.392 151.746L183.381 163.512L164.075 161.854L165.086 150.087C165.118 149.714 165.297 149.368 165.584 149.126C165.871 148.885 166.242 148.767 166.616 148.799Z" fill="black" fill-opacity="0.7"/>
<path opacity="0.3" d="M183.014 151.461L180.151 151.215L179.336 160.704L182.199 160.95L183.014 151.461Z" fill="white" fill-opacity="0.7"/>
</g>
<path d="M166.616 148.799L183.104 150.216C183.477 150.248 183.823 150.427 184.065 150.714C184.306 151.001 184.424 151.372 184.392 151.746L183.381 163.512L164.075 161.854L165.086 150.087C165.118 149.714 165.297 149.368 165.584 149.127C165.871 148.885 166.242 148.767 166.616 148.799Z" stroke="#263238" stroke-width="0.752221" stroke-linecap="round" stroke-linejoin="round"/>
<path d="M160.627 148.281L177.115 149.697C177.489 149.729 177.834 149.909 178.076 150.195C178.317 150.482 178.435 150.854 178.403 151.227L177.392 162.994L158.086 161.335L159.097 149.569C159.129 149.195 159.308 148.849 159.595 148.608C159.882 148.366 160.253 148.249 160.627 148.281Z" fill="#10B981" stroke="#263238" stroke-width="0.752221" stroke-linecap="round" stroke-linejoin="round"/>
<path d="M189.1 150.732L205.589 152.148C205.962 152.18 206.308 152.36 206.549 152.647C206.791 152.934 206.909 153.305 206.876 153.678L205.866 165.437L186.56 163.779L187.571 152.012C187.605 151.64 187.785 151.296 188.072 151.057C188.358 150.817 188.728 150.7 189.1 150.732Z" fill="#10B981" stroke="#263238" stroke-width="0.752221" stroke-linecap="round" stroke-linejoin="round"/>
<path opacity="0.3" d="M177.345 150.971L172.601 150.563L171.786 160.051L176.53 160.459L177.345 150.971Z" fill="white" fill-opacity="0.7"/>
<path opacity="0.3" d="M205.505 153.387L200.761 152.98L199.946 162.468L204.69 162.876L205.505 153.387Z" fill="white" fill-opacity="0.7"/>
<path d="M214.487 163.438L209.831 217.546L122.656 210.023L127.313 155.924C127.35 155.476 127.476 155.04 127.683 154.641C127.889 154.242 128.173 153.888 128.517 153.598C128.86 153.309 129.258 153.091 129.686 152.955C130.115 152.82 130.566 152.77 131.013 152.809L211.366 159.715C211.816 159.752 212.255 159.878 212.656 160.085C213.058 160.293 213.414 160.578 213.704 160.925C213.995 161.271 214.213 161.671 214.348 162.103C214.482 162.534 214.53 162.988 214.487 163.438Z" fill="#10B981"/>
<mask id="mask3_454_9670" style="mask-type:luminance" maskUnits="userSpaceOnUse" x="122" y="152" width="93" height="66">
<path d="M214.487 163.438L209.831 217.546L122.656 210.023L127.313 155.924C127.35 155.476 127.476 155.04 127.683 154.641C127.889 154.242 128.173 153.888 128.517 153.598C128.86 153.309 129.258 153.091 129.686 152.955C130.115 152.82 130.566 152.77 131.013 152.809L211.366 159.715C211.816 159.752 212.255 159.878 212.656 160.085C213.058 160.293 213.414 160.578 213.704 160.925C213.995 161.271 214.213 161.671 214.348 162.103C214.482 162.534 214.53 162.988 214.487 163.438Z" fill="white"/>
</mask>
<g mask="url(#mask3_454_9670)">
<path opacity="0.3" d="M214.487 163.438L209.831 217.546L122.656 210.023L127.313 155.924C127.35 155.476 127.476 155.04 127.683 154.641C127.889 154.242 128.173 153.888 128.517 153.598C128.86 153.309 129.258 153.091 129.686 152.955C130.115 152.82 130.566 152.77 131.013 152.809L211.366 159.715C211.816 159.752 212.255 159.878 212.656 160.085C213.058 160.293 213.414 160.578 213.704 160.925C213.995 161.271 214.213 161.671 214.348 162.103C214.482 162.534 214.53 162.988 214.487 163.438Z" fill="black" fill-opacity="0.7"/>
</g>
<path d="M214.487 163.438L209.831 217.546L122.656 210.023L127.313 155.924C127.35 155.476 127.476 155.04 127.683 154.641C127.889 154.242 128.173 153.888 128.517 153.598C128.86 153.309 129.258 153.091 129.686 152.955C130.115 152.82 130.566 152.77 131.013 152.809L211.366 159.715C211.816 159.752 212.255 159.878 212.656 160.085C213.058 160.293 213.414 160.578 213.704 160.925C213.995 161.271 214.213 161.671 214.348 162.103C214.482 162.534 214.53 162.988 214.487 163.438Z" stroke="#263238" stroke-width="0.752221" stroke-linecap="round" stroke-linejoin="round"/>
<path d="M214.487 163.438L209.831 217.546L145.14 211.979L149.804 157.879C149.842 157.432 149.968 156.996 150.174 156.597C150.381 156.198 150.664 155.844 151.008 155.554C151.352 155.265 151.749 155.046 152.178 154.911C152.606 154.776 153.057 154.726 153.505 154.765L211.373 159.737C211.821 159.775 212.257 159.901 212.656 160.108C213.055 160.314 213.409 160.598 213.698 160.942C213.988 161.285 214.206 161.683 214.342 162.111C214.477 162.54 214.527 162.991 214.487 163.438Z" fill="#10B981" stroke="#263238" stroke-width="0.752221" stroke-linecap="round" stroke-linejoin="round"/>
<path opacity="0.3" d="M209.944 164.988L154.648 160.234C154.279 160.201 153.938 160.026 153.698 159.744C153.457 159.463 153.337 159.099 153.362 158.729C153.394 158.361 153.57 158.02 153.851 157.779C154.133 157.539 154.497 157.418 154.866 157.443L210.162 162.197C210.53 162.23 210.872 162.406 211.112 162.687C211.353 162.968 211.473 163.332 211.448 163.702C211.416 164.07 211.24 164.411 210.958 164.652C210.677 164.892 210.313 165.013 209.944 164.988Z" fill="white" fill-opacity="0.7"/>
<path d="M253.31 285.614C253.31 285.614 249.142 282.643 240.522 283.237C240.522 283.237 239.89 293.58 238.717 296.589C237.543 299.598 231.36 304.811 230.209 305.706C229.058 306.601 229.058 309.723 229.058 309.723H255.25C254.914 305.246 254.218 300.803 253.167 296.439L253.31 285.614Z" fill="white"/>
<mask id="mask4_454_9670" style="mask-type:luminance" maskUnits="userSpaceOnUse" x="229" y="283" width="27" height="27">
<path d="M253.31 285.614C253.31 285.614 249.142 282.643 240.522 283.237C240.522 283.237 239.89 293.58 238.717 296.589C237.543 299.598 231.36 304.811 230.209 305.706C229.058 306.601 229.058 309.723 229.058 309.723H255.25C254.914 305.246 254.218 300.803 253.167 296.439L253.31 285.614Z" fill="white"/>
</mask>
<g mask="url(#mask4_454_9670)">
<path opacity="0.4" d="M253.31 285.614C253.31 285.614 249.142 282.643 240.522 283.237C240.522 283.237 239.89 293.58 238.717 296.589C237.543 299.598 231.36 304.811 230.209 305.706C229.058 306.601 229.058 309.723 229.058 309.723H255.25C254.914 305.246 254.218 300.803 253.167 296.439L253.31 285.614Z" fill="#10B981"/>
</g>
<path d="M253.31 285.614C253.31 285.614 249.142 282.643 240.522 283.237C240.522 283.237 239.89 293.58 238.717 296.589C237.543 299.598 231.36 304.811 230.209 305.706C229.058 306.601 229.058 309.723 229.058 309.723H255.25C254.914 305.246 254.218 300.803 253.167 296.439L253.31 285.614Z" stroke="#263238" stroke-width="0.752221" stroke-linecap="round" stroke-linejoin="round"/>
<path d="M247.901 286.953C247.901 286.953 247.284 296.476 245.803 298.989C245.011 300.369 244.034 301.635 242.899 302.75" stroke="#263238" stroke-width="0.752221" stroke-linecap="round" stroke-linejoin="round"/>
<path d="M242.176 304.066C242.176 304.066 240.859 305.706 239.4 305.924C237.941 306.142 230.23 305.706 230.23 305.706L233.375 302.983C233.375 302.983 239.769 301.907 242.176 304.066Z" fill="#10B981" stroke="#263238" stroke-width="0.752221" stroke-linecap="round" stroke-linejoin="round"/>
<path d="M244.899 301.832C244.899 301.832 239.318 298.628 235.338 301.08" stroke="#263238" stroke-width="0.752221" stroke-linecap="round" stroke-linejoin="round"/>
<path d="M246.246 299.658C246.246 299.658 242.349 296.612 237.753 298.282" stroke="#263238" stroke-width="0.752221" stroke-linecap="round" stroke-linejoin="round"/>
<path d="M247.901 296.341C247.901 296.341 243.704 293.076 239.281 295.152" stroke="#263238" stroke-width="0.752221" stroke-linecap="round" stroke-linejoin="round"/>
<path d="M248.474 292.196C248.474 292.196 243.381 289.458 239.68 291.534" stroke="#263238" stroke-width="0.752221" stroke-linecap="round" stroke-linejoin="round"/>
<path d="M255.244 309.723V311.656H252.235C252.235 311.656 249.655 310.152 247.202 311.656H233.076C231.583 311.651 230.109 311.32 228.758 310.686L229.051 309.723H255.244Z" fill="#10B981" stroke="#263238" stroke-width="0.752221" stroke-linecap="round" stroke-linejoin="round"/>
<path d="M251.49 285.005L250.82 289.225C250.82 289.225 242.959 286.675 238.619 288.33V283.14C238.619 283.14 246.69 280.311 251.49 285.005Z" fill="#10B981" stroke="#263238" stroke-width="0.752221" stroke-linecap="round" stroke-linejoin="round"/>
<path d="M259.991 179.867C259.991 179.867 243.284 183.139 226.893 177.828C223.161 176.639 219.591 174.992 216.264 172.924C216.264 172.924 216.309 171.871 216.339 170.148C216.475 163.423 216.437 146.506 212.894 142.316C210.638 139.676 208.87 123.352 213.225 115.101L226.547 104.389C244.991 107.992 248.888 112.874 251.934 123.405C252.499 125.331 253.025 127.444 253.612 129.776C254.251 132.319 254.853 135.426 255.425 138.803C258.193 155.623 259.991 179.867 259.991 179.867Z" fill="#999999"/>
<mask id="mask5_454_9670" style="mask-type:luminance" maskUnits="userSpaceOnUse" x="210" y="104" width="50" height="77">
<path d="M259.991 179.867C259.991 179.867 243.284 183.139 226.893 177.828C223.161 176.639 219.591 174.992 216.264 172.924C216.264 172.924 216.309 171.871 216.339 170.148C216.475 163.423 216.437 146.506 212.894 142.316C210.638 139.676 208.87 123.352 213.225 115.101L226.547 104.389C244.991 107.992 248.888 112.874 251.934 123.405C252.499 125.331 253.025 127.444 253.612 129.776C254.251 132.319 254.853 135.426 255.425 138.803C258.193 155.623 259.991 179.867 259.991 179.867Z" fill="white"/>
</mask>
<g mask="url(#mask5_454_9670)">
<path opacity="0.2" d="M255.424 138.803L247.902 172.405C247.902 172.405 237.032 175.414 226.9 177.828C223.165 176.64 219.592 174.992 216.263 172.924C216.263 172.924 216.308 171.871 216.338 170.148C225.44 165.492 238.725 158.647 238.619 158.323C238.446 157.819 238.619 140.27 238.619 140.27C238.619 140.27 250.655 137.479 251.934 123.383C252.498 125.308 253.024 127.422 253.611 129.754C254.25 132.304 254.852 135.388 255.424 138.803Z" fill="black"/>
</g>
<path d="M259.991 179.867C259.991 179.867 243.284 183.139 226.893 177.828C223.161 176.639 219.591 174.992 216.264 172.924C216.264 172.924 216.309 171.871 216.339 170.148C216.475 163.423 216.437 146.506 212.894 142.316C210.638 139.676 208.87 123.352 213.225 115.101L226.547 104.389C244.991 107.992 248.888 112.874 251.934 123.405C252.499 125.331 253.025 127.444 253.612 129.776C254.251 132.319 254.853 135.426 255.425 138.803C258.193 155.623 259.991 179.867 259.991 179.867Z" stroke="#263238" stroke-width="0.752221" stroke-linecap="round" stroke-linejoin="round"/>
<path d="M227.133 90.3299C227.133 90.3299 221.251 98.7547 229.074 105.329C229.074 105.329 219.581 115.981 216.459 114.514C215.143 113.897 216.459 110.053 216.459 110.053L210.953 99.868L227.133 90.3299Z" fill="white" stroke="#263238" stroke-width="0.752221" stroke-linecap="round" stroke-linejoin="round"/>
<path d="M225.214 94.6929C227.05 86.6667 226.17 74.7139 214.924 75.7746C207.041 76.5268 201.422 80.8897 203.641 91.4659C204.566 95.9266 205.326 102.245 209.418 107.947C210.554 109.527 222.439 103.938 221.717 99.4169" fill="white"/>
<path d="M225.214 94.6929C227.05 86.6667 226.17 74.7139 214.924 75.7746C207.041 76.5268 201.422 80.8897 203.641 91.4659C204.566 95.9266 205.326 102.245 209.418 107.947C210.554 109.527 222.439 103.938 221.717 99.4169" stroke="#263238" stroke-width="0.752221" stroke-linecap="round" stroke-linejoin="round"/>
<path d="M209.125 89.6756C209.919 89.3686 210.773 89.2515 211.619 89.3338C212.465 89.4161 213.281 89.6955 214 90.1495" stroke="#263238" stroke-width="0.752221" stroke-linecap="round" stroke-linejoin="round"/>
<path d="M203.469 90.661C203.613 90.353 203.864 90.1074 204.175 89.9693C204.486 89.8311 204.836 89.8096 205.161 89.9088" stroke="#263238" stroke-width="0.752221" stroke-linecap="round" stroke-linejoin="round"/>
<path d="M206.281 92.3309C206.281 92.3309 203.964 96.5509 203.957 97.1526C203.949 97.7544 206.807 97.9575 206.807 97.9575" fill="white"/>
<path d="M206.281 92.3309C206.281 92.3309 203.964 96.5509 203.957 97.1526C203.949 97.7544 206.807 97.9575 206.807 97.9575" stroke="#263238" stroke-width="0.752221" stroke-linecap="round" stroke-linejoin="round"/>
<path d="M211.261 93.1883C211.261 93.6472 211.058 94.0233 210.772 94.0383C210.486 94.0534 210.246 93.6772 210.231 93.2184C210.216 92.7595 210.434 92.3834 210.72 92.3759C211.005 92.3684 211.246 92.7445 211.261 93.1883Z" fill="#263238"/>
<path d="M207.989 101.027C207.989 101.027 212.435 100.192 213.255 98.627" stroke="#263238" stroke-width="0.752221" stroke-linecap="round" stroke-linejoin="round"/>
<path d="M203.438 84.1618L206.898 83.1538C206.898 83.1538 211.75 80.8972 212.78 81.2131C213.811 81.529 215.902 84.741 215.834 86.5764C215.834 86.5764 219.099 89.4499 219.513 93.6172L220.505 93.1659C220.505 93.1659 220.453 89.4048 222.589 89.5026C224.725 89.6004 225.688 92.1579 225.545 92.9628C225.402 93.7677 223.063 97.1075 223.063 97.1075C223.063 97.1075 228.419 96.3102 228.592 85.8242C228.765 75.3383 217.271 73.6307 211.682 74.0595C208.852 74.3306 206.009 74.4361 203.167 74.3754L203.483 77.3843L201.226 77.9786L202.926 80.0622L201.061 80.9122L203.438 84.1618Z" fill="#263238"/>
<path d="M222.815 198.499C222.815 198.499 236.431 202.103 240.117 212.243" stroke="white" stroke-width="0.752221" stroke-linecap="round" stroke-linejoin="round"/>
<path d="M229.05 203.953C229.05 203.953 221.693 216.207 210.433 222.57" stroke="white" stroke-width="0.752221" stroke-linecap="round" stroke-linejoin="round"/>
<path d="M218.709 272.864C218.709 272.864 222.891 271.924 224.035 270.299" stroke="white" stroke-width="0.752221" stroke-linecap="round" stroke-linejoin="round"/>
<path d="M241.996 274.421C241.996 274.421 246.088 272.3 250.165 274.421" stroke="white" stroke-width="0.752221" stroke-linecap="round" stroke-linejoin="round"/>
<path d="M255.242 217.373C255.242 217.373 248.374 235.163 244.899 236.81" stroke="white" stroke-width="0.752221" stroke-linecap="round" stroke-linejoin="round"/>
<path d="M225.169 189.51C225.357 191.444 233.443 200.403 240.116 203.953" stroke="white" stroke-width="0.752221" stroke-linecap="round" stroke-linejoin="round"/>
<path d="M232.067 181.951C233.04 184.349 233.243 186.992 232.646 189.51C231.997 191.685 231.997 194.001 232.646 196.175" stroke="white" stroke-width="0.752221" stroke-linecap="round" stroke-linejoin="round"/>
<path d="M217.354 144.956C217.354 144.956 230.014 161.34 243.622 166.718" stroke="#263238" stroke-width="0.752221" stroke-linecap="round" stroke-linejoin="round"/>
<path d="M230.458 118.471C230.458 118.471 230.413 129.611 238.447 134.636" stroke="#263238" stroke-width="0.752221" stroke-linecap="round" stroke-linejoin="round"/>
<path d="M234.979 134.726C233.279 136.396 235.129 157.353 235.129 157.353C235.129 157.353 225.253 161.219 222.161 163.709C219.069 166.199 204.424 171.916 204.424 171.916C204.424 171.916 202.167 179.604 204.98 179.867C207.794 180.13 236.927 170.201 243.592 166.718C243.592 166.718 247.932 141.143 247.902 134.636" fill="white"/>
<path d="M234.979 134.726C233.279 136.396 235.129 157.353 235.129 157.353C235.129 157.353 225.253 161.219 222.161 163.709C219.069 166.199 204.424 171.916 204.424 171.916C204.424 171.916 202.167 179.604 204.98 179.867C207.794 180.13 236.927 170.201 243.592 166.718C243.592 166.718 247.932 141.143 247.902 134.636" stroke="#263238" stroke-width="0.752221" stroke-linecap="round" stroke-linejoin="round"/>
<path d="M205.581 171.457C204.227 171.201 201.82 170.314 200.556 170.607C199.292 170.9 196.983 172.292 194.606 172.864C192.229 173.435 193.214 174.368 194.606 174.646C195.625 174.816 196.664 174.816 197.683 174.646L195.749 176.534C194.642 177.134 193.499 177.664 192.327 178.122C191.627 178.122 189.152 178.791 189.318 179.844C189.483 180.897 190.905 180.777 192.492 180.837C192.492 180.837 189.965 181.341 190.236 182.778C190.401 183.763 193.245 182.876 194.696 182.876C194.696 182.876 193.508 184.17 194.395 184.568C195.283 184.967 197.254 183.974 197.254 183.974C197.254 183.974 197.179 185.042 198.066 185.147C198.954 185.253 201.188 184.395 202.708 183.478C204.204 182.513 205.636 181.453 206.995 180.303C207.57 179.777 208.229 179.35 208.943 179.039" fill="white"/>
<path d="M205.581 171.457C204.227 171.201 201.82 170.314 200.556 170.607C199.292 170.9 196.983 172.292 194.606 172.864C192.229 173.435 193.214 174.368 194.606 174.646C195.625 174.816 196.664 174.816 197.683 174.646L195.749 176.534C194.642 177.134 193.499 177.664 192.327 178.122C191.627 178.122 189.152 178.791 189.318 179.844C189.483 180.897 190.905 180.777 192.492 180.837C192.492 180.837 189.965 181.341 190.236 182.778C190.401 183.763 193.245 182.876 194.696 182.876C194.696 182.876 193.508 184.17 194.395 184.568C195.283 184.967 197.254 183.974 197.254 183.974C197.254 183.974 197.179 185.042 198.066 185.147C198.954 185.253 201.188 184.395 202.708 183.478C204.204 182.513 205.636 181.453 206.995 180.303C207.57 179.777 208.229 179.35 208.943 179.039" stroke="#263238" stroke-width="0.752221" stroke-linecap="round" stroke-linejoin="round"/>
<path d="M192.531 180.867C193.23 180.83 193.925 180.749 194.614 180.627C195.209 180.476 195.803 180.281 195.803 180.281" stroke="#263238" stroke-width="0.752221" stroke-linecap="round" stroke-linejoin="round"/>
<path d="M194.705 182.906C195.614 182.778 196.489 182.477 197.285 182.018" stroke="#263238" stroke-width="0.752221" stroke-linecap="round" stroke-linejoin="round"/>
<path d="M197.262 184.004C197.935 183.919 198.578 183.68 199.143 183.305" stroke="#263238" stroke-width="0.752221" stroke-linecap="round" stroke-linejoin="round"/>
<path d="M195.991 177.106C195.991 177.106 195.449 178.347 195.991 179.04C196.532 179.732 197.187 179.792 197.285 180.544C197.382 181.296 198.676 181.296 199.143 181.785C199.609 182.274 199.962 183.214 201.452 183.29" stroke="#263238" stroke-width="0.752221" stroke-linecap="round" stroke-linejoin="round"/>
<path d="M234.346 112.994C229.223 124.586 234.346 140.669 234.346 140.669C234.346 140.669 246.743 144.881 247.886 143.068C249.029 141.255 251.121 132.364 251.474 128.257" fill="#999999"/>
<path d="M234.346 112.994C229.223 124.586 234.346 140.669 234.346 140.669C234.346 140.669 246.743 144.881 247.886 143.068C249.029 141.255 251.121 132.364 251.474 128.257" stroke="#263238" stroke-width="0.752221" stroke-linecap="round" stroke-linejoin="round"/>
<path d="M247.902 129.543C247.902 129.543 242.636 136.787 238.446 136.885" stroke="#263238" stroke-width="0.752221" stroke-linecap="round" stroke-linejoin="round"/>
<path d="M59.6962 311.656C59.6962 311.656 58.4099 306.744 59.9144 304.924C62.6073 301.659 59.5834 298.906 62.2914 297.785L63.4272 299.102C63.6454 297.77 63.0135 293.701 68.0384 293.174C74.1163 292.535 74.2291 296.935 74.5601 298.44L74.4548 296.401C77.05 296.401 75.7035 298.989 79.6301 303.216C80.6595 304.358 81.4431 305.698 81.9323 307.156C82.4214 308.613 82.6056 310.155 82.4735 311.686L59.6962 311.656Z" fill="#263238"/>
<path d="M106.025 311.656C103.581 310.565 105.822 301.343 105.822 301.343C105.822 301.343 102.535 299.139 105.822 296.83C107.094 297.907 108.635 298.617 110.28 298.882C111.926 299.147 113.612 298.958 115.157 298.334C115.157 298.334 115.797 292.166 119.671 292.956C119.671 292.956 120.664 296.867 122.928 299.101C129.058 305.119 136.979 305.871 138.303 308.76C138.702 309.633 138.22 311.626 138.22 311.626L106.025 311.656Z" fill="#263238"/>
<path d="M95.5769 164.582L98.5857 170.961C98.5857 170.961 111.027 196.671 118.647 226.113C118.828 226.813 122.77 240.759 119.61 275.489L121.416 281.582L119.445 291.647C119.445 291.647 122.409 295.927 122.303 297.326C122.303 297.326 114.992 298.688 112.524 299.997C110.629 301.02 104.934 306.639 104.934 306.639C103.317 306.308 103.174 299.778 103.174 299.778C103.174 299.778 99.7968 241.805 98.8264 239.307C97.8561 236.81 91.9286 226.038 82.6763 201.388C82.6763 201.388 82.4656 235.817 79.9983 244.528C77.7943 252.276 80.4046 273.962 80.4046 273.962L78.9001 298.101C78.9001 298.101 84.1055 303.509 79.8855 304.961C79.8855 304.961 77.0647 299.538 69.031 298.304C64.9464 297.672 59.8614 304.924 59.8614 304.924C58.0711 304.352 60.6136 295.242 60.6136 295.242C54.9193 252.276 59.1092 260.054 57.9808 239.052C57.2286 225.572 53.4299 167.906 57.9131 163.22L95.5769 164.582Z" fill="#BFBFBF"/>
<mask id="mask6_454_9670" style="mask-type:luminance" maskUnits="userSpaceOnUse" x="55" y="163" width="68" height="144">
<path d="M95.5769 164.582L98.5857 170.961C98.5857 170.961 111.027 196.671 118.647 226.113C118.828 226.813 122.77 240.759 119.61 275.489L121.416 281.582L119.445 291.647C119.445 291.647 122.409 295.927 122.303 297.326C122.303 297.326 114.992 298.688 112.524 299.997C110.629 301.02 104.934 306.639 104.934 306.639C103.317 306.308 103.174 299.778 103.174 299.778C103.174 299.778 99.7968 241.805 98.8264 239.307C97.8561 236.81 91.9286 226.038 82.6763 201.388C82.6763 201.388 82.4656 235.817 79.9983 244.528C77.7943 252.276 80.4046 273.962 80.4046 273.962L78.9001 298.101C78.9001 298.101 84.1055 303.509 79.8855 304.961C79.8855 304.961 77.0647 299.538 69.031 298.304C64.9464 297.672 59.8614 304.924 59.8614 304.924C58.0711 304.352 60.6136 295.242 60.6136 295.242C54.9193 252.276 59.1092 260.054 57.9808 239.052C57.2286 225.572 53.4299 167.906 57.9131 163.22L95.5769 164.582Z" fill="white"/>
</mask>
<g mask="url(#mask6_454_9670)">
<path opacity="0.2" d="M55.8223 184.44C75.9367 186.02 93.3507 179.438 100.91 176C99.4737 172.781 98.5936 170.96 98.5936 170.96L95.5848 164.589L57.9737 163.22C56.379 164.913 55.8148 173.51 55.8223 184.44Z" fill="black"/>
<path opacity="0.2" d="M82.8804 201.831C92.0349 226.166 97.9248 236.817 98.8726 239.299C99.4217 240.744 100.768 260.429 101.821 276.948C103.025 261.904 104.266 246.054 104.371 242.948C104.597 236.749 100.121 228.257 99.4518 226.06C98.7823 223.864 100.294 221.487 100.294 221.487L92.2455 211.332C92.5163 207.887 88.2512 192.85 88.2512 192.85C85.7162 195.249 83.4596 200.357 82.8804 201.831Z" fill="black"/>
</g>
<path d="M95.5769 164.582L98.5857 170.961C98.5857 170.961 111.027 196.671 118.647 226.113C118.828 226.813 122.77 240.759 119.61 275.489L121.416 281.582L119.445 291.647C119.445 291.647 122.409 295.927 122.303 297.326C122.303 297.326 114.992 298.688 112.524 299.997C110.629 301.02 104.934 306.639 104.934 306.639C103.317 306.308 103.174 299.778 103.174 299.778C103.174 299.778 99.7968 241.805 98.8264 239.307C97.8561 236.81 91.9286 226.038 82.6763 201.388C82.6763 201.388 82.4656 235.817 79.9983 244.528C77.7943 252.276 80.4046 273.962 80.4046 273.962L78.9001 298.101C78.9001 298.101 84.1055 303.509 79.8855 304.961C79.8855 304.961 77.0647 299.538 69.031 298.304C64.9464 297.672 59.8614 304.924 59.8614 304.924C58.0711 304.352 60.6136 295.242 60.6136 295.242C54.9193 252.276 59.1092 260.054 57.9808 239.052C57.2286 225.572 53.4299 167.906 57.9131 163.22L95.5769 164.582Z" stroke="#263238" stroke-width="0.752221" stroke-linecap="round" stroke-linejoin="round"/>
<path d="M82.707 201.388C82.707 201.388 87.3031 192.519 91.2222 190.044" stroke="#263238" stroke-width="0.752221" stroke-linecap="round" stroke-linejoin="round"/>
<path d="M92.953 187.171C92.953 187.171 78.9918 191.421 74.1475 192.241" stroke="#263238" stroke-width="0.752221" stroke-linecap="round" stroke-linejoin="round"/>
<path d="M85.8055 172.924C86.4073 184.546 90.5069 186.524 86.5577 189.059C86.5577 189.059 86.6705 194.498 84.6997 197.943" stroke="#263238" stroke-width="0.752221" stroke-linecap="round" stroke-linejoin="round"/>
<path d="M61.3431 168.478C61.3431 168.478 62.9904 186.344 57.4917 189.706" stroke="#263238" stroke-width="0.752221" stroke-linecap="round" stroke-linejoin="round"/>
<path d="M57.492 174.24C57.492 174.24 57.0783 186.133 57.492 195.716C57.492 195.716 58.8685 236.223 60.2451 241.308C61.6217 246.393 58.1239 254.096 58.4247 276.076" stroke="#263238" stroke-width="0.752221" stroke-linecap="round" stroke-linejoin="round"/>
<path d="M70.671 293.279C69.3693 292.996 68.0095 293.177 66.8271 293.791" stroke="#263238" stroke-width="0.752221" stroke-linecap="round" stroke-linejoin="round"/>
<path d="M78.9457 298.101C77.2206 296.422 75.2209 295.051 73.0332 294.046" stroke="#263238" stroke-width="0.752221" stroke-linecap="round" stroke-linejoin="round"/>
<path d="M76.6894 204.194C73.6053 207.654 68.7158 214.176 63.7061 214.725" stroke="#263238" stroke-width="0.752221" stroke-linecap="round" stroke-linejoin="round"/>
<path d="M81.405 198.567C80.4572 199.763 79.4793 200.937 78.4863 202.102" stroke="#263238" stroke-width="0.752221" stroke-linecap="round" stroke-linejoin="round"/>
<path d="M77.0118 239.052C77.0118 239.052 70.0011 248.597 66.1572 249.146" stroke="#263238" stroke-width="0.752221" stroke-linecap="round" stroke-linejoin="round"/>
<path d="M85.2568 199.665C85.2568 199.665 97.7437 234.441 102.084 237.871C102.084 237.871 102.573 263.446 102.716 272.375C102.859 281.304 104.912 293.174 104.912 293.174" stroke="#263238" stroke-width="0.752221" stroke-linecap="round" stroke-linejoin="round"/>
<path d="M118.241 292.918C118.241 292.918 113.434 294.581 111.095 295.641C109.658 296.342 108.533 297.551 107.936 299.034" stroke="#263238" stroke-width="0.752221" stroke-linecap="round" stroke-linejoin="round"/>
<path d="M106.079 225.331C99.3768 221.126 90.5382 215.868 86.9727 208.459" stroke="#263238" stroke-width="0.752221" stroke-linecap="round" stroke-linejoin="round"/>
<path d="M111.923 228.799C110.651 228.099 109.403 227.37 108.162 226.617" stroke="#263238" stroke-width="0.752221" stroke-linecap="round" stroke-linejoin="round"/>
<path d="M90.8003 177.625C87.1971 177.573 83.2781 177.099 80.1714 175.06" stroke="#263238" stroke-width="0.752221" stroke-linecap="round" stroke-linejoin="round"/>
<path d="M96.5251 177.287C95.4946 177.43 94.4565 177.52 93.4185 177.572" stroke="#263238" stroke-width="0.752221" stroke-linecap="round" stroke-linejoin="round"/>
<path d="M103.212 97.4309C100.458 93.2636 86.4296 92.203 77.4255 92.203C68.4214 92.203 57.4916 90.6985 52.557 100.854C48.7959 108.609 57.4615 149.62 57.4615 149.62L55.3403 167.327C71.6484 172.442 99.5859 171.314 99.5859 171.314L95.8248 155.307C95.8248 155.307 105.965 101.591 103.212 97.4309Z" fill="#263238"/>
<path d="M72.0774 81.9052C72.0774 81.9052 73.2885 91.5562 69.6177 93.6399C69.6177 93.6399 71.4531 100.718 77.8921 101.162C84.3311 101.606 87.1745 94.693 87.1745 94.693L72.0774 81.9052Z" fill="white" stroke="#263238" stroke-width="0.752221" stroke-linecap="round" stroke-linejoin="round"/>
<path d="M106.2 57.1253L122.679 55.6053C123.053 55.5708 123.425 55.6862 123.713 55.9259C124.002 56.1656 124.183 56.5101 124.218 56.8836L125.302 68.6435L106.037 70.4206L104.952 58.6606C104.918 58.2923 105.03 57.9253 105.263 57.6382C105.496 57.3512 105.833 57.1671 106.2 57.1253Z" fill="#10B981"/>
<mask id="mask7_454_9670" style="mask-type:luminance" maskUnits="userSpaceOnUse" x="104" y="55" width="22" height="16">
<path d="M106.2 57.1253L122.679 55.6053C123.053 55.5708 123.425 55.6861 123.713 55.9259C124.002 56.1656 124.183 56.5101 124.218 56.8836L125.302 68.6435L106.037 70.4205L104.952 58.6606C104.918 58.2922 105.03 57.9252 105.263 57.6382C105.496 57.3512 105.833 57.1671 106.2 57.1253Z" fill="white"/>
</mask>
<g mask="url(#mask7_454_9670)">
<path opacity="0.3" d="M106.2 57.1253L122.679 55.6053C123.053 55.5708 123.425 55.6861 123.713 55.9259C124.002 56.1656 124.183 56.5101 124.218 56.8836L125.302 68.6435L106.037 70.4205L104.952 58.6606C104.918 58.2922 105.03 57.9252 105.263 57.6382C105.496 57.3512 105.833 57.1671 106.2 57.1253Z" fill="black" fill-opacity="0.7"/>
<path opacity="0.3" d="M123.161 56.795L118.419 57.2323L119.294 66.7152L124.036 66.2779L123.161 56.795Z" fill="white" fill-opacity="0.7"/>
</g>
<path d="M106.2 57.1253L122.679 55.6053C123.053 55.5708 123.425 55.6862 123.713 55.9259C124.002 56.1656 124.183 56.5101 124.218 56.8836L125.302 68.6435L106.037 70.4206L104.952 58.6606C104.918 58.2923 105.03 57.9253 105.263 57.6382C105.496 57.3512 105.833 57.1671 106.2 57.1253Z" stroke="#263238" stroke-width="0.752221" stroke-linecap="round" stroke-linejoin="round"/>
<path d="M134.693 54.4818L151.172 52.9618C151.546 52.9273 151.918 53.0427 152.206 53.2824C152.495 53.5221 152.676 53.8666 152.71 54.2401L153.795 66L134.5 67.7798L133.415 56.0199C133.381 55.6464 133.496 55.2745 133.736 54.9861C133.975 54.6976 134.32 54.5162 134.693 54.4818Z" fill="#10B981"/>
<mask id="mask8_454_9670" style="mask-type:luminance" maskUnits="userSpaceOnUse" x="133" y="52" width="21" height="16">
<path d="M134.693 54.4818L151.172 52.9618C151.546 52.9274 151.918 53.0427 152.206 53.2824C152.495 53.5222 152.676 53.8667 152.71 54.2401L153.795 66.0001L134.5 67.7799L133.415 56.0199C133.381 55.6464 133.496 55.2746 133.736 54.9861C133.975 54.6977 134.32 54.5163 134.693 54.4818Z" fill="white"/>
</mask>
<g mask="url(#mask8_454_9670)">
<path opacity="0.3" d="M134.693 54.4818L151.172 52.9618C151.546 52.9274 151.918 53.0427 152.206 53.2824C152.495 53.5222 152.676 53.8667 152.71 54.2401L153.795 66.0001L134.5 67.7799L133.415 56.0199C133.381 55.6464 133.496 55.2746 133.736 54.9861C133.975 54.6977 134.32 54.5163 134.693 54.4818Z" fill="black" fill-opacity="0.7"/>
<path opacity="0.3" d="M151.312 54.2058L148.45 54.4697L149.325 63.9526L152.186 63.6887L151.312 54.2058Z" fill="white" fill-opacity="0.7"/>
</g>
<path d="M134.693 54.4818L151.172 52.9618C151.546 52.9273 151.918 53.0427 152.206 53.2824C152.494 53.5221 152.676 53.8666 152.71 54.2401L153.795 66L134.5 67.7798L133.415 56.0199C133.381 55.6464 133.496 55.2745 133.736 54.9861C133.975 54.6976 134.32 54.5162 134.693 54.4818Z" stroke="#263238" stroke-width="0.752221" stroke-linecap="round" stroke-linejoin="round"/>
<path d="M128.706 55.0294L145.185 53.5094C145.558 53.4749 145.93 53.5903 146.218 53.83C146.507 54.0697 146.688 54.4142 146.723 54.7877L147.808 66.5477L128.482 68.3302L127.397 56.5702C127.38 56.3828 127.4 56.1937 127.457 56.0142C127.514 55.8347 127.606 55.6683 127.728 55.5247C127.85 55.3812 127.999 55.2635 128.167 55.1784C128.335 55.0934 128.518 55.0427 128.706 55.0294Z" fill="#10B981" stroke="#263238" stroke-width="0.752221" stroke-linecap="round" stroke-linejoin="round"/>
<path d="M157.169 52.4035L173.648 50.8835C174.022 50.849 174.394 50.9643 174.682 51.2041C174.971 51.4438 175.152 51.7883 175.186 52.1618L176.271 63.9217L156.976 65.7015L155.891 53.9416C155.857 53.5681 155.972 53.1962 156.212 52.9078C156.451 52.6193 156.796 52.4379 157.169 52.4035Z" fill="#10B981" stroke="#263238" stroke-width="0.752221" stroke-linecap="round" stroke-linejoin="round"/>
<path opacity="0.3" d="M145.637 54.7242L140.896 55.1615L141.771 64.6444L146.512 64.207L145.637 54.7242Z" fill="white" fill-opacity="0.7"/>
<path opacity="0.3" d="M173.789 52.1197L169.048 52.5571L169.923 62.0399L174.664 61.6026L173.789 52.1197Z" fill="white" fill-opacity="0.7"/>
<path d="M184.414 60.4067L189.409 114.476L102.264 122.525L97.2997 68.4404C97.2161 67.5367 97.4948 66.6368 98.0745 65.9385C98.6543 65.2402 99.4877 64.8008 100.391 64.7169L180.699 57.3076C181.146 57.2662 181.598 57.3136 182.027 57.4471C182.456 57.5806 182.855 57.7976 183.2 58.0855C183.545 58.3734 183.83 58.7267 184.039 59.125C184.247 59.5234 184.375 59.9589 184.414 60.4067Z" fill="#10B981"/>
<mask id="mask9_454_9670" style="mask-type:luminance" maskUnits="userSpaceOnUse" x="97" y="57" width="93" height="66">
<path d="M184.414 60.4067L189.409 114.476L102.264 122.525L97.2997 68.4404C97.2161 67.5367 97.4948 66.6368 98.0745 65.9385C98.6543 65.2402 99.4877 64.8008 100.391 64.7169L180.699 57.3076C181.146 57.2662 181.598 57.3136 182.027 57.4471C182.456 57.5806 182.855 57.7976 183.2 58.0855C183.545 58.3734 183.83 58.7267 184.039 59.125C184.247 59.5234 184.375 59.9589 184.414 60.4067Z" fill="white"/>
</mask>
<g mask="url(#mask9_454_9670)">
<path opacity="0.3" d="M184.414 60.4067L189.409 114.476L102.264 122.525L97.2997 68.4404C97.2161 67.5367 97.4948 66.6368 98.0745 65.9385C98.6543 65.2402 99.4877 64.8008 100.391 64.7169L180.699 57.3076C181.146 57.2662 181.598 57.3136 182.027 57.4471C182.456 57.5806 182.855 57.7976 183.2 58.0855C183.545 58.3734 183.83 58.7267 184.039 59.125C184.247 59.5234 184.375 59.9589 184.414 60.4067Z" fill="black" fill-opacity="0.7"/>
</g>
<path d="M184.414 60.4067L189.409 114.476L102.264 122.525L97.2997 68.4404C97.2161 67.5367 97.4948 66.6368 98.0745 65.9385C98.6543 65.2402 99.4877 64.8008 100.391 64.7169L180.699 57.3076C181.146 57.2662 181.598 57.3136 182.027 57.4471C182.456 57.5806 182.855 57.7976 183.2 58.0855C183.545 58.3734 183.83 58.7267 184.039 59.125C184.247 59.5234 184.375 59.9589 184.414 60.4067Z" stroke="#263238" stroke-width="0.752221" stroke-linecap="round" stroke-linejoin="round"/>
<path d="M184.414 60.4066L189.409 114.476L124.718 120.441L119.73 66.3717C119.647 65.468 119.925 64.568 120.505 63.8698C121.085 63.1715 121.918 62.7321 122.822 62.6482L180.66 57.3074C181.111 57.2608 181.566 57.3043 182 57.4354C182.434 57.5664 182.837 57.7825 183.186 58.0709C183.535 58.3593 183.824 58.7144 184.035 59.1154C184.246 59.5164 184.374 59.9553 184.414 60.4066Z" fill="#10B981" stroke="#263238" stroke-width="0.752221" stroke-linecap="round" stroke-linejoin="round"/>
<path opacity="0.3" d="M180.224 62.731L124.958 67.831C124.59 67.8562 124.227 67.7366 123.946 67.4977C123.665 67.2588 123.488 66.9195 123.454 66.5523C123.426 66.185 123.544 65.8217 123.782 65.5404C124.02 65.2591 124.358 65.0823 124.725 65.0478L179.99 59.9478C180.359 59.9226 180.722 60.0422 181.003 60.2811C181.284 60.52 181.46 60.8593 181.495 61.2265C181.518 61.5929 181.399 61.9541 181.162 62.2346C180.925 62.515 180.589 62.6929 180.224 62.731Z" fill="white" fill-opacity="0.7"/>
<path d="M83.1128 62.7686C83.1128 62.7686 70.3627 60.211 68.9335 68.4178C67.5043 76.6245 72.1756 80.1148 72.1756 80.1148L83.1128 62.7686Z" fill="#263238"/>
<path d="M72.1754 84.6206C70.7184 80.541 70.4909 76.1234 71.5209 71.9156C72.7696 66.6501 79.0432 59.4062 88.5588 65.9881C93.4557 69.3806 93.7566 76.7449 92.2296 83.4848C91.8685 85.0946 92.1393 86.6667 91.6053 88.1486C89.7247 93.3389 86.287 97.3332 84.4065 97.4235C81.2697 97.5814 74.9962 93.7827 75.252 90.4729" fill="white"/>
<path d="M72.1754 84.6206C70.7184 80.541 70.4909 76.1234 71.5209 71.9156C72.7696 66.6501 79.0432 59.4062 88.5588 65.9881C93.4557 69.3806 93.7566 76.7449 92.2296 83.4848C91.8685 85.0946 92.1393 86.6667 91.6053 88.1486C89.7247 93.3389 86.287 97.3332 84.4065 97.4235C81.2697 97.5814 74.9962 93.7827 75.252 90.4729" stroke="#263238" stroke-width="0.752221" stroke-linecap="round" stroke-linejoin="round"/>
<path d="M84.8799 82.2361C84.8799 82.2361 82.3449 80.4007 79.9077 81.9051" stroke="#263238" stroke-width="0.752221" stroke-linecap="round" stroke-linejoin="round"/>
<path d="M89.6641 81.9051C89.6641 81.9051 91.5822 80.1449 92.8309 80.4006" stroke="#263238" stroke-width="0.752221" stroke-linecap="round" stroke-linejoin="round"/>
<path d="M81.2993 85.0494C81.2993 85.5157 81.5325 85.8994 81.8259 85.8994C82.1192 85.8994 82.3599 85.5157 82.3599 85.0494C82.3599 84.583 82.1192 84.2069 81.8259 84.2069C81.5325 84.2069 81.2993 84.583 81.2993 85.0494Z" fill="#263238"/>
<path d="M89.6649 85.4255C89.9599 85.4255 90.199 85.0483 90.199 84.583C90.199 84.1177 89.9599 83.7405 89.6649 83.7405C89.37 83.7405 89.1309 84.1177 89.1309 84.583C89.1309 85.0483 89.37 85.4255 89.6649 85.4255Z" fill="#263238"/>
<path d="M88.5885 83.6802C87.6557 84.8988 88.9646 89.54 88.5885 89.871C88.2124 90.2019 85.8203 89.2617 85.8203 89.2617C85.8203 89.2617 85.2637 88.5546 86.4296 88.1785" stroke="#263238" stroke-width="0.752221" stroke-linecap="round" stroke-linejoin="round"/>
<path d="M86.4684 92.203C86.4684 92.203 83.2565 92.203 82.3989 91.0296" stroke="#263238" stroke-width="0.752221" stroke-linecap="round" stroke-linejoin="round"/>
<path d="M78.7799 74.8192L78.5317 78.7007C78.5317 78.7007 75.7785 80.1224 75.0865 81.5666C74.6747 82.5125 74.524 83.5516 74.6502 84.5755C74.6502 84.5755 72.9803 81.6569 72.0776 81.8976C71.7542 81.9803 71.7542 83.2065 71.7542 83.2065C71.7542 83.2065 67.9931 74.8117 71.3931 70.3736C74.7931 65.9355 78.7799 74.8192 78.7799 74.8192Z" fill="#757575" stroke="#263238" stroke-width="0.752221" stroke-linecap="round" stroke-linejoin="round"/>
<path d="M73.4775 83.7406C73.4775 83.7406 72.7253 80.9198 70.1903 80.1751C67.6553 79.4304 69.393 86.1928 71.5519 87.0729C73.7107 87.953 74.2523 88.5774 74.3802 87.7725" fill="white"/>
<path d="M73.4775 83.7406C73.4775 83.7406 72.7253 80.9198 70.1903 80.1751C67.6554 79.4304 69.393 86.1928 71.5519 87.0729C73.7107 87.953 74.2523 88.5774 74.3802 87.7725" stroke="#263238" stroke-width="0.752221" stroke-linecap="round" stroke-linejoin="round"/>
<path d="M70.0244 74.3301C69.8138 74.0443 68.8811 66.8079 73.6577 63.5583C78.4343 60.3087 86.5056 60.6547 91.6433 65.153C96.781 69.6513 95.3216 77.4518 91.6433 80.1147V76.8576C91.6433 76.8576 89.9508 80.1222 84.8733 80.393L86.4229 78.0009C86.4229 78.0009 83.9255 79.5054 79.525 79.3775C79.525 79.3775 81.5936 77.7301 81.2927 76.2633C81.3002 76.2633 74.3121 80.1974 70.0244 74.3301Z" fill="#263238"/>
<path d="M70.9186 100.417C67.3982 100.839 62.3884 105.435 65.6531 113.596C67.7367 118.771 84.8573 115.695 84.8573 115.695C91.206 113.077 100.481 103.659 107.288 99.289C107.288 99.289 105.852 90.2623 104.197 91.5411C96.5016 97.431 90.1755 97.8372 79.4413 102.997C79.4638 102.967 73.1301 100.154 70.9186 100.417Z" fill="white" stroke="#263238" stroke-width="0.752221" stroke-linecap="round" stroke-linejoin="round"/>
<path d="M78.7805 110.437C78.6752 113.807 80.0593 114.401 82.3912 115.198L78.7805 110.437Z" fill="white"/>
<path d="M78.7805 110.437C78.6752 113.807 80.0593 114.401 82.3912 115.198" stroke="#263238" stroke-width="0.752221" stroke-linecap="round" stroke-linejoin="round"/>
<path d="M103.687 92.203C103.845 91.7141 106.696 86.7043 107.501 85.433C108.306 84.1618 111.901 83.0109 113.293 82.2436C114.684 81.4763 114.797 80.3104 115.55 81.1454C116.302 81.9803 115.55 83.8834 111.382 85.9069C112.863 85.9888 114.347 85.9888 115.828 85.9069C116.941 85.7414 117.934 84.7334 118.431 85.433C118.927 86.1326 119.025 87.3888 116.542 88.156C115.362 88.584 114.125 88.8374 112.872 88.9083C114.086 89.1677 115.28 89.5147 116.445 89.9463C116.843 90.2397 117.438 90.9242 118.032 91.0295C118.626 91.1348 119.273 91.7818 118.182 92.534C117.796 92.7478 117.362 92.8637 116.92 92.8715C116.479 92.8794 116.041 92.779 115.647 92.5791C115.647 92.5791 118.528 93.9707 117.633 94.8358C116.738 95.7008 113.872 95.5278 113.872 95.5278C113.872 95.5278 109.622 100.711 106.026 99.6274" fill="white"/>
<path d="M103.687 92.203C103.845 91.7141 106.696 86.7043 107.501 85.433C108.306 84.1618 111.901 83.0109 113.293 82.2436C114.684 81.4763 114.797 80.3104 115.55 81.1454C116.302 81.9803 115.55 83.8834 111.382 85.9069C112.863 85.9888 114.347 85.9888 115.828 85.9069C116.941 85.7414 117.934 84.7334 118.431 85.433C118.927 86.1326 119.025 87.3888 116.542 88.156C115.362 88.584 114.125 88.8374 112.872 88.9083C114.086 89.1677 115.28 89.5147 116.445 89.9463C116.843 90.2397 117.438 90.9242 118.032 91.0295C118.626 91.1348 119.273 91.7818 118.182 92.534C117.796 92.7478 117.362 92.8637 116.92 92.8715C116.479 92.8794 116.041 92.779 115.647 92.5791C115.647 92.5791 118.528 93.9707 117.633 94.8358C116.738 95.7008 113.872 95.5278 113.872 95.5278C113.872 95.5278 109.622 100.711 106.026 99.6274" stroke="#263238" stroke-width="0.752221" stroke-linecap="round" stroke-linejoin="round"/>
<path d="M108.779 85.4255C109.023 85.482 109.245 85.6046 109.423 85.7798C109.601 85.9551 109.727 86.1761 109.787 86.4184C110.036 87.306 110.765 87.3587 111.209 88.3516C111.653 89.3446 111.525 90.8791 111.961 91.4057C112.397 91.9322 111.961 94.1513 111.961 94.1513" stroke="#263238" stroke-width="0.752221" stroke-linecap="round" stroke-linejoin="round"/>
<path d="M71.6564 99.7779C69.8135 97.4309 65.6763 98.4916 65.6763 98.4916" stroke="white" stroke-width="0.752221" stroke-linecap="round" stroke-linejoin="round"/>
<path d="M63.4199 94.1663C63.4199 94.1663 67.6775 94.7906 68.9337 98.3336" stroke="white" stroke-width="0.752221" stroke-linecap="round" stroke-linejoin="round"/>
<path d="M70.9196 116.597C70.9196 116.597 66.7674 119.809 60.4487 115.198" stroke="white" stroke-width="0.752221" stroke-linecap="round" stroke-linejoin="round"/>
<path d="M65.6768 117.568C65.6768 117.568 63.5706 120.479 58.4404 120.441" stroke="white" stroke-width="0.752221" stroke-linecap="round" stroke-linejoin="round"/>
<path d="M92.0641 154.194C92.0641 154.194 81.2021 162.852 70.167 161.716" stroke="white" stroke-width="0.752221" stroke-linecap="round" stroke-linejoin="round"/>
<path d="M62.7051 135.17C62.7051 135.17 79.5624 147.536 92.0417 148.326" stroke="white" stroke-width="0.752221" stroke-linecap="round" stroke-linejoin="round"/>
<path d="M63.1479 226.715C66.0478 225.107 69.4571 224.681 72.6635 225.527C78.1623 226.911 92.447 247.341 94.4328 249.334C96.4187 251.328 100.135 252.343 103.557 255.947C108.973 261.596 116.849 266.59 117.646 266.59C118.444 266.59 119.083 266.094 120.076 265.898C121.069 265.703 128.757 265.003 128.757 265.003C128.757 265.003 131.337 265.575 128.757 266.681C126.177 267.786 126.372 268.772 126.372 268.772C126.372 268.772 125.853 269.607 126.891 270.404C127.929 271.202 128.539 270.765 130.02 272.864C131.502 274.963 127.929 273.774 127.929 273.774C127.929 273.774 128.719 276.031 127.132 275.805C125.545 275.579 126.936 278.009 124.356 277.678C121.776 277.347 116.255 273.864 114.871 270.216C114.871 270.216 92.3492 259.452 88.9792 256.676C85.6093 253.9 71.4224 239.014 70.452 238.818" fill="#263238"/>
<path d="M122.07 246.875H138.619C138.994 246.875 139.354 247.024 139.619 247.289C139.884 247.554 140.033 247.914 140.033 248.289V260.099H120.656V248.289C120.656 247.914 120.805 247.554 121.07 247.289C121.335 247.024 121.695 246.875 122.07 246.875Z" fill="#10B981"/>
<mask id="mask10_454_9670" style="mask-type:luminance" maskUnits="userSpaceOnUse" x="120" y="246" width="21" height="15">
<path d="M122.07 246.875H138.619C138.994 246.875 139.354 247.024 139.619 247.289C139.884 247.554 140.033 247.914 140.033 248.289V260.099H120.656V248.289C120.656 247.914 120.805 247.554 121.07 247.289C121.335 247.024 121.695 246.875 122.07 246.875Z" fill="white"/>
</mask>
<g mask="url(#mask10_454_9670)">
<path opacity="0.3" d="M122.07 246.875H138.619C138.994 246.875 139.354 247.024 139.619 247.289C139.884 247.554 140.033 247.914 140.033 248.289V260.099H120.656V248.289C120.656 247.914 120.805 247.554 121.07 247.289C121.335 247.024 121.695 246.875 122.07 246.875Z" fill="black" fill-opacity="0.7"/>
<path opacity="0.3" d="M138.956 248.123H134.195V257.646H138.956V248.123Z" fill="white" fill-opacity="0.7"/>
</g>
<path d="M122.07 246.875H138.619C138.994 246.875 139.354 247.024 139.619 247.289C139.884 247.554 140.033 247.914 140.033 248.289V260.099H120.656V248.289C120.656 247.914 120.805 247.554 121.07 247.289C121.335 247.024 121.695 246.875 122.07 246.875Z" stroke="#263238" stroke-width="0.752221" stroke-linecap="round" stroke-linejoin="round"/>
<path d="M150.654 246.875H167.203C167.578 246.875 167.938 247.024 168.203 247.289C168.468 247.554 168.617 247.914 168.617 248.289V260.099H149.24V248.289C149.24 248.103 149.277 247.919 149.348 247.748C149.419 247.576 149.523 247.42 149.654 247.289C149.786 247.158 149.942 247.054 150.113 246.982C150.285 246.911 150.469 246.875 150.654 246.875Z" fill="#10B981"/>
<mask id="mask11_454_9670" style="mask-type:luminance" maskUnits="userSpaceOnUse" x="149" y="246" width="20" height="15">
<path d="M150.654 246.875H167.203C167.578 246.875 167.938 247.024 168.203 247.289C168.468 247.554 168.617 247.914 168.617 248.289V260.099H149.24V248.289C149.24 248.103 149.277 247.919 149.348 247.748C149.419 247.576 149.523 247.42 149.654 247.289C149.786 247.158 149.942 247.054 150.113 246.982C150.285 246.911 150.469 246.875 150.654 246.875Z" fill="white"/>
</mask>
<g mask="url(#mask11_454_9670)">
<path opacity="0.3" d="M150.654 246.875H167.203C167.578 246.875 167.938 247.024 168.203 247.289C168.468 247.554 168.617 247.914 168.617 248.289V260.099H149.24V248.289C149.24 248.103 149.277 247.919 149.348 247.748C149.419 247.576 149.523 247.42 149.654 247.289C149.786 247.158 149.942 247.054 150.113 246.982C150.285 246.911 150.469 246.875 150.654 246.875Z" fill="black" fill-opacity="0.7"/>
<path opacity="0.3" d="M167.226 248.123H164.353V257.646H167.226V248.123Z" fill="white" fill-opacity="0.7"/>
</g>
<path d="M150.654 246.875H167.203C167.578 246.875 167.938 247.024 168.203 247.289C168.468 247.554 168.617 247.914 168.617 248.289V260.099H149.24V248.289C149.24 248.103 149.277 247.919 149.348 247.748C149.419 247.576 149.523 247.42 149.654 247.289C149.786 247.158 149.942 247.054 150.113 246.982C150.285 246.911 150.469 246.875 150.654 246.875Z" stroke="#263238" stroke-width="0.752221" stroke-linecap="round" stroke-linejoin="round"/>
<path d="M144.637 246.875H161.186C161.561 246.875 161.92 247.024 162.186 247.289C162.451 247.554 162.6 247.914 162.6 248.289V260.099H143.223V248.289C143.223 248.103 143.259 247.919 143.33 247.748C143.401 247.576 143.506 247.42 143.637 247.289C143.768 247.158 143.924 247.054 144.096 246.982C144.267 246.911 144.451 246.875 144.637 246.875Z" fill="#10B981" stroke="#263238" stroke-width="0.752221" stroke-linecap="round" stroke-linejoin="round"/>
<path d="M173.22 246.875H189.769C190.144 246.875 190.504 247.024 190.769 247.289C191.034 247.554 191.183 247.914 191.183 248.289V260.099H171.806V248.289C171.806 247.914 171.955 247.554 172.22 247.289C172.486 247.024 172.845 246.875 173.22 246.875Z" fill="#10B981" stroke="#263238" stroke-width="0.752221" stroke-linecap="round" stroke-linejoin="round"/>
<path opacity="0.3" d="M161.524 248.123H156.763V257.646H161.524V248.123Z" fill="white" fill-opacity="0.7"/>
<path opacity="0.3" d="M189.792 248.123H185.031V257.646H189.792V248.123Z" fill="white" fill-opacity="0.7"/>
<path d="M199.616 257.346V311.648H112.125V257.346C112.125 256.438 112.486 255.567 113.128 254.925C113.77 254.284 114.64 253.923 115.548 253.923H196.194C197.101 253.923 197.972 254.284 198.614 254.925C199.256 255.567 199.616 256.438 199.616 257.346Z" fill="#10B981"/>
<mask id="mask12_454_9670" style="mask-type:luminance" maskUnits="userSpaceOnUse" x="112" y="253" width="88" height="59">
<path d="M199.616 257.346V311.648H112.125V257.346C112.125 256.438 112.486 255.567 113.128 254.925C113.77 254.284 114.64 253.923 115.548 253.923H196.194C197.101 253.923 197.972 254.284 198.614 254.925C199.256 255.567 199.616 256.438 199.616 257.346Z" fill="white"/>
</mask>
<g mask="url(#mask12_454_9670)">
<path opacity="0.3" d="M199.616 257.346V311.648H112.125V257.346C112.125 256.438 112.486 255.567 113.128 254.925C113.77 254.284 114.64 253.923 115.548 253.923H196.194C197.101 253.923 197.972 254.284 198.614 254.925C199.256 255.567 199.616 256.438 199.616 257.346Z" fill="black" fill-opacity="0.7"/>
</g>
<path d="M199.616 257.346V311.648H112.125V257.346C112.125 256.438 112.486 255.567 113.128 254.925C113.77 254.284 114.64 253.923 115.548 253.923H196.194C197.101 253.923 197.972 254.284 198.614 254.925C199.256 255.567 199.616 256.438 199.616 257.346Z" stroke="#263238" stroke-width="0.752221" stroke-linecap="round" stroke-linejoin="round"/>
<path d="M199.616 257.346V311.648H134.691V257.346C134.691 256.438 135.052 255.567 135.694 254.925C136.336 254.284 137.206 253.923 138.114 253.923H196.193C197.101 253.923 197.971 254.284 198.613 254.925C199.255 255.567 199.616 256.438 199.616 257.346Z" fill="#10B981" stroke="#263238" stroke-width="0.752221" stroke-linecap="round" stroke-linejoin="round"/>
<path opacity="0.3" d="M195.223 259.279H139.725C139.349 259.279 138.99 259.13 138.725 258.865C138.459 258.6 138.31 258.24 138.31 257.865C138.306 257.677 138.34 257.489 138.409 257.314C138.479 257.139 138.582 256.98 138.714 256.845C138.846 256.711 139.003 256.604 139.176 256.531C139.35 256.458 139.536 256.42 139.725 256.421H195.223C195.598 256.421 195.958 256.569 196.223 256.835C196.489 257.1 196.638 257.46 196.638 257.835C196.642 258.023 196.608 258.21 196.539 258.385C196.469 258.56 196.366 258.72 196.234 258.854C196.102 258.989 195.945 259.096 195.772 259.168C195.598 259.241 195.412 259.279 195.223 259.279Z" fill="white" fill-opacity="0.7"/>
<path d="M92.486 311.649C87.9727 311.649 81.6315 308.745 74.3274 305.676C66.7525 302.487 58.1246 299.117 49.3687 298.613C46.1041 298.425 48.0824 311.649 48.0824 311.649H40.9363C40.9363 311.649 33.8805 302.231 33.0605 293.798C33.0605 293.798 38.8226 290.24 40.2066 290.037C40.6839 289.987 41.1636 289.965 41.6434 289.97C43.193 289.97 45.2616 290.037 45.2616 290.037C44.9306 289.842 39.6575 286.667 36.7464 283.44C34.3468 280.777 33.2486 276.573 33.1659 274.06C33.2589 272.397 33.4422 270.739 33.715 269.095L71.2659 269.72C71.2659 269.72 71.6721 270.006 72.3942 270.54C76.7495 273.714 92.6666 285.539 100.625 294.453C103.198 297.334 104.935 299.906 105.191 301.787C106.387 310.46 99.2936 311.649 92.486 311.649Z" fill="#757575" stroke="#263238" stroke-width="0.752221" stroke-linecap="round" stroke-linejoin="round"/>
<path d="M100.633 294.438L82.3687 298.612C79.2373 300.404 76.4977 302.806 74.3124 305.676C66.7375 302.486 58.1095 299.116 49.3537 298.612C46.089 298.424 48.0674 311.649 48.0674 311.649H40.9213C40.9213 311.649 33.8805 302.231 33.0605 293.798C33.0605 293.798 39.7102 303.276 41.335 308.09C41.335 308.09 43.9151 299.184 48.105 295.611C46.2126 293.48 44.0623 291.592 41.7036 289.992C43.2531 289.992 45.3218 290.06 45.3218 290.06C44.9908 289.864 39.7177 286.69 36.8066 283.463C34.407 280.8 33.4367 276.587 33.226 274.083C33.1207 272.849 33.2712 269.118 33.2712 269.118C33.2712 269.118 61.2764 273.112 72.4544 270.562C76.7571 273.721 92.6741 285.524 100.633 294.438Z" fill="#263238"/>
<path d="M71.2725 293.798C71.2725 293.798 86.1514 301.253 90.1231 304.171C94.0948 307.09 95.2758 306.3 95.2758 306.3" stroke="#263238" stroke-width="0.752221" stroke-linecap="round" stroke-linejoin="round"/>
<path d="M36.7529 293.008C36.7529 293.008 40.326 298.462 40.514 300.094" stroke="#263238" stroke-width="0.752221" stroke-linecap="round" stroke-linejoin="round"/>
<path d="M96.5991 188.329C96.5991 188.329 104.52 184.884 103.768 199.537C103.016 214.191 105.701 214.943 105.701 214.943C105.701 214.943 85.7671 223.127 80.7047 216.131C75.6422 209.136 80.4489 189.992 96.5991 188.329Z" fill="#263238"/>
<path d="M95.494 214.943C95.494 214.943 87.2948 218.809 86.5501 222.382C85.8054 225.955 75.5376 220.577 75.5376 220.577L82.9771 209.88L95.494 214.943Z" fill="white" stroke="#263238" stroke-width="0.752221" stroke-linecap="round" stroke-linejoin="round"/>
<path d="M41.7316 254.164C22.9261 278.115 38.1886 289.669 59.5066 287.758L55.234 294.528L65.9606 296.386C65.9606 296.386 74.1824 291.015 85.3905 285.276C104.467 275.497 112.177 276.084 110.214 266.297C108.251 256.511 84.8715 250.162 61.4323 260.475C61.4097 260.467 48.6821 245.348 41.7316 254.164Z" fill="#757575" stroke="#263238" stroke-width="0.752221" stroke-linecap="round" stroke-linejoin="round"/>
<path d="M48.2923 306.3C48.2923 306.3 53.1893 292.76 55.2353 292.008C57.2814 291.256 65.0142 294.189 65.962 296.371C65.962 296.371 68.5722 292.369 69.6404 294.069C70.7085 295.769 69.1665 298.582 69.6404 300.734C70.1143 302.885 75.4024 305.894 77.5161 306.293C79.6299 306.691 80.8334 307.88 80.8334 309.068V311.649H48.2923C47.9313 310.803 47.7451 309.894 47.7451 308.974C47.7451 308.055 47.9313 307.145 48.2923 306.3Z" fill="white" stroke="#263238" stroke-width="0.752221" stroke-linecap="round" stroke-linejoin="round"/>
<path d="M69.6416 298.613C69.6416 298.613 65.3314 300.741 63.7592 300.117C62.1871 299.493 64.5641 303.69 65.1584 304.089C65.7526 304.488 69.6717 302.697 69.6717 302.697" stroke="#263238" stroke-width="0.752221" stroke-linecap="round" stroke-linejoin="round"/>
<path d="M52.3613 296.378C52.3613 296.378 58.2136 296.491 59.9964 298.635" stroke="#263238" stroke-width="0.752221" stroke-linecap="round" stroke-linejoin="round"/>
<path d="M48.292 306.3C48.292 306.3 57.6195 308.482 58.4094 308.482C59.6922 308.227 60.9505 307.862 62.1705 307.391C62.1705 307.391 64.728 308.677 66.428 309.475C68.1281 310.272 79.2158 309.475 79.2158 309.475" stroke="#263238" stroke-width="0.752221" stroke-linecap="round" stroke-linejoin="round"/>
<path d="M59.5073 287.773C68.4136 286.81 85.7147 275.835 91.7325 272.022C97.7502 268.208 99.2547 269.208 99.2547 269.208" stroke="#263238" stroke-width="0.752221" stroke-linecap="round" stroke-linejoin="round"/>
<path d="M33.2173 269.08L34.639 258.286L38.0691 255.698C43.628 242.211 68.8124 217.019 75.6802 217.102C85.9931 217.222 87.8135 228.047 89.0847 239.894C90.356 251.742 74.2886 249.959 74.2886 249.959V252.93L65.1491 257.662L70.6854 257.489C70.6854 257.489 54.7609 272.969 33.2173 269.08Z" fill="#10B981" stroke="#263238" stroke-width="0.752221" stroke-linecap="round" stroke-linejoin="round"/>
<path d="M77.8535 196.243C80.0123 189.473 89.889 187.667 93.4395 188.773C96.354 189.911 98.7423 192.09 100.142 194.889C101.044 196.837 99.1564 200.282 100.503 202.291C102.429 205.172 102.263 211.25 101.571 215.078C101.195 217.109 92.7474 218.313 85.842 213.574C78.4251 208.444 75.7623 202.757 77.8535 196.243Z" fill="white" stroke="#263238" stroke-width="0.752221" stroke-linecap="round" stroke-linejoin="round"/>
<path d="M87.8356 186.75C87.8356 186.75 96.5313 185.335 96.5915 187.57C96.9751 202.411 88.0763 205.525 88.0763 205.525C88.0763 205.525 84.4431 202.629 83.6307 204.615C82.8183 206.601 84.9095 212.092 87.4821 212.205C86.8892 213.126 86.5653 214.194 86.5467 215.289C86.5281 216.384 86.8156 217.463 87.3768 218.403C87.3768 218.403 72.6483 220.863 71.4297 214.04C71.999 211.669 72.4062 209.261 72.6483 206.834C73.6036 197.273 71.3695 190.842 87.8356 186.75Z" fill="#263238"/>
<path d="M99.4507 201.877C101.264 203.509 102.565 203.509 102.542 204.096C102.475 205.924 100.286 206.834 100.286 206.834" fill="white"/>
<path d="M99.4507 201.877C101.264 203.509 102.565 203.509 102.542 204.096C102.475 205.924 100.286 206.834 100.286 206.834" stroke="#263238" stroke-width="0.752221" stroke-linecap="round" stroke-linejoin="round"/>
<path d="M100.24 209.88C98.9586 210.314 97.5762 210.348 96.2754 209.978" stroke="#263238" stroke-width="0.752221" stroke-linecap="round" stroke-linejoin="round"/>
<path d="M95.4192 192.768C95.4192 192.768 101.204 191.09 100.143 200.478C100.143 200.478 102.55 197.206 102.543 193.527C102.543 187.156 94.02 188.435 94.02 188.435L95.1333 192.948" fill="#263238"/>
<path d="M100.677 197.364C100.458 197.218 100.212 197.118 99.953 197.071C99.6945 197.023 99.4289 197.028 99.1724 197.085" stroke="#263238" stroke-width="0.752221" stroke-linecap="round" stroke-linejoin="round"/>
<path d="M96.7803 197.258C96.7803 197.258 93.6736 197.439 92.3271 199.515" stroke="#263238" stroke-width="0.752221" stroke-linecap="round" stroke-linejoin="round"/>
<path d="M96.0359 202.2C96.081 202.697 95.8704 203.126 95.562 203.156C95.2536 203.186 94.9677 202.802 94.9151 202.306C94.8624 201.809 95.0806 201.38 95.389 201.35C95.6974 201.32 95.9908 201.704 96.0359 202.2Z" fill="#263238"/>
<path d="M59.9976 290.03C59.9976 290.03 66.918 290.782 68.4224 293.791" stroke="#263238" stroke-width="0.752221" stroke-linecap="round" stroke-linejoin="round"/>
<path d="M77.5151 222.179C80.415 220.571 83.8243 220.145 87.0307 220.991C92.537 222.382 106.814 242.805 108.8 244.799C110.786 246.792 114.502 247.807 117.924 251.411C123.34 257.06 131.216 262.054 132.014 262.054C132.811 262.054 133.45 261.558 134.443 261.362C135.436 261.167 143.124 260.467 143.124 260.467C143.124 260.467 145.704 261.047 143.124 262.145C140.544 263.243 140.739 264.243 140.739 264.243C140.739 264.243 140.228 265.071 141.258 265.868C142.289 266.666 142.906 266.229 144.388 268.328C145.869 270.427 142.296 269.238 142.296 269.238C142.296 269.238 143.086 271.495 141.499 271.269C139.912 271.044 141.303 273.473 138.723 273.142C136.143 272.811 130.622 269.328 129.238 265.68C129.238 265.68 106.716 254.916 103.346 252.14C99.9765 249.365 85.8046 234.478 84.8042 234.282" fill="white"/>
<path d="M77.5151 222.179C80.415 220.571 83.8243 220.145 87.0307 220.991C92.537 222.382 106.814 242.805 108.8 244.799C110.786 246.792 114.502 247.807 117.924 251.411C123.34 257.06 131.216 262.054 132.014 262.054C132.811 262.054 133.45 261.558 134.443 261.362C135.436 261.167 143.124 260.467 143.124 260.467C143.124 260.467 145.704 261.047 143.124 262.145C140.544 263.243 140.739 264.243 140.739 264.243C140.739 264.243 140.228 265.071 141.258 265.868C142.289 266.666 142.906 266.229 144.388 268.328C145.869 270.427 142.296 269.238 142.296 269.238C142.296 269.238 143.086 271.495 141.499 271.269C139.912 271.044 141.303 273.473 138.723 273.142C136.143 272.811 130.622 269.328 129.238 265.68C129.238 265.68 106.716 254.916 103.346 252.14C99.9765 249.365 85.8046 234.478 84.8042 234.282" stroke="#263238" stroke-width="0.752221" stroke-linecap="round" stroke-linejoin="round"/>
<path d="M74.2812 219.998C74.2812 219.998 85.384 217.027 89.258 219.208C93.1319 221.39 100.474 231.507 100.474 231.507C100.474 231.507 91.5222 239.518 88.754 238.788C85.9858 238.059 77.5158 236.863 77.5158 236.863" fill="#10B981"/>
<path d="M74.2812 219.998C74.2812 219.998 85.384 217.027 89.258 219.208C93.1319 221.39 100.474 231.507 100.474 231.507C100.474 231.507 91.5222 239.518 88.754 238.788C85.9858 238.059 77.5158 236.863 77.5158 236.863" stroke="#263238" stroke-width="0.752221" stroke-linecap="round" stroke-linejoin="round"/>
<path d="M83.9091 237.841C83.9091 237.841 79.8847 240.052 78.4028 240.052" stroke="#263238" stroke-width="0.752221" stroke-linecap="round" stroke-linejoin="round"/>
<path d="M77.5151 226.745C77.8536 227.34 77.7408 233.846 84.8042 235.87" stroke="#263238" stroke-width="0.752221" stroke-linecap="round" stroke-linejoin="round"/>
<path d="M39.7617 255.909C39.7617 255.909 54.8061 258.489 59.9965 253.923" stroke="#263238" stroke-width="0.752221" stroke-linecap="round" stroke-linejoin="round"/>
<path d="M65.1412 257.662C65.1412 257.662 61.3801 257 59.9961 258.933C58.612 260.866 51.0747 262.694 51.0747 262.694" stroke="#263238" stroke-width="0.752221" stroke-linecap="round" stroke-linejoin="round"/>
<path d="M34.9036 272.021C34.9036 272.021 32.7297 281.394 42.0045 285.561" stroke="#263238" stroke-width="0.752221" stroke-linecap="round" stroke-linejoin="round"/>
<path d="M39.7617 272.668C39.7617 272.668 39.8144 277.287 41.2662 279.814L45.8773 281.319L51.0375 278.445C51.0375 278.445 49.9393 272.54 49.8415 271.344" stroke="#263238" stroke-width="0.752221" stroke-linecap="round" stroke-linejoin="round"/>
</g>
<defs>
<clipPath id="clip0_454_9670">
<rect width="293.119" height="333.732" fill="white"/>
</clipPath>
</defs>
</svg>
