<svg width="43" height="38" viewBox="0 0 43 38" fill="none" xmlns="http://www.w3.org/2000/svg">
<path d="M23.3563 5.81719C23.3596 5.90235 23.3459 5.98732 23.316 6.06715C23.2862 6.14699 23.2408 6.22012 23.1825 6.28231L19.4148 10.3232C19.2971 10.4486 19.1347 10.5223 18.9629 10.5283C18.791 10.5343 18.6238 10.4721 18.4978 10.3552L14.4593 6.58693C14.3339 6.46931 14.2602 6.30685 14.2542 6.13504C14.2482 5.96323 14.3104 5.79602 14.4273 5.66994L18.1951 1.62906C18.3127 1.50368 18.4751 1.42994 18.647 1.42394C18.8188 1.41794 18.986 1.48017 19.1121 1.59704L23.1525 5.36525C23.2147 5.4234 23.2647 5.49327 23.2996 5.57084C23.3346 5.64841 23.3539 5.73213 23.3563 5.81719Z" fill="#10B981"/>
<g clip-path="url(#clip0_454_9373)">
<path d="M40.2405 16.4373C40.2459 16.5814 40.2227 16.7253 40.1722 16.8604C40.1217 16.9956 40.0449 17.1193 39.9462 17.2246L33.5682 24.0649C33.3691 24.2771 33.0941 24.402 32.8033 24.4121C32.5125 24.4223 32.2294 24.3169 32.016 24.1191L25.1798 17.7403C24.9676 17.5412 24.8427 17.2662 24.8326 16.9753C24.8224 16.6845 24.9278 16.4014 25.1256 16.188L31.5036 9.34773C31.7027 9.13548 31.9777 9.01065 32.2686 9.00049C32.5594 8.99034 32.8424 9.09568 33.0559 9.29352L39.8955 15.6722C40.0006 15.7707 40.0852 15.889 40.1445 16.0203C40.2037 16.1516 40.2363 16.2933 40.2405 16.4373Z" fill="#10B981"/>
</g>
<path d="M23.6667 24.8164C23.6743 25.0156 23.6422 25.2144 23.5724 25.4011C23.5026 25.5879 23.3965 25.759 23.2601 25.9045L14.4457 35.3578C14.1705 35.6512 13.7904 35.8237 13.3885 35.8377C12.9865 35.8517 12.5954 35.7062 12.3004 35.4327L2.85275 26.6171C2.55942 26.342 2.3869 25.9619 2.37286 25.56C2.35883 25.158 2.50442 24.7668 2.77783 24.4719L11.5923 15.0186C11.8675 14.7252 12.2475 14.5527 12.6495 14.5387C13.0514 14.5246 13.4426 14.6702 13.7375 14.9436L23.19 23.7591C23.3353 23.8951 23.4522 24.0586 23.534 24.2401C23.6159 24.4215 23.661 24.6174 23.6667 24.8164Z" fill="#10B981"/>
<defs>
<clipPath id="clip0_454_9373">
<rect width="17.6251" height="17.6251" fill="white" transform="translate(23.4194 8.20679) rotate(-2)"/>
</clipPath>
</defs>
</svg>
