<svg width="224" height="233" viewBox="0 0 224 233" fill="none" xmlns="http://www.w3.org/2000/svg">
<g clip-path="url(#clip0_453_7005)">
<path d="M212.262 151.511C205.408 169.87 191.406 189.738 171.697 195.624C141.919 204.512 138.362 228.515 85.0282 226.288C77.241 226.001 69.5078 224.87 61.9645 222.915C58.276 221.944 54.6535 220.739 51.1195 219.304C19.963 206.681 3.71001 178.903 2.35559 149.843C0.577007 111.621 27.2461 93.4011 44.5788 82.7344C61.9115 72.0678 82.8062 30.7315 135.253 32.5052C143.263 32.7488 151.219 33.9149 158.962 35.9804C176.608 40.7571 194.548 51.3177 204.974 66.7658C205.755 67.9226 206.502 69.1131 207.215 70.3229C221.184 93.9795 221.608 126.486 212.262 151.511Z" fill="#FFA500"/>
<path opacity="0.8" d="M212.262 151.511C205.408 169.87 191.406 189.738 171.697 195.624C141.919 204.512 138.362 228.515 85.0282 226.288C77.241 226.001 69.5078 224.87 61.9645 222.915C58.276 221.944 54.6535 220.739 51.1195 219.304C19.963 206.681 3.71001 178.903 2.35559 149.843C0.577007 111.621 27.2461 93.4011 44.5788 82.7344C61.9115 72.0678 82.8062 30.7315 135.253 32.5052C143.263 32.7488 151.219 33.9149 158.962 35.9804C176.608 40.7571 194.548 51.3177 204.974 66.7658C205.755 67.9226 206.502 69.1131 207.215 70.3229C221.184 93.9795 221.608 126.486 212.262 151.511Z" fill="white"/>
<g opacity="0.3">
<path d="M59.1468 65.6526C65.3735 59.4258 65.3735 49.3303 59.1468 43.1035C52.92 36.8768 42.8245 36.8768 36.5977 43.1035C30.371 49.3303 30.371 59.4258 36.5977 65.6526C42.8245 71.8793 52.92 71.8793 59.1468 65.6526Z" fill="black"/>
<path d="M55.5917 61.3926C59.4639 57.1311 59.1484 50.5375 54.8869 46.6653C50.6255 42.7931 44.0318 43.1087 40.1597 47.3701C36.2875 51.6316 36.603 58.2252 40.8645 62.0974C45.1259 65.9696 51.7195 65.654 55.5917 61.3926Z" fill="white"/>
<path d="M47.8753 59.8973C50.9234 59.8973 53.3942 57.4264 53.3942 54.3784C53.3942 51.3304 50.9234 48.8595 47.8753 48.8595C44.8273 48.8595 42.3564 51.3304 42.3564 54.3784C42.3564 57.4264 44.8273 59.8973 47.8753 59.8973Z" fill="black"/>
</g>
<path d="M41.542 57.5355L41.1082 60.8806L47.326 54.6724L38.5392 54.7495L41.2287 56.7836L25.7565 63.2617L21.4185 62.5049L17.3022 64.2305L20.0111 65.7536C19.9801 65.8066 19.9618 65.8661 19.9578 65.9275C19.9538 65.9888 19.9641 66.0501 19.988 66.1068C20.0119 66.1634 20.0486 66.2136 20.0953 66.2536C20.1419 66.2935 20.1973 66.322 20.2569 66.3368L19.4423 69.3445L23.5634 67.6189L25.9734 64.0377L41.542 57.5355Z" fill="#263238"/>
<path opacity="0.3" d="M196.727 17.0668V14.8159H194.558V17.0668H188.268V14.8159H186.099V17.0668H179.833V14.8159H177.659V17.0668H171.393V14.8159H169.224V17.0668H162.886V14.8159H160.717V17.0668H152.903V62.9725H202.916V17.0668H196.727ZM160.803 59.5985H156.374V55.1737H160.803V59.5985ZM160.803 53.3325H156.374V48.9029H160.803V53.3325ZM160.803 47.0665H156.374V42.5839H160.803V47.0665ZM160.803 40.7716H156.374V36.2938H160.803V40.7716ZM167.262 59.5985H162.833V55.1737H167.262V59.5985ZM167.262 53.3325H162.833V48.9029H167.262V53.3325ZM167.262 47.0665H162.833V42.5839H167.262V47.0665ZM167.262 40.7716H162.833V36.2938H167.262V40.7716ZM173.721 59.5985H169.291V55.1737H173.721V59.5985ZM173.721 53.3325H169.291V48.9029H173.721V53.3325ZM173.721 47.0665H169.291V42.5839H173.721V47.0665ZM173.721 40.7716H169.291V36.2938H173.721V40.7716ZM180.175 59.5985H175.75V55.1737H180.175V59.5985ZM180.175 53.3325H175.75V48.9029H180.175V53.3325ZM180.175 47.0665H175.75V42.5839H180.175V47.0665ZM180.175 40.7716H175.75V36.2938H180.175V40.7716ZM186.634 59.5985H182.204V55.1737H186.634V59.5985ZM186.634 53.3325H182.204V48.9029H186.634V53.3325ZM186.634 47.0665H182.204V42.5839H186.634V47.0665ZM186.634 40.7716H182.204V36.2938H186.634V40.7716ZM193.092 59.5985H188.663V55.1737H193.092V59.5985ZM193.092 53.3325H188.663V48.9029H193.092V53.3325ZM193.092 47.0665H188.663V42.5839H193.092V47.0665ZM193.092 40.7716H188.663V36.2938H193.092V40.7716ZM199.551 59.5985H195.122V55.1737H199.551V59.5985ZM199.551 53.3325H195.122V48.9029H199.551V53.3325ZM199.551 47.0665H195.122V42.5839H199.551V47.0665ZM199.551 40.7716H195.122V36.2938H199.551V40.7716ZM199.985 31.3533H155.94V20.8891H199.975L199.985 31.3533Z" fill="black"/>
<path d="M168.352 77.5433C168.352 77.5433 169.079 70.2651 166.168 66.9875C163.257 63.7099 158.89 67.7153 159.979 72.0822C161.069 76.4491 168.352 77.5433 168.352 77.5433Z" fill="#FFA500"/>
<path d="M159.969 109.967C159.969 109.967 161.121 98.6404 156.595 93.5216C152.069 88.4027 145.254 94.6591 146.955 101.465C148.657 108.271 159.969 109.967 159.969 109.967Z" fill="#FFA500"/>
<path d="M157.531 128.351C157.531 128.351 156.287 117.019 150.783 112.97C145.278 108.921 139.923 116.436 143.003 122.74C146.083 129.045 157.531 128.351 157.531 128.351Z" fill="#FFA500"/>
<path d="M169.08 137.837C162.38 139.128 156.374 148.821 156.374 148.821C156.374 148.821 166.409 154.369 171.899 150.007C177.389 145.645 175.784 136.55 169.08 137.837Z" fill="#FFA500"/>
<path d="M171.297 154.914C161.705 156.76 153.121 170.627 153.121 170.627C153.121 170.627 167.479 178.566 175.336 172.319C183.193 166.072 180.889 153.068 171.297 154.914Z" fill="#FFA500"/>
<path d="M155.632 148.976C155.935 148.976 156.114 148.976 156.114 148.976C156.114 148.976 156.051 148.436 155.902 147.53C156.668 143.235 157.444 137.832 158.365 131.373L158.75 128.683C161.363 129.922 168.872 132.959 173.341 129.397C178.83 125.03 177.225 115.939 170.521 117.231C165.672 118.161 161.189 123.497 159.083 126.365C159.676 122.268 160.322 117.863 161.05 113.25C161.175 112.469 161.315 111.659 161.469 110.816C164.048 112.744 170.357 116.706 175.235 114.276C181.501 111.148 181.829 101.918 175.003 101.788C170.087 101.696 164.621 105.938 161.951 108.319C162.915 103.46 164.298 97.8499 165.749 92.3069C167.316 93.483 171.49 96.216 174.7 94.6157C178.729 92.6058 178.932 86.6868 174.55 86.6049C171.364 86.5422 167.831 89.3137 166.135 90.8368C167.301 86.4217 168.506 82.1078 169.6 78.3048C171.403 79.5821 175.182 81.7849 178.136 80.31C182.161 78.3 182.368 72.3811 177.987 72.2991C175.201 72.2461 172.15 74.3524 170.275 75.9045C171.875 70.3759 173.128 66.2982 173.451 65.2426C175.081 64.163 179.997 60.789 180.816 58.7694C181.051 58.1918 181.17 57.5736 181.166 56.9501C181.162 56.3266 181.035 55.7101 180.793 55.1356C180.55 54.5611 180.197 54.04 179.753 53.602C179.31 53.164 178.784 52.8177 178.206 52.5829C177.629 52.3481 177.011 52.2293 176.387 52.2334C175.764 52.2375 175.147 52.3643 174.573 52.6067C173.998 52.849 173.477 53.2022 173.039 53.6459C172.601 54.0897 172.255 54.6153 172.02 55.1929C171.234 57.1209 172.285 62.5916 172.738 64.7173L172.449 64.6257C172.405 64.7558 170.771 70.0385 168.665 77.3601L168.535 77.4903L168.607 77.5529C167.475 81.5053 166.197 86.0409 164.978 90.673C165.045 88.475 164.915 83.7611 162.727 81.3029C159.835 78.0253 155.449 82.0307 156.543 86.3976C157.507 90.3018 163.435 91.5839 164.679 91.8153C163.045 98.0476 161.512 104.381 160.505 109.649L160.278 109.881L160.437 110.016C160.235 111.076 160.057 112.098 159.907 113.062C158.871 119.627 157.979 125.777 157.218 131.204C156.49 136.289 155.858 140.719 155.246 144.464C154.34 140.835 152.581 135.947 149.351 133.571C143.852 129.517 138.492 137.037 141.572 143.341C143.929 148.161 151.178 148.889 154.456 148.961C154.33 149.607 154.21 150.224 154.085 150.812C153.603 153.15 152.802 159.589 152.026 166.655C150.947 161.45 148.411 152.74 143.076 148.821C135.209 143.037 127.541 153.781 131.946 162.799C135.643 170.372 147.78 170.887 151.578 170.858C150.537 180.725 149.612 190.514 149.539 191.266L150.677 191.372C150.711 191.03 153.93 157.011 155.203 151.068C155.347 150.402 155.487 149.732 155.632 148.976Z" fill="#FFA500"/>
<path d="M69.2859 112.806C69.2859 112.806 68.8617 108.57 70.5584 106.666C72.255 104.762 74.7952 107.09 74.1589 109.63C73.5227 112.17 69.2859 112.806 69.2859 112.806Z" fill="#FFA500"/>
<path d="M74.1735 131.686C74.1735 131.686 73.5131 125.083 76.1545 122.114C78.7958 119.145 82.7579 122.774 81.765 126.736C80.772 130.698 74.1735 131.686 74.1735 131.686Z" fill="#FFA500"/>
<path d="M75.5859 142.387C75.5859 142.387 76.3089 135.793 79.5094 133.431C82.7099 131.069 85.8333 135.451 84.0402 139.119C82.2472 142.787 75.5859 142.387 75.5859 142.387Z" fill="#FFA500"/>
<path d="M68.8719 147.91C72.7761 148.662 76.2706 154.307 76.2706 154.307C76.2706 154.307 70.424 157.536 67.2283 154.996C64.0327 152.456 64.9581 147.159 68.8719 147.91Z" fill="#FFA500"/>
<path d="M67.5703 157.854C73.1567 158.929 78.1743 167.012 78.1743 167.012C78.1743 167.012 69.8116 171.635 65.2375 168C60.6633 164.366 61.984 156.779 67.5703 157.854Z" fill="#FFA500"/>
<path d="M76.6946 154.393C76.5163 154.393 76.4151 154.393 76.4151 154.393C76.4151 154.393 76.4536 154.08 76.5404 153.564C76.0921 151.063 75.6439 147.915 75.0944 144.156C75.0221 143.65 74.9498 143.124 74.8727 142.589C73.3495 143.312 68.9826 145.081 66.375 143.004C63.1793 140.464 64.1144 135.171 68.0186 135.923C70.8431 136.468 73.4508 139.567 74.6799 141.225C74.3328 138.815 73.9569 136.27 73.5327 133.585C73.4588 133.132 73.3769 132.66 73.2869 132.168C71.7879 133.277 68.115 135.6 65.276 134.183C61.6177 132.361 61.42 126.992 65.411 126.915C68.2741 126.862 71.4505 129.325 73.0073 130.718C72.4386 127.888 71.6433 124.62 70.7998 121.391C69.884 122.08 67.4547 123.671 65.5845 122.74C63.242 121.569 63.1215 118.123 65.6713 118.075C67.527 118.036 69.5851 119.651 70.5732 120.538C69.8936 117.969 69.1899 115.457 68.5536 113.24C67.5029 113.982 65.305 115.265 63.5842 114.407C61.2417 113.235 61.1212 109.789 63.671 109.741C65.2905 109.712 67.0691 110.941 68.1536 111.842C67.2185 108.623 66.4907 106.251 66.3027 105.634C65.3387 105.008 62.4901 103.041 62.0129 101.865C61.7716 101.193 61.7997 100.453 62.0913 99.801C62.3829 99.1489 62.9154 98.6349 63.5774 98.3665C64.2394 98.0981 64.9795 98.0961 65.6429 98.361C66.3063 98.6259 66.8415 99.1371 67.1366 99.7876C67.6186 100.915 66.9823 104.097 66.7172 105.331L66.8907 105.278C66.8907 105.355 67.8547 108.43 69.0887 112.691L69.1658 112.768L69.1224 112.806C69.7827 115.106 70.525 117.747 71.2384 120.441C71.195 119.164 71.2769 116.417 72.5494 114.985C74.2412 113.057 76.7862 115.409 76.15 117.954C75.5812 120.224 72.1349 120.971 71.4119 121.106C72.3759 124.736 73.2531 128.423 73.8219 131.498C73.8678 131.541 73.9113 131.586 73.952 131.633L73.8605 131.71C73.9761 132.327 74.0822 132.92 74.1689 133.479C74.7763 137.306 75.2872 140.883 75.7354 144.045C76.1596 147.004 76.5259 149.583 76.8826 151.757C77.408 149.641 78.4346 146.797 80.3144 145.414C83.5149 143.052 86.6383 147.428 84.8452 151.101C83.4715 153.907 79.2492 154.331 77.3453 154.374C77.4176 154.75 77.4899 155.112 77.5622 155.449C77.8514 156.813 78.3045 160.558 78.7576 164.674C79.3842 161.647 80.8639 156.572 83.968 154.283C88.547 150.909 93.0103 157.175 90.4461 162.423C88.2964 166.829 81.2302 167.128 79.0179 167.113C79.6252 172.859 80.165 178.556 80.2084 178.995L79.5432 179.057C79.5432 178.855 77.649 159.049 76.9115 155.589C76.8505 155.219 76.7782 154.821 76.6946 154.393Z" fill="#FFA500"/>
<path d="M17.2496 165.046C17.2496 165.046 16.1361 162.592 16.7676 161.103C17.399 159.613 19.3945 160.5 19.5294 162.154C19.6644 163.807 17.2496 165.046 17.2496 165.046Z" fill="#FFA500"/>
<path d="M23.9926 175.389C23.9926 175.389 22.2622 171.562 23.2406 169.244C24.2191 166.925 27.3376 168.28 27.5449 170.878C27.7522 173.476 23.9926 175.389 23.9926 175.389Z" fill="#FFA500"/>
<path d="M27.0197 181.544C27.0197 181.544 26.1184 177.438 27.5644 175.375C29.0104 173.312 31.7674 175.307 31.4204 177.872C31.0733 180.436 27.0197 181.544 27.0197 181.544Z" fill="#FFA500"/>
<path d="M24.1081 186.196C26.6 185.882 29.8294 188.533 29.8294 188.533C29.8294 188.533 26.9808 191.657 24.5274 190.78C22.074 189.902 21.6354 186.538 24.1081 186.196Z" fill="#FFA500"/>
<path d="M25.3469 192.423C28.9137 191.941 33.5409 195.768 33.5409 195.768C33.5409 195.768 29.4632 200.236 25.9832 198.983C22.5031 197.73 21.7753 192.91 25.3469 192.423Z" fill="#FFA500"/>
<path d="M30.1189 188.5L29.9502 188.553C29.9502 188.553 29.9068 188.355 29.8538 188.027C29.0826 186.62 28.1716 184.822 27.0919 182.672C26.9425 182.383 26.793 182.084 26.6388 181.781C25.8724 182.523 23.607 184.465 21.626 183.752C19.1919 182.87 18.681 179.506 21.1729 179.168C22.9804 178.922 25.1735 180.253 26.2484 181.009C25.5591 179.645 24.8024 178.185 24.0119 176.671C23.877 176.416 23.7324 176.151 23.5781 175.871C22.9033 176.835 21.1681 178.98 19.1775 178.705C16.618 178.354 15.4179 175.168 17.7893 174.314C19.4956 173.702 21.9056 174.541 23.1202 175.057C22.2044 173.476 21.0621 171.683 19.9005 169.909C19.4956 170.507 18.3581 171.953 17.047 171.774C15.4034 171.548 14.637 169.504 16.1553 168.959C17.2591 168.559 18.8208 169.114 19.592 169.441C18.6665 168.039 17.7363 166.675 16.9024 165.475C16.4204 166.13 15.3648 167.345 14.1598 167.181C12.5162 166.954 11.7498 164.911 13.2681 164.366C14.2321 164.019 15.548 164.395 16.377 164.718C15.1672 162.973 14.2514 161.696 14.0104 161.368C13.3163 161.18 11.2004 160.582 10.675 159.975C10.5142 159.802 10.39 159.599 10.3097 159.377C10.2294 159.155 10.1948 158.919 10.2077 158.683C10.2207 158.448 10.2811 158.217 10.3853 158.005C10.4894 157.794 10.6352 157.605 10.814 157.451C10.9927 157.297 11.2007 157.181 11.4255 157.109C11.6503 157.037 11.8873 157.011 12.1222 157.033C12.3572 157.055 12.5853 157.124 12.793 157.236C13.0007 157.348 13.1836 157.501 13.3308 157.685C13.8128 158.273 14.1116 160.303 14.2032 161.098L14.29 161.035C14.3237 161.074 15.5143 162.727 17.1145 165.036L17.1772 165.065C17.1786 165.076 17.1786 165.087 17.1772 165.099C18.0399 166.342 19.0184 167.779 19.992 169.253C19.7077 168.492 19.2016 166.843 19.6739 165.711C20.3053 164.226 22.3008 165.108 22.4358 166.761C22.5563 168.241 20.6379 169.388 20.233 169.615C21.5393 171.601 22.8214 173.635 23.795 175.356L23.9011 175.413L23.8625 175.476C24.0553 175.823 24.2385 176.16 24.4072 176.479C25.5447 178.648 26.5762 180.696 27.4871 182.499C28.3403 184.191 29.0826 185.661 29.7381 186.899C29.6272 185.526 29.6658 183.607 30.5141 182.398C31.9601 180.335 34.7171 182.33 34.3701 184.894C34.1146 186.856 31.6661 187.965 30.5141 188.379C30.6346 188.586 30.7503 188.789 30.866 188.977C31.3142 189.738 32.3457 191.893 33.4495 194.279C33.2133 192.351 33.0735 188.977 34.4713 186.986C36.5391 184.036 40.4867 186.885 40.0095 190.558C39.6094 193.638 35.4305 195.248 34.1002 195.686C35.6281 199.012 37.1078 202.323 37.2235 202.574L36.8379 202.748C36.7849 202.632 31.6468 191.127 30.4996 189.199C30.3743 188.974 30.2474 188.741 30.1189 188.5Z" fill="#FFA500"/>
<path d="M205.388 178.334C205.388 178.334 207.172 176.315 208.762 176.281C210.353 176.247 210.392 178.431 208.936 179.231C207.48 180.031 205.388 178.334 205.388 178.334Z" fill="#FFA500"/>
<path d="M198.718 188.726C198.718 188.726 201.499 185.579 204.02 185.521C206.541 185.463 206.56 188.895 204.29 190.119C202.019 191.343 198.718 188.726 198.718 188.726Z" fill="#FFA500"/>
<path d="M194.365 193.999C194.365 193.999 197.739 191.498 200.212 191.965C202.685 192.433 202 195.773 199.523 196.52C197.045 197.267 194.365 193.999 194.365 193.999Z" fill="#FFA500"/>
<path d="M188.89 193.257C190.22 195.392 189.107 199.446 189.107 199.446C189.107 199.446 185.087 198.125 184.894 195.547C184.701 192.968 187.569 191.122 188.89 193.257Z" fill="#FFA500"/>
<path d="M183.732 196.939C185.636 199.995 184.041 205.794 184.041 205.794C184.041 205.794 178.296 203.9 178.011 200.212C177.727 196.525 181.824 193.884 183.732 196.939Z" fill="#FFA500"/>
<path d="M189.266 199.687L189.15 199.552L189.588 199.253C190.552 197.966 191.825 196.404 193.338 194.534L193.97 193.758C192.977 193.363 190.278 192.095 190.114 189.989C189.916 187.41 192.779 185.569 194.11 187.704C195.074 189.247 194.756 191.797 194.51 193.088C195.474 191.898 196.496 190.62 197.561 189.266C197.739 189.035 197.927 188.784 198.115 188.543C196.953 188.321 194.293 187.618 193.729 185.69C193.001 183.207 195.416 180.807 197.161 182.619C198.419 183.925 198.64 186.475 198.669 187.786C199.735 186.302 200.911 184.528 202.043 182.745C201.335 182.614 199.547 182.171 199.175 180.903C198.693 179.313 200.26 177.77 201.378 178.932C202.193 179.78 202.342 181.434 202.342 182.272C203.239 180.85 204.106 179.438 204.863 178.19C204.063 178.021 202.521 177.553 202.178 176.387C201.696 174.792 203.263 173.254 204.381 174.416C205.094 175.158 205.287 176.512 205.345 177.399C206.439 175.582 207.225 174.223 207.432 173.871C207.316 173.158 206.993 170.979 207.336 170.256C207.433 170.048 207.571 169.861 207.74 169.706C207.91 169.551 208.109 169.43 208.325 169.352C208.541 169.274 208.771 169.239 209 169.249C209.23 169.259 209.456 169.315 209.664 169.412C209.872 169.51 210.059 169.647 210.214 169.817C210.369 169.987 210.489 170.186 210.568 170.402C210.646 170.618 210.681 170.847 210.671 171.077C210.66 171.307 210.605 171.532 210.507 171.741C210.18 172.439 208.439 173.524 207.75 173.934L207.851 173.987C207.823 174.03 206.806 175.799 205.355 178.204V178.272H205.316C204.535 179.573 203.624 181.053 202.68 182.542C203.258 181.973 204.564 180.826 205.779 180.802C207.394 180.768 207.408 182.952 205.952 183.752C204.651 184.465 202.819 183.188 202.448 182.908C201.171 184.914 199.845 186.919 198.669 188.514C198.669 188.591 198.669 188.635 198.669 188.635H198.592C198.356 188.953 198.11 189.256 197.903 189.541C196.389 191.469 194.943 193.247 193.671 194.814C192.48 196.289 191.439 197.571 190.581 198.67C191.791 198.005 193.551 197.253 195.006 197.532C197.479 198.014 196.79 201.335 194.312 202.082C192.418 202.656 190.403 200.877 189.564 200.01L189.155 200.574C188.649 201.297 187.106 203.124 185.39 205.105C187.068 204.092 190.056 202.593 192.456 203.046C195.994 203.721 195.011 208.493 191.468 209.563C188.494 210.46 185.313 207.307 184.368 206.276C181.958 209.033 179.548 211.737 179.365 211.944L179.047 211.66C179.134 211.568 187.526 202.169 188.812 200.333C188.947 200.121 189.102 199.909 189.266 199.687Z" fill="#FFA500"/>
<path d="M191.546 143.703L190.336 144.912L188.832 145.64L187.81 149.043L188.88 149.381L189.599 148.624L190.259 149.337L189.372 151.877C189.372 151.877 188.177 152.224 188.167 152.518C188.157 152.812 188.919 153.434 188.919 153.434L190.317 152.803L194.173 152.364L195.281 151.622L194.076 145.105L191.546 143.703Z" fill="#CCCCCC" stroke="#263238" stroke-width="0.482" stroke-linecap="round" stroke-linejoin="round"/>
<path d="M190.297 152.803L191.69 150.552" stroke="#263238" stroke-width="0.482" stroke-linecap="round" stroke-linejoin="round"/>
<path d="M192.144 152.6L193.083 150.393" stroke="#263238" stroke-width="0.482" stroke-linecap="round" stroke-linejoin="round"/>
<path d="M194.154 152.364L194.472 150.451" stroke="#263238" stroke-width="0.482" stroke-linecap="round" stroke-linejoin="round"/>
<path d="M188.634 114.281L198.014 129.151L194.582 145.24L190.89 144.43L190.693 129.392L184.788 123.516L188.634 114.281Z" fill="white" stroke="#263238" stroke-width="0.482" stroke-linecap="round" stroke-linejoin="round"/>
<path d="M181.385 109.341L188.635 114.281L180.595 135.109L167.161 131.171L165.822 119.27L167.398 108.878L173.987 108.112L181.385 109.341Z" fill="white" stroke="#263238" stroke-width="0.482" stroke-linecap="round" stroke-linejoin="round"/>
<path d="M174.83 113.582L176.185 115.053C176.383 115.267 176.629 115.432 176.902 115.535C177.176 115.638 177.469 115.675 177.76 115.645C178.05 115.615 178.33 115.517 178.576 115.36C178.822 115.202 179.028 114.99 179.178 114.739L182.306 109.495L180.137 107.278L175.341 107.485L173.322 108.55L172.387 111.211C172.268 111.549 172.248 111.914 172.33 112.263C172.412 112.611 172.592 112.929 172.849 113.179C173.107 113.428 173.43 113.599 173.781 113.67C174.132 113.742 174.496 113.711 174.83 113.582Z" fill="white" stroke="#263238" stroke-width="0.482" stroke-linecap="round" stroke-linejoin="round"/>
<path d="M176.69 93.5794C176.69 93.5794 174.415 95.0833 174.131 95.6954C173.927 96.237 173.793 96.8022 173.731 97.3776L171.162 98.3994L172.27 100.033C172.27 100.033 171.306 103.73 171.967 104.304C172.627 104.878 175.003 106.29 175.003 106.29L174.941 110.931C174.938 111.177 175.002 111.418 175.127 111.63C175.251 111.841 175.432 112.014 175.648 112.13C175.864 112.246 176.108 112.3 176.353 112.287C176.598 112.273 176.835 112.193 177.037 112.054L181.12 109.269L182.349 106.42C182.349 106.42 186.446 103.046 186.398 100.968C186.35 98.8911 185.347 95.6665 182.335 93.9795C179.322 92.2925 176.84 93.0589 176.84 93.0589L176.69 93.5794Z" fill="#CCCCCC" stroke="#263238" stroke-width="0.482" stroke-linecap="round" stroke-linejoin="round"/>
<path d="M178.059 93.4011C178.059 93.4011 179.746 93.7385 178.156 97.7391C176.565 101.74 175.008 104.762 177.37 107.302C179.732 109.842 181.361 111.394 180.233 113.168C179.105 114.942 175.818 114.32 176.772 118.335C177.727 122.35 180.913 123.155 182.291 121.025C183.67 118.894 182.957 115.241 183.111 114.493C183.185 114.064 183.375 113.662 183.66 113.332L184.581 113.515L190.076 116.407C190.076 116.407 190.008 115.862 190.37 112.43C190.731 108.999 187.642 108.541 188.249 105.475C188.856 102.41 192.201 103.234 191.001 98.8525C189.801 94.4711 182.744 91.4731 182.744 91.4731C182.744 91.4731 179.891 86.6049 176.676 89.1547C173.461 91.7044 175.601 94.3024 175.601 94.3024L178.059 93.4011Z" fill="#263238" stroke="#263238" stroke-width="0.482" stroke-linecap="round" stroke-linejoin="round"/>
<path d="M175.004 97.7487C174.912 98.144 175.004 98.5055 175.22 98.5537C175.437 98.6019 175.702 98.3319 175.78 97.9367C175.857 97.5415 175.78 97.1848 175.563 97.1318C175.346 97.0787 175.1 97.3583 175.004 97.7487Z" fill="#263238"/>
<path d="M177.139 96.8281C176.952 96.4992 176.661 96.2422 176.312 96.0981C175.962 95.9539 175.575 95.9309 175.211 96.0328" stroke="#263238" stroke-width="0.482" stroke-linecap="round" stroke-linejoin="round"/>
<path d="M149.043 108.82L148.86 106.695C148.954 105.992 148.954 105.281 148.86 104.579C148.676 103.847 148.439 103.131 148.151 102.434C147.91 101.826 147.592 101.47 147.24 102.067C146.889 102.665 147.038 103.779 147.038 103.779C146.936 103.211 146.733 102.666 146.44 102.169C146.064 101.687 144.821 101.306 143.582 100.925C142.343 100.544 142.907 101.234 143.1 101.571C143.293 101.908 144.454 102.482 144.454 102.482C144.454 102.482 142.628 101.817 142.107 101.663C141.587 101.508 140.762 102.145 141.346 102.492C141.929 102.792 142.539 103.038 143.167 103.224C142.506 103.381 141.861 103.599 141.239 103.875C140.695 104.188 140.936 104.791 141.268 104.805C141.712 104.78 142.155 104.732 142.594 104.661C142.594 104.661 141.707 105.35 141.89 105.755C142.073 106.16 143.746 105.629 143.746 105.629C143.905 106.296 144.248 106.905 144.734 107.389C145.267 107.852 145.851 108.253 146.474 108.584L147.992 110.368L149.043 108.82Z" fill="#CCCCCC" stroke="#263238" stroke-width="0.482" stroke-linecap="round" stroke-linejoin="round"/>
<path d="M144.464 102.482L143.905 104.911" stroke="#263238" stroke-width="0.482" stroke-linecap="round" stroke-linejoin="round"/>
<path d="M147.057 103.779L147.158 104.574C147.158 104.574 146.074 105.258 146.228 106.324" fill="#CCCCCC"/>
<path d="M147.057 103.779L147.158 104.574C147.158 104.574 146.074 105.258 146.228 106.324" stroke="#263238" stroke-width="0.482" stroke-linecap="round" stroke-linejoin="round"/>
<path d="M167.397 108.878L156.88 116.875L149.062 108.358L146.941 110.218L154.991 124.244L165.951 118.215L167.397 108.878Z" fill="white" stroke="#263238" stroke-width="0.482" stroke-linecap="round" stroke-linejoin="round"/>
<path d="M183.106 161.459L183.169 149.106C183.357 141.056 180.985 135.61 180.585 135.234C180.527 135.169 180.449 135.125 180.363 135.109L166.93 131.171C166.93 131.171 165.209 136.063 163.836 136.955C148.653 146.836 145.144 151.646 145.279 151.897C149.25 159.209 162.081 171.5 161.667 170.646L164.915 169.547L154.909 153.106L169.576 147.322L172.468 161.363L187.217 188.837L191.237 187.391L183.106 161.459Z" fill="#263238" stroke="#263238" stroke-width="0.482" stroke-linecap="round" stroke-linejoin="round"/>
<path d="M161.638 170.651L160.105 173.697C160.105 173.697 158.572 174.179 157.999 174.464C157.425 174.748 157.136 174.806 156.837 175.264C156.642 175.608 156.529 175.992 156.509 176.387L164.135 176.691L167.571 173.244C168.651 172.155 164.886 169.552 164.886 169.552L161.638 170.651Z" fill="white" stroke="#263238" stroke-width="0.482" stroke-linecap="round" stroke-linejoin="round"/>
<path d="M191.242 187.386C191.242 187.386 191.165 189.271 191.098 190.963C191.03 192.655 188.948 195.214 187.685 196.11C186.422 197.007 185.275 197.147 185.665 194.804C186.064 192.783 186.584 190.787 187.222 188.827C187.222 188.827 190.866 187.275 191.242 187.386Z" fill="white" stroke="#263238" stroke-width="0.482" stroke-linecap="round" stroke-linejoin="round"/>
<path d="M103.186 22.1133L94.606 28.0081" stroke="#263238" stroke-width="0.482" stroke-linecap="round" stroke-linejoin="round"/>
<path d="M104.381 21.2891L103.807 21.6843" stroke="#263238" stroke-width="0.482" stroke-linecap="round" stroke-linejoin="round"/>
<path d="M91.5114 15.6544L89.5786 15.3893" stroke="#263238" stroke-width="0.482" stroke-linecap="round" stroke-linejoin="round"/>
<path d="M103.995 17.3704L92.7407 15.8232" stroke="#263238" stroke-width="0.482" stroke-linecap="round" stroke-linejoin="round"/>
<path d="M106.044 9.78852L102.323 6" stroke="#263238" stroke-width="0.482" stroke-linecap="round" stroke-linejoin="round"/>
<path d="M107.582 11.355L106.719 10.473" stroke="#263238" stroke-width="0.482" stroke-linecap="round" stroke-linejoin="round"/>
<path d="M117.544 11.4129L121.858 7.00739" stroke="#263238" stroke-width="0.482" stroke-linecap="round" stroke-linejoin="round"/>
<path d="M116.72 12.2563L117.135 11.837" stroke="#263238" stroke-width="0.482" stroke-linecap="round" stroke-linejoin="round"/>
<path d="M127.063 17.6018L135.821 16.6281" stroke="#263238" stroke-width="0.482" stroke-linecap="round" stroke-linejoin="round"/>
<path d="M119.062 18.4934L126.008 17.7174" stroke="#263238" stroke-width="0.482" stroke-linecap="round" stroke-linejoin="round"/>
<path d="M125.02 26.1813L128.997 30.288" stroke="#263238" stroke-width="0.482" stroke-linecap="round" stroke-linejoin="round"/>
<path d="M119.376 20.354L124.249 25.3861" stroke="#263238" stroke-width="0.482" stroke-linecap="round" stroke-linejoin="round"/>
<path d="M113.718 20.1178H111.496V26.5188H113.718V20.1178Z" fill="#FFA500" stroke="#263238" stroke-width="0.482" stroke-linecap="round" stroke-linejoin="round"/>
<path d="M115.347 25.9934V25.0776H109.861V25.9934H107.249V29.6518H117.959V25.9934H115.347Z" fill="#263238" stroke="#263238" stroke-width="0.482" stroke-linecap="round" stroke-linejoin="round"/>
<path d="M112.604 8.23163L115.202 13.4902L121.01 14.3386L116.807 18.4307L117.8 24.2147L112.604 21.4866L107.408 24.2147L108.401 18.4307L104.198 14.3386L110.006 13.4902L112.604 8.23163Z" fill="#FFA500" stroke="#263238" stroke-width="0.482" stroke-linecap="round" stroke-linejoin="round"/>
<path d="M105.331 14.8833L112.604 16.7776L119.005 15.1773" fill="#FFA500"/>
<path d="M105.331 14.8833L112.604 16.7776L119.005 15.1773" stroke="#263238" stroke-width="0.482" stroke-linecap="round" stroke-linejoin="round"/>
<path d="M112.748 10.5212V15.1773" stroke="#263238" stroke-width="0.482" stroke-linecap="round" stroke-linejoin="round"/>
<path d="M108.242 23.3231L112.459 17.7946V20.1226" fill="#FFA500"/>
<path d="M108.242 23.3231L112.459 17.7946V20.1226" stroke="#263238" stroke-width="0.482" stroke-linecap="round" stroke-linejoin="round"/>
<path d="M117.8 24.2196L113.476 17.7946" stroke="#263238" stroke-width="0.482" stroke-linecap="round" stroke-linejoin="round"/>
<path d="M97.0786 88.9619C97.0786 88.9619 103.856 91.7816 110.618 92.1045C117.38 92.4275 129.522 88.9619 129.522 88.9619L121.463 78.5748H102.781L97.0786 88.9619Z" fill="#263238" stroke="#263238" stroke-width="0.482" stroke-linecap="round" stroke-linejoin="round"/>
<path d="M129.175 141.172C128.929 140.43 126.823 134.863 126.823 134.863C126.823 134.863 125.589 125.579 125.589 121.246C125.589 116.913 124.1 114.32 124.1 114.32L122.374 83.3176L121.251 79.3942H118.778L111.905 79.4568L105.022 79.3942H104.159L101.33 84.7733L99.7199 114.32C99.7199 114.32 98.2354 116.918 98.2354 121.246C98.2354 125.575 96.9967 134.863 96.9967 134.863C96.9967 134.863 94.8951 140.43 94.6445 141.172C94.3938 141.914 92.543 143.65 92.543 144.267C92.5479 144.457 92.5934 144.644 92.6766 144.815C92.7597 144.986 92.8785 145.138 93.025 145.259H99.7199C99.7199 145.259 100.091 145.134 100.342 143.895C100.528 142.834 100.611 141.758 100.588 140.68C100.588 139.938 101.33 133.749 101.33 133.749L110.859 94.0662H112.965L122.494 133.749C122.494 133.749 123.237 139.938 123.237 140.68C123.214 141.758 123.296 142.834 123.483 143.895C123.728 145.134 124.1 145.259 124.1 145.259H130.785C130.931 145.138 131.05 144.986 131.133 144.815C131.216 144.644 131.262 144.457 131.267 144.267C131.281 143.65 129.426 141.914 129.175 141.172Z" fill="white" stroke="#263238" stroke-width="0.482" stroke-linecap="round" stroke-linejoin="round"/>
<path d="M126.823 134.863C126.823 134.863 125.589 125.579 125.589 121.246C125.589 116.913 124.099 114.32 124.099 114.32L122.374 83.3176L121.251 79.3942H118.778L111.905 79.4568L105.022 79.3942H104.159L101.33 84.7733L99.7198 114.32C99.7198 114.32 98.2352 116.918 98.2352 121.246C98.2352 125.575 96.9965 134.863 96.9965 134.863L96.9531 134.988H101.166C101.248 134.251 101.31 133.749 101.31 133.749L110.84 94.0662H112.946L122.475 133.749C122.475 133.749 122.533 134.231 122.62 134.988H126.852L126.823 134.863Z" fill="#263238" stroke="#263238" stroke-width="0.482" stroke-linecap="round" stroke-linejoin="round"/>
<path d="M101.026 136.328L98.6158 142.04H94.0995C93.468 142.845 92.5522 143.833 92.5522 144.267C92.5572 144.457 92.6027 144.644 92.6858 144.815C92.769 144.986 92.8878 145.138 93.0342 145.259H99.7196C99.7196 145.259 100.091 145.134 100.341 143.895C100.528 142.834 100.61 141.758 100.587 140.68C100.587 140.261 100.823 138.121 101.026 136.328Z" fill="#FFA500" stroke="#263238" stroke-width="0.482" stroke-linecap="round" stroke-linejoin="round"/>
<path d="M122.793 136.328L125.203 142.04H129.715C130.346 142.845 131.267 143.833 131.267 144.267C131.262 144.457 131.217 144.644 131.133 144.815C131.05 144.986 130.932 145.138 130.785 145.259H124.1C124.1 145.259 123.729 145.134 123.483 143.895C123.296 142.834 123.214 141.758 123.237 140.68C123.237 140.261 123.001 138.121 122.793 136.328Z" fill="#FFA500" stroke="#263238" stroke-width="0.482" stroke-linecap="round" stroke-linejoin="round"/>
<path d="M111.22 39.1761C111.22 39.1761 109.022 38.0241 107.364 40.3329C105.706 42.6416 106.839 44.7287 106.839 45.3601C106.839 45.9915 104.328 48.0834 105.06 49.0281C105.793 49.9729 106.945 50.4741 106.839 50.9128C106.733 51.3514 103.802 50.7007 104.014 51.7514C104.226 52.8022 104.429 54.4747 108.203 57.3041C111.977 60.1334 117.424 57.8246 118.889 56.2533C120.354 54.682 121.612 53.1107 121.405 52.1708C121.198 51.2309 119.728 51.5394 119.728 51.12C119.728 50.7007 121.299 49.2354 121.299 48.3967C121.299 47.558 119.622 46.5121 119.516 45.9867C119.409 45.4613 120.354 44.7287 120.354 43.8948C120.354 43.061 118.257 42.0054 118.257 41.2728C118.257 40.5401 119.834 39.2821 117.424 37.6047C115.014 35.9274 111.77 37.1854 111.22 39.1761Z" fill="#263238" stroke="#263238" stroke-width="0.482" stroke-linecap="round" stroke-linejoin="round"/>
<path d="M110.56 52.2045L109.721 56.4654C109.721 56.4654 107.765 55.6267 107.205 55.4146C106.646 55.2025 105.022 79.3941 105.022 79.3941H120.595L119.757 55.5544L116.267 56.4654L115.216 52.1274L110.56 52.2045Z" fill="white" stroke="#263238" stroke-width="0.482" stroke-linecap="round" stroke-linejoin="round"/>
<path d="M116.494 63.4544L117.111 56.2534L116.286 56.4703L115.236 52.1323L110.56 52.2046L109.721 56.4654L109.032 56.1714L109.789 63.4496L116.494 63.4544Z" fill="white" stroke="#263238" stroke-width="0.482" stroke-linecap="round" stroke-linejoin="round"/>
<path d="M110.035 53.0673C110.035 53.0673 112.835 55.752 113.409 55.752C113.982 55.752 115.742 53.3035 115.742 53.3035L115.51 52.4841L110.035 52.3684V53.0673Z" fill="#263238" stroke="#263238" stroke-width="0.482" stroke-linecap="round" stroke-linejoin="round"/>
<path d="M100.997 35.9804L105.817 30.9628L104.439 27.2032C104.439 27.2032 105.807 24.663 105.928 24.3738C106.048 24.0846 106.55 23.2122 106.55 23.2122C106.656 23.2056 106.763 23.2209 106.863 23.2572C106.963 23.2936 107.054 23.3501 107.132 23.4234C107.209 23.4966 107.27 23.585 107.312 23.683C107.354 23.781 107.375 23.8865 107.374 23.993C107.469 24.9218 107.485 25.8571 107.422 26.7886C107.311 27.2176 108.521 29.5842 108.039 30.6446C107.557 31.705 102.636 38.4386 102.636 38.4386L100.997 35.9804Z" fill="white" stroke="#263238" stroke-width="0.482" stroke-linecap="round" stroke-linejoin="round"/>
<path d="M107.374 24.745C107.374 24.745 105.846 26.9526 105.86 27.155C105.883 27.342 105.918 27.5273 105.966 27.7093" stroke="#263238" stroke-width="0.482" stroke-linecap="round" stroke-linejoin="round"/>
<path d="M107.075 23.4387L105.041 26.4464L105.036 27.4249" stroke="#263238" stroke-width="0.482" stroke-linecap="round" stroke-linejoin="round"/>
<path d="M108.603 55.7665C108.603 55.7665 108.121 68.6407 107.417 73.6005C106.714 78.5603 105.88 81.4233 104.202 83.9394C102.525 86.4554 97.0785 88.9666 97.0785 88.9666C97.0785 88.9666 100.988 75.4706 101.759 71.7882C102.53 68.1057 102.525 60.3117 102.525 60.3117C100.135 58.4328 98.0248 56.2222 96.2591 53.7469C93.4683 49.7656 91.2029 45.6541 91.3234 45.0709C91.4439 44.4877 102.409 33.9174 102.409 33.9174L104.66 36.954L98.5583 46.2566C98.5583 46.2566 104.275 52.9034 104.689 53.2504C105.104 53.5975 106.719 53.8144 108.603 55.7665Z" fill="#FFA500" stroke="#263238" stroke-width="0.482" stroke-linecap="round" stroke-linejoin="round"/>
<path d="M108.271 55.4387V55.4869C108.271 55.4869 105.967 59.7478 105.967 63.7291C105.967 66.0186 106.661 73.3691 107.249 74.8151C107.312 74.4151 107.374 74.0102 107.437 73.5812C108.131 68.6262 108.623 55.7472 108.623 55.7472C108.492 55.6508 108.396 55.5399 108.271 55.4387Z" fill="#FFA500" stroke="#263238" stroke-width="0.482" stroke-linecap="round" stroke-linejoin="round"/>
<path d="M125.034 35.8599L119.867 31.1604L120.981 27.3044C120.981 27.3044 119.448 24.8606 119.308 24.5811C119.168 24.3015 118.609 23.4628 118.609 23.4628C118.502 23.4631 118.396 23.4856 118.298 23.5287C118.201 23.5719 118.113 23.6348 118.04 23.7136C117.968 23.7923 117.912 23.8852 117.878 23.9864C117.843 24.0876 117.829 24.1949 117.838 24.3015C117.803 25.2357 117.85 26.1711 117.978 27.0971C118.117 27.5164 117.072 29.9602 117.631 31.0061C118.19 32.0521 123.564 38.4097 123.564 38.4097L125.034 35.8599Z" fill="white" stroke="#263238" stroke-width="0.482" stroke-linecap="round" stroke-linejoin="round"/>
<path d="M117.911 25.1064C117.911 25.1064 119.588 27.1983 119.588 27.4104C119.578 27.5984 119.554 27.7853 119.516 27.9695" stroke="#263238" stroke-width="0.482" stroke-linecap="round" stroke-linejoin="round"/>
<path d="M118.118 23.7762L120.355 26.6441L120.422 27.6177" stroke="#263238" stroke-width="0.482" stroke-linecap="round" stroke-linejoin="round"/>
<path d="M117.997 55.7665C117.997 55.7665 118.479 68.6407 119.183 73.6005C119.887 78.5603 120.72 81.4233 122.398 83.9394C124.075 86.4554 129.522 88.9666 129.522 88.9666C129.522 88.9666 125.608 75.4706 124.841 71.7882C124.075 68.1057 124.07 60.3117 124.07 60.3117C126.462 58.4342 128.572 56.2234 130.336 53.7469C133.132 49.7656 136.554 45.1046 136.347 44.5455C136.14 43.9864 123.815 34.2548 123.815 34.2548L122.065 37.6288L128.105 46.7868C128.105 46.7868 122.321 52.9323 121.887 53.2794C121.453 53.6264 119.882 53.8144 117.997 55.7665Z" fill="#FFA500" stroke="#263238" stroke-width="0.482" stroke-linecap="round" stroke-linejoin="round"/>
<path d="M105.022 55.834C104.438 58.1765 102.525 60.3069 102.525 60.3069C102.525 60.3069 103.706 57.5884 103.412 55.2459" stroke="#263238" stroke-width="0.482" stroke-linecap="round" stroke-linejoin="round"/>
<path d="M120.836 55.2604C121.765 57.0384 122.847 58.7319 124.071 60.3214C124.071 60.3214 122.596 54.9712 122.596 54.2386" stroke="#263238" stroke-width="0.482" stroke-linecap="round" stroke-linejoin="round"/>
<path d="M118.325 55.4387V55.4869C118.325 55.4869 120.629 59.7478 120.629 63.7291C120.629 66.0186 119.94 73.3691 119.347 74.8151C119.284 74.4151 119.226 74.0102 119.164 73.5812C118.465 68.6262 117.978 55.7472 117.978 55.7472C118.108 55.6508 118.219 55.5399 118.325 55.4387Z" fill="#FFA500" stroke="#263238" stroke-width="0.482" stroke-linecap="round" stroke-linejoin="round"/>
<path d="M108.531 47.9437C108.531 47.9437 107.138 45.9193 106.926 47.6641C106.714 49.409 108.372 50.667 108.372 50.667L108.531 47.9437Z" fill="white" stroke="#263238" stroke-width="0.482" stroke-linecap="round" stroke-linejoin="round"/>
<path d="M117.964 47.5484C117.964 47.5484 119.15 46.3627 119.497 47.7557C119.844 49.1487 118.051 50.4115 118.051 50.4115L117.964 47.5484Z" fill="white" stroke="#263238" stroke-width="0.482" stroke-linecap="round" stroke-linejoin="round"/>
<path d="M111.64 41.0655C111.64 41.0655 111.327 42.8441 110.068 43.2634C109.417 43.4329 108.833 43.7979 108.396 44.3093C108.396 44.3093 108.189 50.3874 108.608 51.014C109.027 51.6406 111.77 54.2964 113.144 54.2964C114.517 54.2964 117.785 51.8478 117.891 51.2212C117.997 50.5946 117.824 44.7239 117.718 44.3045C117.612 43.8852 116.272 43.2586 115.096 43.2586C113.92 43.2586 113.004 42.0006 112.792 41.5812C112.58 41.1619 111.64 41.0655 111.64 41.0655Z" fill="white" stroke="#263238" stroke-width="0.482" stroke-linecap="round" stroke-linejoin="round"/>
<path d="M112.546 46.0591C112.822 46.2854 113.156 46.4306 113.51 46.4784C113.664 46.4639 113.812 46.4126 113.942 46.3287C114.072 46.2448 114.18 46.1308 114.257 45.9964" stroke="#263238" stroke-width="0.482" stroke-linecap="round" stroke-linejoin="round"/>
<path d="M110.468 44.0588C110.516 43.9039 110.6 43.7629 110.714 43.6476C110.828 43.5323 110.968 43.4462 111.122 43.3965C111.276 43.3469 111.44 43.3351 111.6 43.3623C111.76 43.3895 111.91 43.4548 112.04 43.5527" stroke="#263238" stroke-width="0.482" stroke-linecap="round" stroke-linejoin="round"/>
<path d="M114.373 43.6008C114.373 43.6008 115.491 42.738 116.354 44.2081" stroke="#263238" stroke-width="0.482" stroke-linecap="round" stroke-linejoin="round"/>
<path d="M111.558 48.0304C111.558 48.0304 113.968 49.4764 115.539 47.5098" stroke="#263238" stroke-width="0.482" stroke-linecap="round" stroke-linejoin="round"/>
<path d="M111.606 44.5166C111.606 44.8058 111.442 45.042 111.24 45.042C111.037 45.042 110.874 44.8058 110.874 44.5166C110.874 44.2274 111.037 43.996 111.24 43.996C111.442 43.996 111.606 44.2274 111.606 44.5166Z" fill="#263238"/>
<path d="M115.481 44.5648C115.481 44.854 115.317 45.0902 115.115 45.0902C114.912 45.0902 114.749 44.854 114.749 44.5648C114.749 44.2756 114.912 44.0394 115.115 44.0394C115.317 44.0394 115.481 44.2756 115.481 44.5648Z" fill="#263238"/>
<path d="M41.7107 109.341L34.4614 114.281L40.2261 138.791L57.7854 135.562L57.9589 109.89L49.1094 108.112L41.7107 109.341Z" fill="white" stroke="#263238" stroke-width="0.482" stroke-linecap="round" stroke-linejoin="round"/>
<path d="M45.7549 113.963L48.001 116.937L48.3673 132.877L51.2063 137.287L53.3319 130.554L49.0614 116.894L50.1266 113.525L47.7696 111.225L45.7549 113.963Z" fill="#FFA500" stroke="#263238" stroke-width="0.482" stroke-linecap="round" stroke-linejoin="round"/>
<path d="M48.2663 113.597L45.2056 116.913L40.7856 109.51L42.9595 107.292L47.7554 107.5L51.8283 109.601L52.0452 115.043L48.2663 113.597Z" fill="white" stroke="#263238" stroke-width="0.482" stroke-linecap="round" stroke-linejoin="round"/>
<path d="M50.3964 93.6999C50.3964 93.6999 52.3244 95.6279 52.4931 96.2738C52.591 96.8435 52.6153 97.4235 52.5654 97.9994L54.8839 99.5032L53.4764 100.891C53.4764 100.891 54.826 104.694 54.0452 105.123C53.2643 105.552 49.5915 106.497 49.5915 106.497L48.266 113.582L42.9977 108.208L42.3615 105.191C42.3615 105.191 38.9875 101.07 39.4695 99.055C39.9515 97.0402 41.5325 94.0518 44.8149 92.9914C48.0973 91.931 48.2901 92.3311 48.2901 92.3311L50.3964 93.6999Z" fill="#CCCCCC" stroke="#263238" stroke-width="0.482" stroke-linecap="round" stroke-linejoin="round"/>
<path d="M43.9526 102.202C43.9526 102.202 45.9288 101.72 45.8806 100.795C45.8324 99.8696 44.4828 99.1225 45.5191 98.4139C46.5554 97.7054 47.6061 97.4017 47.5869 96.8667C47.5676 96.3317 46.6229 95.8449 47.2543 95.2857C47.8857 94.7266 50.3825 93.7 50.3825 93.7C50.3825 93.7 49.3365 90.808 45.4757 90.7019C41.6149 90.5959 38.0818 95.387 38.3373 98.4139C38.5927 101.441 41.9426 105.451 42.7524 105.687C43.5622 105.923 43.9526 102.202 43.9526 102.202Z" fill="#263238" stroke="#263238" stroke-width="0.482" stroke-linecap="round" stroke-linejoin="round"/>
<path d="M44.7718 102.834C44.7718 102.834 43.5041 101.022 42.5016 102.525C41.499 104.029 43.8174 105.533 45.0128 105.485C46.2081 105.437 46.4588 104.892 46.4588 104.892" fill="#CCCCCC"/>
<path d="M44.7718 102.834C44.7718 102.834 43.5041 101.022 42.5016 102.525C41.499 104.029 43.8174 105.533 45.0128 105.485C46.2081 105.437 46.4588 104.892 46.4588 104.892" stroke="#263238" stroke-width="0.482" stroke-linecap="round" stroke-linejoin="round"/>
<path d="M51.24 98.1199C51.24 98.5248 51.0906 98.8573 50.8689 98.867C50.6472 98.8766 50.4592 98.5537 50.4447 98.1536C50.4303 97.7536 50.5942 97.4162 50.8111 97.4065C51.028 97.3969 51.2256 97.715 51.24 98.1199Z" fill="#263238"/>
<path d="M49.3267 96.7992C49.3267 96.7992 50.469 95.4255 51.6885 96.0425" stroke="#263238" stroke-width="0.482" stroke-linecap="round" stroke-linejoin="round"/>
<path d="M31.5506 143.703L32.7797 144.912L34.2835 145.64L35.3005 149.043L34.2353 149.381L33.5171 148.624L32.8568 149.337L33.7437 151.858C33.7437 151.858 34.939 152.205 34.9487 152.499C34.9583 152.793 34.1967 153.415 34.1967 153.415L32.7941 152.784L28.9381 152.345L27.8247 151.603L29.0345 145.086L31.5506 143.703Z" fill="#CCCCCC" stroke="#263238" stroke-width="0.482" stroke-linecap="round" stroke-linejoin="round"/>
<path d="M32.7939 152.803L31.4058 150.552" stroke="#263238" stroke-width="0.482" stroke-linecap="round" stroke-linejoin="round"/>
<path d="M30.9526 152.6L30.0127 150.393" stroke="#263238" stroke-width="0.482" stroke-linecap="round" stroke-linejoin="round"/>
<path d="M28.9426 152.364L28.6245 150.451" stroke="#263238" stroke-width="0.482" stroke-linecap="round" stroke-linejoin="round"/>
<path d="M34.4618 114.281L25.082 129.151L28.5139 145.24L32.206 144.43L32.4036 129.392L37.0886 123.488L34.4618 114.281Z" fill="white" stroke="#263238" stroke-width="0.482" stroke-linecap="round" stroke-linejoin="round"/>
<path d="M76.3765 106.073L76.5548 103.952C76.4608 103.248 76.4608 102.535 76.5548 101.831C76.7394 101.1 76.9762 100.383 77.2633 99.6864C77.5043 99.0839 77.8225 98.7224 78.1743 99.3201C78.5262 99.9178 78.3768 101.031 78.3768 101.031C78.4812 100.464 78.6835 99.9193 78.9744 99.4213C79.3504 98.9393 80.594 98.5633 81.8375 98.1826C83.0811 97.8018 82.5123 98.4862 82.3195 98.8236C82.1267 99.161 80.9651 99.7394 80.9651 99.7394C80.9651 99.7394 82.7919 99.0694 83.3173 98.9152C83.8426 98.761 84.6572 99.3972 84.0788 99.7491C83.4929 100.047 82.8816 100.292 82.252 100.482C82.9132 100.639 83.5586 100.857 84.18 101.132C84.7199 101.441 84.4789 102.048 84.1511 102.058C83.7052 102.036 83.2611 101.987 82.8208 101.913C82.8208 101.913 83.7077 102.607 83.5245 103.012C83.3414 103.417 81.6688 102.887 81.6688 102.887C81.5106 103.554 81.1683 104.164 80.6807 104.646C80.1462 105.107 79.5627 105.508 78.9407 105.842L77.4224 107.62L76.3765 106.073Z" fill="#CCCCCC" stroke="#263238" stroke-width="0.482" stroke-linecap="round" stroke-linejoin="round"/>
<path d="M80.9507 99.7394L81.5146 102.164" stroke="#263238" stroke-width="0.482" stroke-linecap="round" stroke-linejoin="round"/>
<path d="M78.3571 101.05L78.2559 101.851C78.2559 101.851 79.3404 102.535 79.1861 103.6" fill="#CCCCCC"/>
<path d="M78.3571 101.05L78.2559 101.851C78.2559 101.851 79.3404 102.535 79.1861 103.6" stroke="#263238" stroke-width="0.482" stroke-linecap="round" stroke-linejoin="round"/>
<path d="M57.959 109.89L66.2156 116.875L76.3569 105.61L78.4777 107.476L68.1051 124.244L57.9734 120.258L57.959 109.89Z" fill="white" stroke="#263238" stroke-width="0.482" stroke-linecap="round" stroke-linejoin="round"/>
<path d="M40.2262 138.791L41.4842 161.638L31.8442 187.386L35.8641 188.832L50.6085 161.358L52.763 149.111L65.9795 151.328L58.2193 169.552L61.4728 170.651C61.4728 170.651 77.8367 145.954 78.1211 145.939C78.4054 145.925 58.3591 137.866 58.3591 137.866L57.7855 135.562L40.2262 138.791Z" fill="#263238" stroke="#263238" stroke-width="0.482" stroke-linecap="round" stroke-linejoin="round"/>
<path d="M61.4588 170.651L62.9916 173.697C62.9916 173.697 64.5195 174.179 65.0979 174.464C65.6763 174.748 65.9607 174.806 66.2595 175.264C66.455 175.608 66.5673 175.992 66.5873 176.387L58.9621 176.691L55.5254 173.244C54.4457 172.155 58.2053 169.552 58.2053 169.552L61.4588 170.651Z" fill="white" stroke="#263238" stroke-width="0.482" stroke-linecap="round" stroke-linejoin="round"/>
<path d="M31.854 187.386C31.854 187.386 31.9311 189.271 31.9986 190.963C32.0661 192.655 34.1483 195.214 35.4112 196.11C36.674 197.007 37.8212 197.147 37.4307 194.804C37.0317 192.783 36.5119 190.787 35.8739 188.827C35.8739 188.827 32.2396 187.275 31.854 187.386Z" fill="white" stroke="#263238" stroke-width="0.482" stroke-linecap="round" stroke-linejoin="round"/>
<path d="M139.196 144.392H83.4619V176.238H139.196V144.392Z" fill="#DBDBDB" stroke="#263238" stroke-width="0.482" stroke-linecap="round" stroke-linejoin="round"/>
<path d="M171.875 175.404H50.7725V207.249H171.875V175.404Z" fill="#ADADAD" stroke="#263238" stroke-width="0.482" stroke-linecap="round" stroke-linejoin="round"/>
<path d="M207.673 197.123H14.9795V228.968H207.673V197.123Z" fill="#919191" stroke="#263238" stroke-width="0.482" stroke-linecap="round" stroke-linejoin="round"/>
<path d="M111.346 147.91L113.944 153.174L119.752 154.017L115.549 158.114L116.542 163.898L111.346 161.17L106.15 163.898L107.143 158.114L102.944 154.017L108.748 153.174L111.346 147.91Z" fill="#FFA500" stroke="#263238" stroke-width="0.482" stroke-linecap="round" stroke-linejoin="round"/>
<path d="M67.7484 176.753L70.3463 182.012L76.1544 182.855L71.9514 186.952L72.9443 192.736L67.7484 190.008L62.5524 192.736L63.5453 186.952L59.3423 182.855L65.1504 182.012L67.7484 176.753Z" fill="#FFA500" stroke="#263238" stroke-width="0.482" stroke-linecap="round" stroke-linejoin="round"/>
<path d="M155.796 176.753L158.394 182.012L164.197 182.855L159.999 186.952L160.987 192.736L155.796 190.008L150.6 192.736L151.593 186.952L147.39 182.855L153.198 182.012L155.796 176.753Z" fill="#FFA500" stroke="#263238" stroke-width="0.482" stroke-linecap="round" stroke-linejoin="round"/>
<path d="M0.5 228.973H223.039" stroke="#263238" stroke-width="0.482" stroke-linecap="round" stroke-linejoin="round"/>
</g>
<defs>
<clipPath id="clip0_453_7005">
<rect width="223" height="233" fill="white" transform="translate(0.5)"/>
</clipPath>
</defs>
</svg>
