<svg width="268" height="155" viewBox="0 0 268 155" fill="none" xmlns="http://www.w3.org/2000/svg">
<g clip-path="url(#clip0_453_9198)">
<path d="M251.329 4.94962C246.784 5.63042 241.234 7.52562 238.769 7.98562C225.791 10.3972 212.788 12.528 199.761 14.3778C178.579 17.3733 157.301 19.7432 136.049 20.1959C104.419 20.8951 73.3896 13.6271 42.1501 9.80722C34.7202 8.90194 12.3899 3.37826 8.66207 15.6474C3.81183 31.5634 4.01055 50.6773 3.46959 67.3109C2.89551 85.0522 2.33983 102.775 2.17423 120.494C2.11535 126.563 2.57535 132.797 4.82015 138.103C7.63167 144.745 12.8536 147.597 18.6864 148.529C29.2406 150.207 39.9752 149.677 50.6325 149.265C65.0434 148.698 79.4506 147.358 93.8394 145.934C118.749 143.469 144.079 139.31 169.014 140.212C186.52 140.852 203.739 144.315 220.902 147.785C227.858 149.191 234.684 151.366 241.731 152.179C247.443 152.834 256.164 153.471 260.867 148.109C264.809 143.601 264.967 133.087 265.46 127.199C266.538 114.525 266.674 101.756 266.601 89.0707C266.461 65.3016 266.181 40.5757 262.615 17.2776C261.412 9.36562 258.468 3.88241 251.329 4.94962Z" fill="#407BFF"/>
<path opacity="0.7" d="M251.329 4.94962C246.784 5.63042 241.234 7.52562 238.769 7.98562C225.791 10.3972 212.788 12.528 199.761 14.3778C178.579 17.3733 157.301 19.7432 136.049 20.1959C104.419 20.8951 73.3896 13.6271 42.1501 9.80722C34.7202 8.90194 12.3899 3.37826 8.66207 15.6474C3.81183 31.5634 4.01055 50.6773 3.46959 67.3109C2.89551 85.0522 2.33983 102.775 2.17423 120.494C2.11535 126.563 2.57535 132.797 4.82015 138.103C7.63167 144.745 12.8536 147.597 18.6864 148.529C29.2406 150.207 39.9752 149.677 50.6325 149.265C65.0434 148.698 79.4506 147.358 93.8394 145.934C118.749 143.469 144.079 139.31 169.014 140.212C186.52 140.852 203.739 144.315 220.902 147.785C227.858 149.191 234.684 151.366 241.731 152.179C247.443 152.834 256.164 153.471 260.867 148.109C264.809 143.601 264.967 133.087 265.46 127.199C266.538 114.525 266.674 101.756 266.601 89.0707C266.461 65.3016 266.181 40.5757 262.615 17.2776C261.412 9.36562 258.468 3.88241 251.329 4.94962Z" fill="white"/>
<path opacity="0.18" d="M134.666 154.361C205.566 154.361 263.043 152.768 263.043 150.803C263.043 148.837 205.566 147.244 134.666 147.244C63.7653 147.244 6.28906 148.837 6.28906 150.803C6.28906 152.768 63.7653 154.361 134.666 154.361Z" fill="black"/>
<g opacity="0.2">
<path d="M52.3364 89.9466C53.8341 89.5234 56.4874 87.2528 56.4874 87.2492C56.4874 87.2455 54.4597 85.9575 54.3236 85.8912C52.7154 85.1368 49.1716 84.6253 47.81 86.0789C47.5911 86.3267 47.427 86.6178 47.3281 86.9333C47.2292 87.2487 47.1978 87.5815 47.236 87.9098C47.2742 88.2382 47.381 88.5549 47.5497 88.8392C47.7183 89.1236 47.9449 89.3692 48.2148 89.5602C49.3335 90.3992 51.0594 90.3036 52.3364 89.9466Z" fill="black"/>
<path d="M59.6744 97.0232C60.955 96.2541 62.7913 93.5788 62.9385 93.3653C64.4676 94.4208 66.0659 95.3724 67.7225 96.2136C68.683 96.7104 69.6656 97.1815 70.6665 97.6378C70.1844 97.498 69.7502 97.3728 69.6876 97.3618C67.936 97.06 64.3774 97.5016 63.4537 99.2644C63.3085 99.5611 63.2274 99.8851 63.2157 100.215C63.204 100.545 63.2621 100.874 63.386 101.181C63.51 101.487 63.6971 101.763 63.9351 101.993C64.1731 102.222 64.4567 102.398 64.7675 102.51C66.0665 103.033 67.7115 102.481 68.8412 101.796C69.971 101.112 71.6086 98.8522 72.0281 98.256C72.3961 98.429 72.7899 98.6056 73.1726 98.7749C75.0126 99.5919 76.8526 100.401 78.619 101.248C79.2446 101.546 79.8481 101.866 80.459 102.179C80.0321 102.054 79.6678 101.951 79.6089 101.943C77.8609 101.638 74.3024 102.083 73.3787 103.842C73.2333 104.139 73.1521 104.463 73.1402 104.792C73.1283 105.122 73.186 105.451 73.3096 105.757C73.4332 106.064 73.6198 106.34 73.8575 106.57C74.0951 106.799 74.3783 106.976 74.6888 107.088C75.9915 107.614 77.6328 107.059 78.7662 106.374C79.8996 105.69 81.3753 103.655 81.8758 102.941C82.4867 103.283 83.1012 103.625 83.679 103.982C84.047 104.236 84.4592 104.453 84.8345 104.718L85.9569 105.509C86.6561 106.036 87.3774 106.577 88.0435 107.11C88.5072 107.478 88.9451 107.846 89.3867 108.196C88.7684 107.89 87.5467 107.32 87.4326 107.283C85.7508 106.72 82.1665 106.617 80.9852 108.218C80.7966 108.489 80.6673 108.797 80.6056 109.122C80.544 109.446 80.5514 109.78 80.6274 110.102C80.7035 110.423 80.8464 110.725 81.0469 110.988C81.2474 111.25 81.501 111.467 81.7912 111.625C82.9982 112.339 84.702 112.041 85.9275 111.537C87.278 110.981 89.4235 108.722 89.6884 108.439C90.4244 109.035 91.12 109.624 91.775 110.19C93.2212 111.434 94.4835 112.579 95.5359 113.565L96.5443 112.737C95.4403 111.74 94.0897 110.566 92.5331 109.289C91.7971 108.678 90.9985 108.041 90.1705 107.397C90.6531 106.519 91.0844 105.613 91.4622 104.685C92.9342 104.891 95.7825 104.24 96.1468 104.151C96.4265 105.053 96.6878 105.929 96.9233 106.761C97.4164 108.505 97.8176 110.073 98.1451 111.427L99.2491 110.536C98.9216 109.311 98.5131 107.934 98.0678 106.429C97.7881 105.513 97.4716 104.541 97.1404 103.548C97.479 103.371 100.239 101.914 101.141 100.758C101.954 99.7133 102.705 98.1567 102.34 96.7988C102.266 96.4768 102.125 96.1741 101.926 95.9103C101.727 95.6466 101.475 95.4277 101.185 95.268C100.896 95.1083 100.577 95.0113 100.247 94.9834C99.9182 94.9555 99.5868 94.9972 99.2748 95.106C97.4164 95.8088 96.5479 99.2901 96.6363 101.06C96.6363 101.167 96.824 102.297 96.9528 103.003C96.8129 102.598 96.6841 102.205 96.5369 101.789C96.2499 100.961 95.9408 100.148 95.6096 99.268C95.4329 98.8522 95.2416 98.429 95.0796 98.0021C94.9177 97.5752 94.6822 97.1447 94.4798 96.7104C93.9977 95.7168 93.4604 94.7306 92.8937 93.7664C93.6297 93.5125 96.1652 92.5778 97.1368 91.6652C98.1083 90.7525 99.0761 89.3284 98.9252 87.9336C98.9007 87.6039 98.8071 87.283 98.6503 86.9919C98.4936 86.7008 98.2773 86.4459 98.0156 86.2438C97.7539 86.0418 97.4525 85.8971 97.1312 85.8193C96.8098 85.7414 96.4757 85.7321 96.1505 85.7919C94.2075 86.2077 92.8201 89.516 92.6398 91.2824C92.6398 91.3928 92.6398 92.6735 92.6619 93.3764C92.3196 92.7912 91.9774 92.2024 91.6094 91.621C90.5495 89.9429 89.4272 88.2722 88.2974 86.6052C87.9552 86.0936 87.6203 85.5784 87.2854 85.0669C87.543 84.9786 90.5974 83.9335 91.683 82.9104C92.6472 82.0015 93.6224 80.5736 93.4715 79.1789C93.4465 78.8495 93.3525 78.529 93.1955 78.2383C93.0386 77.9476 92.8223 77.6932 92.5606 77.4916C92.2989 77.2899 91.9977 77.1456 91.6766 77.0679C91.3555 76.9903 91.0217 76.981 90.6968 77.0408C88.7537 77.453 87.3848 80.7613 87.186 82.5277C87.186 82.6602 87.186 84.5039 87.2228 84.9749C86.4868 83.8452 85.7508 82.7117 85.0811 81.5672C84.165 80.0271 83.35 78.4291 82.6412 76.7832C82.7627 76.7428 85.9532 75.6792 87.0572 74.6157C88.0214 73.7068 88.9966 72.2789 88.8457 70.8842C88.8207 70.5548 88.7267 70.2343 88.5698 69.9436C88.4128 69.6529 88.1965 69.3985 87.9348 69.1968C87.6731 68.9952 87.372 68.8509 87.0508 68.7732C86.7297 68.6956 86.3959 68.6863 86.071 68.7461C84.128 69.162 82.7406 72.4666 82.5603 74.233C82.5603 74.3728 82.5603 76.3564 82.6008 76.717C82.5603 76.6213 82.5051 76.5256 82.4683 76.43C81.8029 74.7619 81.2881 73.0377 80.93 71.278C80.7166 70.3064 80.562 69.368 80.448 68.448C81.0625 68.3082 83.8704 67.6421 84.9744 66.8068C86.0784 65.9714 87.1603 64.6981 87.1603 63.2924C87.172 62.9623 87.1141 62.6336 86.9903 62.3274C86.8665 62.0213 86.6796 61.7446 86.4418 61.5155C86.204 61.2864 85.9206 61.1099 85.6101 60.9976C85.2995 60.8852 84.9688 60.8396 84.6395 60.8636C82.6633 61.0623 80.919 64.1976 80.5473 65.9309C80.5252 66.0266 80.4259 67.0092 80.3633 67.7268C80.3155 67.3109 80.2566 66.884 80.2198 66.4866C80.0689 64.9888 80.0211 63.6088 79.9916 62.3871C79.9916 61.6916 79.9916 61.066 79.9916 60.4772C80.5216 60.0245 82.6449 58.1772 83.23 56.948C83.8152 55.7189 84.1979 54.0703 83.5539 52.8228C83.4117 52.5249 83.2086 52.2603 82.9576 52.046C82.7066 51.8318 82.4134 51.6726 82.097 51.5789C81.7805 51.4853 81.4479 51.4591 81.1207 51.5022C80.7936 51.5453 80.4791 51.6567 80.1977 51.8292C78.5307 52.9148 78.4313 56.4991 78.8987 58.214C78.9392 58.3612 79.8408 60.6023 79.8665 60.5802L79.8996 60.5508C79.8776 61.1175 79.8628 61.7247 79.8592 62.3908C79.8592 63.6162 79.8592 64.9999 79.9953 66.505C80.106 68.1285 80.3099 69.7442 80.6062 71.3442C80.932 73.1376 81.4159 74.8986 82.0524 76.6066L82.0782 76.6655C81.7102 76.2092 80.6651 74.9653 80.5731 74.877C79.2814 73.6589 76.0688 72.0655 74.3171 73.037C74.0322 73.204 73.7857 73.4291 73.5936 73.6977C73.4016 73.9663 73.2682 74.2723 73.2022 74.5959C73.1363 74.9194 73.1392 75.2532 73.2108 75.5756C73.2824 75.8979 73.4211 76.2016 73.6179 76.4668C74.4164 77.6223 76.0872 78.0639 77.412 78.1191C78.906 78.1853 81.9126 76.9709 82.1518 76.8716C82.8426 78.593 83.6478 80.2662 84.5622 81.88C85.0884 82.8221 85.6662 83.7568 86.2219 84.6879C85.898 84.3199 85.6036 83.9519 85.5595 83.9151C84.2678 82.697 81.0552 81.1036 79.3035 82.0751C79.0189 82.2424 78.7728 82.4677 78.581 82.7365C78.3893 83.0052 78.2563 83.3113 78.1907 83.6348C78.1251 83.9583 78.1284 84.2921 78.2002 84.6143C78.2721 84.9364 78.411 85.2399 78.608 85.5048C79.4065 86.6604 81.0772 87.102 82.402 87.1572C83.7268 87.2124 86.3323 86.2335 87.0094 85.9612C87.2339 86.3292 87.4547 86.6751 87.6792 87.0247C88.7574 88.7212 89.843 90.4066 90.855 92.0957C91.223 92.6882 91.5432 93.288 91.878 93.8842C91.5873 93.5456 91.3408 93.2586 91.3003 93.2181C90.0086 92 86.796 90.4066 85.0443 91.3781C84.7597 91.5454 84.5136 91.7708 84.3218 92.0395C84.1301 92.3082 83.9971 92.6143 83.9315 92.9379C83.8659 93.2614 83.8692 93.5951 83.941 93.9173C84.0129 94.2395 84.1518 94.5429 84.3488 94.8079C85.1436 95.9634 86.818 96.405 88.1428 96.4602C89.4676 96.5154 91.8228 95.6285 92.6288 95.312C92.9526 95.934 93.2728 96.5596 93.5598 97.1741C93.7438 97.601 93.9499 97.9984 94.1118 98.4364L94.6123 99.717C94.903 100.541 95.2048 101.388 95.466 102.201C95.6537 102.764 95.834 103.305 95.9886 103.846C95.6427 103.25 94.9324 102.098 94.8625 102.006C93.8577 100.81 92.5627 99.893 91.1016 99.3416C90.9912 99.2073 90.8679 99.084 90.7336 98.9736C90.4946 98.7456 90.2102 98.5706 89.899 98.46C89.5878 98.3494 89.2568 98.3056 88.9275 98.3317C88.5983 98.3577 88.2782 98.453 87.9883 98.6111C87.6983 98.7693 87.445 98.9869 87.2449 99.2496C86.082 100.861 87.2744 104.243 88.3268 105.675C88.3894 105.76 89.1659 106.599 89.6627 107.121C89.3241 106.86 88.9966 106.599 88.6433 106.334C87.9515 105.804 87.2412 105.296 86.4832 104.748L85.3424 103.982C84.9744 103.717 84.5364 103.485 84.1316 103.246C83.1785 102.683 82.1849 102.142 81.1876 101.653C81.6513 101.042 83.2632 98.8559 83.5686 97.5605C83.874 96.2652 83.8961 94.5392 82.9982 93.461C82.7961 93.1997 82.5411 92.9839 82.25 92.8277C81.959 92.6715 81.6382 92.5784 81.3087 92.5544C80.9792 92.5305 80.6484 92.5762 80.3378 92.6887C80.0271 92.8011 79.7437 92.9778 79.5059 93.2071C78.1148 94.6239 78.7699 98.1493 79.6052 99.7207C79.6568 99.82 80.3744 100.88 80.7792 101.458C80.172 101.156 79.5611 100.854 78.9392 100.571C77.1286 99.7538 75.2592 98.9847 73.4192 98.2082L71.7264 97.4722C71.892 97.2588 73.8644 94.7012 74.2067 93.2476C74.5084 91.9559 74.5342 90.2263 73.6363 89.148C73.4341 88.8867 73.1792 88.6709 72.8881 88.5147C72.597 88.3585 72.2763 88.2654 71.9468 88.2415C71.6173 88.2175 71.2865 88.2633 70.9758 88.3757C70.6652 88.4882 70.3818 88.6648 70.144 88.8941C68.7529 90.3109 69.408 93.8364 70.2433 95.4077C70.3059 95.5255 71.3473 97.0527 71.6233 97.428C70.3832 96.8944 69.1504 96.3535 67.9433 95.7684C66.3288 94.9881 64.7665 94.1043 63.266 93.1224C63.3433 93.0194 65.4152 90.3624 65.7648 88.872C66.0665 87.5804 66.0923 85.8544 65.1944 84.7725C64.9919 84.5117 64.7368 84.2964 64.4457 84.1405C64.1547 83.9846 63.8341 83.8917 63.5047 83.8678C63.1754 83.8438 62.8448 83.8894 62.5342 84.0015C62.2236 84.1136 61.9401 84.2898 61.702 84.5186C60.311 85.9391 60.966 89.4608 61.8014 91.0322C61.8676 91.1573 62.9827 92.7986 63.2035 93.082C63.1188 93.0231 63.0232 92.9752 62.9348 92.9164C61.4581 91.8888 60.0762 90.7311 58.8059 89.4572C58.092 88.7653 57.4516 88.0624 56.8444 87.3632C57.2787 86.9069 59.2512 84.7872 59.7148 83.4992C60.1785 82.2112 60.3736 80.5332 59.6008 79.3629C59.4282 79.0812 59.1983 78.839 58.9261 78.6519C58.6538 78.4648 58.3452 78.3371 58.0204 78.277C57.6955 78.217 57.3617 78.226 57.0405 78.3034C56.7194 78.3808 56.4181 78.5249 56.1563 78.7263C54.6144 79.9812 54.8904 83.5581 55.538 85.2104C55.5748 85.3024 56.0312 86.1746 56.3734 86.8076C56.1048 86.4874 55.8214 86.1636 55.5675 85.8544C54.618 84.6879 53.8195 83.5618 53.1203 82.5608C52.7265 81.9868 52.3843 81.4568 52.0678 80.9637C52.2592 80.294 53.0136 77.5818 52.8259 76.2349C52.6382 74.888 52.042 73.2909 50.8166 72.6175C50.5338 72.4467 50.2182 72.3374 49.8904 72.2967C49.5625 72.256 49.2298 72.2849 48.9138 72.3814C48.5979 72.4779 48.3058 72.6399 48.0566 72.8569C47.8075 73.0738 47.6069 73.3409 47.4678 73.6405C46.6803 75.4805 48.5718 78.5092 49.9076 79.6794C50.0217 79.7824 52.0089 81.1514 52.02 81.1183C52.0214 81.1048 52.0214 81.0913 52.02 81.0778C52.318 81.5636 52.6382 82.0788 53.0025 82.6308C53.6796 83.6538 54.4745 84.7983 55.3872 85.9869C56.3726 87.2749 57.433 88.5037 58.563 89.6669C59.8325 90.9628 61.2142 92.1438 62.692 93.196L62.7472 93.2328C62.1952 93.0488 60.6312 92.5925 60.506 92.5704C58.758 92.2687 55.1995 92.7103 54.2758 94.473C54.1305 94.7695 54.0492 95.0932 54.0373 95.4232C54.0254 95.7532 54.0831 96.082 54.2067 96.3882C54.3303 96.6944 54.517 96.9711 54.7546 97.2003C54.9922 97.4296 55.2755 97.6062 55.5859 97.7188C56.8996 98.2413 58.5372 97.6893 59.6744 97.0232Z" fill="black"/>
<path d="M80.1389 68.1757C80.172 68.1757 79.16 65.9677 79.0791 65.85C78.1554 64.3338 75.4763 61.9492 73.5591 62.4129C73.2402 62.4988 72.9431 62.651 72.6869 62.8595C72.4308 63.0679 72.2215 63.328 72.0725 63.6227C71.9236 63.9175 71.8384 64.2403 71.8225 64.5701C71.8067 64.9 71.8604 65.2295 71.9803 65.5372C72.444 66.862 73.9381 67.7452 75.204 68.1353C76.676 68.61 80.1352 68.1757 80.1389 68.1757Z" fill="black"/>
</g>
<g opacity="0.2">
<path d="M199.927 71.5797C200.365 72.8198 202.433 74.9285 202.433 74.9322C202.433 74.9358 203.412 73.1474 203.459 73.0259C204.004 71.6275 204.236 68.6099 202.933 67.5427C202.712 67.3725 202.457 67.2508 202.186 67.1854C201.915 67.12 201.633 67.1124 201.358 67.163C201.084 67.2137 200.823 67.3215 200.593 67.4795C200.363 67.6374 200.168 67.8421 200.022 68.08C199.367 69.0736 199.551 70.5272 199.927 71.5797Z" fill="black"/>
<path d="M194.381 78.1669C195.117 79.2083 197.461 80.6067 197.653 80.7171C196.847 82.0639 196.133 83.4629 195.515 84.905C195.147 85.744 194.812 86.5977 194.48 87.4625C194.572 87.0467 194.65 86.6714 194.657 86.6198C194.815 85.1258 194.241 82.1486 192.703 81.4678C192.444 81.3618 192.166 81.3113 191.887 81.3197C191.608 81.3282 191.333 81.3953 191.082 81.5168C190.83 81.6383 190.607 81.8114 190.426 82.0249C190.246 82.2384 190.113 82.4874 190.035 82.7558C189.667 83.8856 190.226 85.2362 190.867 86.1562C191.507 87.0762 193.505 88.3237 194.035 88.6438C193.91 88.9787 193.785 89.3062 193.667 89.6411C193.078 91.2346 192.501 92.828 191.882 94.3736C191.665 94.9182 191.433 95.4482 191.202 95.9781C191.283 95.6101 191.349 95.2973 191.356 95.2421C191.511 93.748 190.937 90.7709 189.398 90.0901C189.14 89.984 188.862 89.9336 188.583 89.942C188.304 89.9505 188.03 90.0177 187.779 90.1392C187.527 90.2607 187.304 90.4339 187.124 90.6473C186.944 90.8608 186.811 91.1098 186.734 91.3781C186.366 92.5078 186.925 93.8584 187.566 94.7784C188.206 95.6984 190.009 96.8245 190.639 97.2072C190.385 97.7445 190.131 98.2817 189.862 98.7896C189.667 99.1318 189.494 99.4741 189.295 99.8053L188.692 100.799C188.287 101.417 187.871 102.057 187.459 102.639C187.176 103.055 186.896 103.445 186.62 103.835C186.841 103.298 187.253 102.23 187.279 102.138C187.647 100.685 187.544 97.6525 186.127 96.7472C185.887 96.6037 185.62 96.5122 185.343 96.4787C185.066 96.4451 184.784 96.4703 184.518 96.5526C184.251 96.6348 184.004 96.7723 183.794 96.9561C183.583 97.1399 183.414 97.3659 183.297 97.6193C182.76 98.6792 183.109 100.1 183.602 101.104C184.147 102.208 186.178 103.897 186.429 104.107C185.965 104.755 185.509 105.38 185.071 105.947C184.099 107.239 183.205 108.365 182.432 109.307L183.187 110.113C183.967 109.119 184.879 107.905 185.873 106.536C186.344 105.877 186.837 105.167 187.345 104.435C188.113 104.792 188.9 105.105 189.704 105.373C189.612 106.639 190.326 108.994 190.418 109.296C189.682 109.583 188.946 109.852 188.258 110.098C186.819 110.61 185.512 111.04 184.39 111.39L185.203 112.258C186.219 111.912 187.36 111.522 188.603 111.033C189.339 110.746 190.164 110.422 190.984 110.087C191.15 110.363 192.537 112.612 193.56 113.304C194.488 113.933 195.846 114.477 196.972 114.098C197.239 114.017 197.486 113.881 197.698 113.698C197.909 113.515 198.079 113.29 198.197 113.037C198.316 112.784 198.379 112.509 198.384 112.229C198.39 111.95 198.336 111.673 198.227 111.416C197.527 109.885 194.547 109.348 193.053 109.52C192.964 109.52 192.022 109.752 191.43 109.888C191.765 109.749 192.092 109.616 192.434 109.469C193.115 109.178 193.785 108.873 194.506 108.542L195.54 108.063C195.908 107.898 196.239 107.695 196.593 107.485C197.406 107.022 198.208 106.51 199.003 105.98C199.257 106.573 200.188 108.674 201.016 109.44C201.844 110.205 203.095 110.948 204.266 110.739C204.542 110.7 204.807 110.603 205.044 110.454C205.281 110.306 205.483 110.11 205.639 109.878C205.794 109.646 205.899 109.384 205.947 109.108C205.994 108.833 205.983 108.551 205.914 108.28C205.454 106.661 202.602 105.679 201.086 105.623C200.994 105.623 199.912 105.704 199.32 105.76C199.794 105.439 200.269 105.119 200.74 104.773C202.098 103.787 203.445 102.742 204.788 101.708C205.2 101.391 205.616 101.082 206.028 100.769C206.117 100.979 207.173 103.5 208.096 104.357C208.917 105.123 210.179 105.866 211.346 105.656C211.622 105.618 211.888 105.521 212.124 105.372C212.361 105.224 212.564 105.027 212.719 104.796C212.875 104.564 212.98 104.301 213.027 104.026C213.075 103.751 213.063 103.469 212.995 103.198C212.538 101.579 209.683 100.596 208.166 100.541C208.056 100.541 206.499 100.659 206.106 100.711C207.015 100.022 207.946 99.3453 208.858 98.7123C210.108 97.8525 211.412 97.0744 212.763 96.3829C212.803 96.4822 213.892 99.1171 214.838 99.9966C215.663 100.758 216.921 101.502 218.091 101.296C218.368 101.256 218.633 101.159 218.87 101.01C219.107 100.862 219.309 100.665 219.465 100.432C219.62 100.2 219.725 99.9378 219.773 99.6624C219.82 99.387 219.809 99.1046 219.74 98.8338C219.28 97.2182 216.428 96.232 214.912 96.1805C214.794 96.1805 213.12 96.3093 212.818 96.3534C212.895 96.3129 212.972 96.2651 213.053 96.2246C214.426 95.5702 215.855 95.0394 217.322 94.6385C218.132 94.4067 218.916 94.2264 219.681 94.0718C219.836 94.5834 220.557 96.9128 221.322 97.7997C222.088 98.6865 223.225 99.5256 224.41 99.4483C224.689 99.4396 224.963 99.3722 225.215 99.2506C225.466 99.129 225.689 98.9558 225.869 98.7424C226.049 98.5289 226.183 98.28 226.26 98.0117C226.338 97.7434 226.358 97.4618 226.32 97.1851C226.04 95.5254 223.299 94.2411 221.812 94.013C221.731 94.013 220.895 93.9725 220.288 93.9614C220.634 93.8952 220.995 93.8216 221.326 93.7664C222.581 93.5566 223.744 93.4426 224.774 93.3469C225.359 93.299 225.878 93.2659 226.386 93.2402C226.798 93.6634 228.476 95.3525 229.543 95.7793C230.611 96.2062 232.027 96.4307 233.043 95.8162C233.287 95.6801 233.5 95.4941 233.667 95.2703C233.835 95.0465 233.953 94.7899 234.014 94.5173C234.076 94.2447 234.079 93.9622 234.024 93.6882C233.969 93.4142 233.857 93.155 233.695 92.9273C232.683 91.5841 229.647 91.7019 228.233 92.1913C228.112 92.2355 226.272 93.1187 226.29 93.1408L226.316 93.1665C225.838 93.1665 225.326 93.2034 224.763 93.2402C223.729 93.3101 222.555 93.4021 221.3 93.5861C219.937 93.7688 218.585 94.0317 217.252 94.3736C215.756 94.7474 214.297 95.2549 212.891 95.8898L212.836 95.9192C213.204 95.5917 214.194 94.6312 214.26 94.5502C215.217 93.391 216.38 90.5906 215.471 89.1738C215.314 88.9412 215.11 88.7445 214.871 88.5967C214.633 88.4488 214.366 88.3531 214.088 88.3159C213.809 88.2787 213.527 88.3009 213.258 88.3808C212.989 88.4608 212.74 88.5969 212.527 88.78C211.596 89.516 211.32 90.9512 211.346 92.0736C211.375 93.3395 212.568 95.8088 212.663 96.0038C211.25 96.6829 209.884 97.4562 208.575 98.3185C207.809 98.8153 207.051 99.3416 206.301 99.8789C206.606 99.5808 206.878 99.3158 206.911 99.2753C207.868 98.1161 209.031 95.3157 208.126 93.8989C207.968 93.667 207.764 93.4709 207.526 93.3234C207.287 93.1758 207.02 93.0802 206.743 93.0427C206.465 93.0052 206.182 93.0267 205.913 93.1057C205.644 93.1848 205.395 93.3196 205.182 93.5014C204.251 94.2374 203.975 95.6763 204.001 96.8134C204.026 97.9505 205.002 100.078 205.27 100.633L204.409 101.259C203.04 102.267 201.679 103.276 200.31 104.225C199.827 104.56 199.342 104.873 198.856 105.185C199.128 104.924 199.356 104.7 199.386 104.663C200.343 103.504 201.506 100.703 200.6 99.2864C200.443 99.0543 200.238 98.8581 200 98.7106C199.761 98.5631 199.494 98.4676 199.216 98.4304C198.939 98.3932 198.656 98.4152 198.387 98.4949C198.118 98.5745 197.869 98.7101 197.656 98.8926C196.725 99.6286 196.449 101.064 196.475 102.186C196.501 103.309 197.384 105.241 197.697 105.907C197.189 106.216 196.681 106.521 196.177 106.797C195.827 106.978 195.503 107.165 195.143 107.335L194.094 107.831C193.413 108.118 192.714 108.424 192.044 108.689C191.581 108.88 191.132 109.057 190.683 109.226C191.168 108.895 192.099 108.236 192.155 108.17C193.105 107.258 193.807 106.118 194.193 104.858C194.304 104.761 194.405 104.654 194.495 104.538C194.676 104.323 194.809 104.072 194.886 103.801C194.963 103.531 194.981 103.247 194.941 102.969C194.9 102.691 194.801 102.425 194.65 102.188C194.499 101.951 194.299 101.748 194.065 101.594C192.637 100.703 189.851 101.899 188.703 102.871C188.637 102.926 187.967 103.629 187.558 104.078C187.761 103.776 187.959 103.489 188.166 103.176C188.57 102.558 188.96 101.932 189.384 101.259C189.575 100.928 189.752 100.593 189.965 100.254C190.179 99.9157 190.333 99.5477 190.524 99.1907C190.948 98.3554 191.334 97.4869 191.706 96.6147C192.243 96.9827 194.179 98.2081 195.29 98.3885C196.401 98.5688 197.866 98.4989 198.72 97.6819C198.928 97.4952 199.094 97.2668 199.208 97.0116C199.322 96.7564 199.38 96.4801 199.38 96.2007C199.38 95.9213 199.322 95.645 199.208 95.3898C199.094 95.1346 198.928 94.9062 198.72 94.7195C197.443 93.6155 194.506 94.3846 193.226 95.1685C193.148 95.2163 192.291 95.8824 191.827 96.2725C192.048 95.7389 192.269 95.2089 192.471 94.6643C193.06 93.0893 193.605 91.4811 194.157 89.8803C194.326 89.3909 194.499 88.9014 194.672 88.4083C194.863 88.5371 197.13 90.0569 198.378 90.2483C199.482 90.4323 200.954 90.355 201.804 89.5381C202.009 89.3515 202.172 89.1242 202.284 88.8707C202.396 88.6173 202.454 88.3432 202.454 88.0661C202.454 87.789 202.396 87.5149 202.284 87.2614C202.172 87.0079 202.009 86.7807 201.804 86.5941C200.527 85.4901 197.594 86.2592 196.309 87.043C196.214 87.1056 194.985 88.0624 194.683 88.3237C195.051 87.2454 195.452 86.1746 195.879 85.1368C196.446 83.73 197.105 82.3618 197.851 81.041C197.94 81.0998 200.299 82.6969 201.575 82.9104C202.679 83.0907 204.151 83.0171 205.002 82.2002C205.211 82.0151 205.379 81.7878 205.495 81.5333C205.611 81.2788 205.671 81.0027 205.673 80.7231C205.675 80.4435 205.618 80.1666 205.505 79.9107C205.393 79.6547 205.227 79.4254 205.02 79.2378C203.747 78.1338 200.81 78.9029 199.529 79.6867C199.43 79.7493 198.105 80.7907 197.881 80.9858C197.921 80.9085 197.958 80.8238 198.006 80.7502C198.79 79.4467 199.687 78.2152 200.689 77.0702C201.233 76.4299 201.793 75.8485 202.348 75.2965C202.757 75.6387 204.645 77.1843 205.771 77.5045C206.897 77.8246 208.31 77.8946 209.256 77.177C209.483 77.0152 209.675 76.8073 209.817 76.5668C209.959 76.3264 210.05 76.0587 210.082 75.7811C210.114 75.5036 210.088 75.2223 210.004 74.9556C209.921 74.6889 209.783 74.4427 209.598 74.233C208.453 73.0038 205.451 73.4381 204.078 74.0784C204.004 74.1115 203.294 74.5494 202.779 74.8733C203.033 74.6267 203.29 74.3691 203.541 74.1373C204.468 73.2725 205.381 72.5328 206.179 71.8888C206.643 71.5208 207.066 71.2043 207.467 70.9099C208.045 71.035 210.374 71.5171 211.515 71.2779C212.656 71.0387 213.948 70.4536 214.459 69.379C214.588 69.1311 214.662 68.8588 214.678 68.5801C214.694 68.3013 214.652 68.0223 214.553 67.7612C214.454 67.5001 214.301 67.2628 214.104 67.0647C213.907 66.8666 213.671 66.7123 213.41 66.6117C211.824 66.0486 209.362 67.8187 208.45 69.011C208.372 69.1141 207.324 70.8694 207.346 70.8731H207.379C206.989 71.1491 206.573 71.4472 206.124 71.7857C205.303 72.415 204.38 73.1363 203.427 73.9938C202.391 74.8995 201.408 75.864 200.483 76.8826C199.443 78.0237 198.507 79.2553 197.686 80.5625C197.676 80.5777 197.667 80.5937 197.66 80.6104C197.781 80.1357 198.079 78.7888 198.091 78.6821C198.249 77.188 197.675 74.2109 196.136 73.5301C195.878 73.424 195.6 73.3735 195.321 73.382C195.041 73.3904 194.767 73.4576 194.515 73.5791C194.264 73.7005 194.04 73.8737 193.86 74.0871C193.68 74.3006 193.546 74.5497 193.468 74.8181C193.181 75.8963 193.741 77.2469 194.381 78.1669Z" fill="black"/>
<path d="M219.861 93.818C219.861 93.8474 221.661 92.8685 221.768 92.7912C222.993 91.9264 224.855 89.5344 224.344 87.9263C224.253 87.6621 224.107 87.4201 223.917 87.2158C223.726 87.0115 223.495 86.8497 223.238 86.7407C222.98 86.6317 222.703 86.578 222.424 86.5832C222.145 86.5884 221.87 86.6523 221.617 86.7708C220.513 87.2381 219.88 88.5482 219.607 89.6375C219.302 90.9144 219.861 93.8143 219.861 93.818Z" fill="black"/>
</g>
<path d="M241.238 39.0264H236.554V69.3386H241.238V39.0264Z" stroke="#263238" stroke-width="0.368" stroke-linejoin="round"/>
<path d="M247.855 57.213H243.17V69.3386H247.855V57.213Z" stroke="#263238" stroke-width="0.368" stroke-linejoin="round"/>
<path d="M254.468 48.6716H249.783V69.3385H254.468V48.6716Z" stroke="#263238" stroke-width="0.368" stroke-linejoin="round"/>
<path d="M261.081 63.2776H256.396V69.3385H261.081V63.2776Z" stroke="#263238" stroke-width="0.368" stroke-linejoin="round"/>
<path d="M233.249 39.5784H230.217" stroke="#263238" stroke-width="0.368" stroke-linejoin="round"/>
<path d="M233.249 44.5281H230.217" stroke="#263238" stroke-width="0.368" stroke-linejoin="round"/>
<path d="M233.249 49.4813H230.217" stroke="#263238" stroke-width="0.368" stroke-linejoin="round"/>
<path d="M233.249 54.4309H230.217" stroke="#263238" stroke-width="0.368" stroke-linejoin="round"/>
<path d="M233.249 59.3842H230.217" stroke="#263238" stroke-width="0.368" stroke-linejoin="round"/>
<path d="M233.249 64.3375H230.217" stroke="#263238" stroke-width="0.368" stroke-linejoin="round"/>
<path d="M233.249 69.2871H230.217" stroke="#263238" stroke-width="0.368" stroke-linejoin="round"/>
<path d="M247.182 98.6461C253.435 98.6461 258.505 93.5765 258.505 87.3228C258.505 81.069 253.435 75.9994 247.182 75.9994C240.928 75.9994 235.858 81.069 235.858 87.3228C235.858 93.5765 240.928 98.6461 247.182 98.6461Z" stroke="#263238" stroke-width="0.368" stroke-linejoin="round"/>
<path d="M247.182 76.0031V87.3227L257.71 91.805" stroke="#263238" stroke-width="0.368" stroke-linejoin="round"/>
<path d="M247.182 87.3227L254.781 95.4923" stroke="#263238" stroke-width="0.368" stroke-linejoin="round"/>
<path d="M163.484 86.4249L172.724 87.6982L174.932 77.9572L166.358 75.1935V75.1162C166.366 71.9681 165.74 68.8505 164.518 65.9494L170.976 59.8038L164.746 51.9911L157.555 56.7751C154.99 54.7054 152.017 53.2006 148.83 52.3591L148.094 43.7737H138.095L137.359 52.2377C134.144 53.0102 131.128 54.4536 128.509 56.4734L121.285 51.6894L115.048 59.4873L121.37 65.5041C120.061 68.4306 119.366 71.5942 119.327 74.7998L110.746 77.5634L112.954 87.3044L122.01 86.0569C123.437 88.77 125.381 91.1778 127.732 93.1446L124.42 101.94L133.425 106.275L138.235 98.1788C141.17 98.7619 144.188 98.7818 147.13 98.2377L152.006 106.444L161.007 102.109L157.695 93.3506C160.052 91.4361 162.018 89.0845 163.484 86.4249ZM124.796 75.1162C124.791 71.5445 125.847 68.0518 127.828 65.0799C129.809 62.108 132.627 59.7906 135.926 58.4207C139.224 57.0509 142.855 56.6902 146.359 57.3843C149.862 58.0784 153.081 59.7962 155.608 62.3202C158.135 64.8442 159.857 68.0611 160.555 71.5639C161.254 75.0666 160.898 78.6978 159.532 81.998C158.166 85.2983 155.852 88.1193 152.883 90.104C149.913 92.0888 146.422 93.1482 142.85 93.1482C138.065 93.1492 133.476 91.2504 130.09 87.8692C126.705 84.488 124.801 79.901 124.796 75.1162Z" stroke="#263238" stroke-width="0.368" stroke-linejoin="round"/>
<path d="M208.504 37.312C212.893 32.923 212.893 25.8071 208.504 21.4181C204.115 17.0291 196.999 17.0291 192.61 21.4181C188.221 25.8071 188.221 32.923 192.61 37.312C196.999 41.701 204.115 41.701 208.504 37.312Z" stroke="#263238" stroke-width="0.368" stroke-linejoin="round"/>
<path d="M200.556 39.1441C205.958 39.1441 210.337 34.7648 210.337 29.3627C210.337 23.9605 205.958 19.5812 200.556 19.5812C195.154 19.5812 190.774 23.9605 190.774 29.3627C190.774 34.7648 195.154 39.1441 200.556 39.1441Z" stroke="#263238" stroke-width="0.368" stroke-linejoin="round"/>
<path d="M197.582 32.0454L200.556 29.3627L194.999 24.3064" stroke="#263238" stroke-width="0.368" stroke-linejoin="round"/>
<path d="M184.971 32.8956C179.365 27.2966 172.708 22.8604 165.382 19.8417C158.057 16.823 150.207 15.2813 142.283 15.3052C141.179 15.3052 140.075 15.342 138.953 15.4008L137.849 10.6757L126.441 27.0333L143.932 36.6308L143.052 32.8624C154.307 33.0634 165.033 37.6735 172.923 45.701C180.814 53.7285 185.238 64.5322 185.246 75.7883C185.253 87.0444 180.842 97.8538 172.962 105.891C165.082 113.929 154.362 118.553 143.108 118.768H142.298H21.7266V136.315H142.287C142.67 136.315 143.049 136.315 143.424 136.315C155.305 136.085 166.854 132.363 176.634 125.614C186.414 118.865 193.991 109.387 198.421 98.3609C202.851 87.335 203.938 75.2491 201.546 63.6097C199.155 51.9703 193.39 41.2923 184.971 32.9066V32.8956Z" fill="#407BFF" stroke="#263238" stroke-width="0.368" stroke-linecap="round" stroke-linejoin="round"/>
<path d="M227.766 127.162L212.921 113.837V118.389H190.359C189.581 119.268 188.779 120.126 187.952 120.965C181.803 127.275 174.487 132.329 166.41 135.847L166.336 135.921H212.921V140.477L227.766 127.162Z" fill="#263238" stroke="#263238" stroke-width="0.368" stroke-linecap="round" stroke-linejoin="round"/>
<path d="M99.2824 75.7676C99.2941 66.2095 102.495 56.9288 108.379 49.3961C114.262 41.8634 122.491 36.5098 131.762 34.1836L122.047 28.2956L130.86 16.7735C103.117 22.069 82.0821 46.5042 82.0821 75.7676C82.0691 89.7897 86.985 103.37 95.9704 114.135H123.063C115.925 110.582 109.919 105.109 105.718 98.3318C101.518 91.5546 99.2892 83.7409 99.2824 75.7676Z" fill="#263238" stroke="#263238" stroke-width="0.368" stroke-linecap="round" stroke-linejoin="round"/>
<path d="M226.29 26.875C225.612 20.8093 222.869 15.1614 218.52 10.8786C214.172 6.59583 208.483 3.93884 202.407 3.35335C196.332 2.76787 190.24 4.28953 185.154 7.66304C180.068 11.0366 176.296 16.0567 174.472 21.8812C176.96 23.332 179.344 24.9539 181.608 26.7352C182.142 23.5813 183.485 20.6198 185.505 18.1396C187.526 15.6594 190.154 13.7452 193.135 12.5838C196.115 11.4223 199.346 11.0533 202.512 11.5126C205.677 11.972 208.67 13.2441 211.198 15.2047C213.725 17.1654 215.701 19.7478 216.933 22.6999C218.165 25.652 218.611 28.873 218.227 32.0487C217.843 35.2245 216.643 38.2465 214.743 40.8199C212.843 43.3934 210.308 45.4304 207.386 46.7323L205.656 42.9934L200.78 53.8936L212.244 57.235L210.772 54.0812C215.904 51.771 220.171 47.8926 222.959 43.004C225.748 38.1154 226.914 32.4683 226.29 26.875Z" fill="#263238"/>
<path d="M246.928 143.778C255.425 143.778 262.314 136.889 262.314 128.392C262.314 119.894 255.425 113.005 246.928 113.005C238.43 113.005 231.542 119.894 231.542 128.392C231.542 136.889 238.43 143.778 246.928 143.778Z" fill="#263238" stroke="#263238" stroke-width="0.368" stroke-linecap="round" stroke-linejoin="round"/>
<path d="M248.528 135.873L239.66 134.007V124.112L248.528 125.977V135.873Z" fill="#407BFF" stroke="#263238" stroke-width="0.368" stroke-linecap="round" stroke-linejoin="round"/>
<path d="M255.502 124.34L257.11 127.994L255.344 127.508L255.502 124.34Z" fill="#407BFF" stroke="#263238" stroke-width="0.368" stroke-linecap="round" stroke-linejoin="round"/>
<path d="M248.528 125.977L255.502 124.34V133.455L248.528 135.873V125.977Z" fill="#407BFF" stroke="#263238" stroke-width="0.368" stroke-linecap="round" stroke-linejoin="round"/>
<path d="M255.502 124.34L247.41 122.172L239.66 124.112L248.528 125.977L255.502 124.34Z" fill="#407BFF" stroke="#263238" stroke-width="0.368" stroke-linecap="round" stroke-linejoin="round"/>
<path d="M239.66 124.112L236.9 128.966L246.059 130.975L248.529 125.977L239.66 124.112Z" fill="#407BFF" stroke="#263238" stroke-width="0.368" stroke-linecap="round" stroke-linejoin="round"/>
<path d="M247.41 122.172V125.609" stroke="#263238" stroke-width="0.368" stroke-linecap="round" stroke-linejoin="round"/>
<path d="M239.328 120.181L241.886 122.434" stroke="white" stroke-width="0.368" stroke-linecap="round" stroke-linejoin="round"/>
<path d="M255.83 120.181L253.272 122.434" stroke="white" stroke-width="0.368" stroke-linecap="round" stroke-linejoin="round"/>
<path d="M247.446 117.359V120.888" stroke="white" stroke-width="0.368" stroke-linecap="round" stroke-linejoin="round"/>
<path d="M131.048 75.5504C131.048 75.5504 128.064 74.233 125.962 75.7234C123.861 77.2138 124.207 78.005 124.207 78.005C124.207 78.005 122.367 76.7758 121.487 77.8283C120.608 78.8808 121.664 79.407 121.576 79.7566C121.487 80.1062 120.35 80.0216 120.612 80.8091C120.873 81.5966 121.841 82.0382 121.841 82.0382C121.841 82.0382 121.138 82.7411 121.752 83.2637C122.367 83.7862 122.628 84.1432 122.455 84.4045C122.282 84.6658 121.487 84.7725 122.087 85.284C122.687 85.7955 123.754 85.8949 123.754 85.284C123.754 84.6731 123.386 84.3162 123.754 83.7899C124.122 83.2637 125.179 82.6859 124.991 83.2821C124.803 83.8782 126.209 86.9621 126.209 86.9621C126.209 86.9621 125.962 86.9032 125.123 87.768C124.284 88.6328 124.895 88.9787 124.719 89.24C124.542 89.5013 123.489 89.1517 123.405 89.7662C123.328 90.1459 123.357 90.5392 123.489 90.9034C123.578 91.1683 132.785 91.8712 133.4 91.7829C134.014 91.6946 135.416 91.5179 135.678 91.08C135.939 90.6421 135.328 89.1517 134.978 88.8021C134.629 88.4525 135.416 87.9226 135.151 87.3117C134.886 86.7008 133.006 85.8654 133.006 85.8654C133.299 85.5021 133.546 85.1041 133.742 84.6805C133.83 84.3125 132.638 83.3851 132.638 83.3851C132.638 83.3851 134.629 81.961 134.364 80.0326C134.099 78.1043 133.488 77.4898 133.488 77.4898C133.488 77.4898 132.539 75.3738 131.048 75.5504Z" fill="#263238" stroke="#263238" stroke-width="0.368" stroke-linecap="round" stroke-linejoin="round"/>
<path d="M115.813 103.592C117.719 102.12 121.745 95.4298 121.745 95.4298C121.745 95.4298 122.231 98.8448 122.798 100.475C123.364 102.105 124.13 103.173 123.938 105.049C123.938 105.049 123.92 104.759 123.92 104.766L134.25 105.068C133.933 104.497 133.731 104.394 133.683 104.144C133.514 103.265 134.419 101.314 134.419 100.424C134.419 99.533 135.107 97.8476 135.107 97.8476C135.107 97.8476 138.084 104.449 138.769 105.005C139.453 105.561 141.367 105.87 141.253 103.798C141.139 101.726 137.665 93.7296 137.054 92.3386C136.443 90.9475 135.678 89.9834 134.202 90.1306C132.726 90.2778 132.384 90.528 131.379 90.5869C130.375 90.6458 130.816 85.8029 130.816 85.8029C130.312 86.2089 129.708 86.4744 129.068 86.5726C128.428 86.6709 127.773 86.5983 127.17 86.3623C127.17 86.3623 127.427 88.8978 126.997 89.6927C126.566 90.4875 126.345 90.7378 125.315 90.3808C124.284 90.0239 122.676 88.8058 121.694 89.2768C120.711 89.7479 113.818 101.211 113.278 102.175C112.91 102.823 111.96 104.483 112.247 104.928L115.813 103.592Z" fill="white" stroke="#263238" stroke-width="0.368" stroke-linecap="round" stroke-linejoin="round"/>
<path d="M123.939 105.049C123.939 104.95 123.939 104.858 123.957 104.766H123.92C123.92 104.766 123.939 105.053 123.939 105.049Z" fill="#407BFF" stroke="#263238" stroke-width="0.368" stroke-linecap="round" stroke-linejoin="round"/>
<path d="M121.701 89.2621C120.718 89.7295 113.818 101.211 113.278 102.19C112.91 102.838 111.96 104.497 112.247 104.943L115.813 103.592C117.719 102.12 121.745 95.4298 121.745 95.4298C121.745 95.4298 122.231 98.8448 122.798 100.475C123.335 102.021 124.049 103.051 123.957 104.766L134.261 105.068C133.944 104.497 133.742 104.394 133.694 104.144C133.525 103.265 134.43 101.314 134.43 100.424C134.43 99.533 135.118 97.8476 135.118 97.8476C135.118 97.8476 138.095 104.449 138.78 105.005C139.464 105.561 141.378 105.87 141.264 103.798C141.15 101.726 137.676 93.7296 137.065 92.3386C136.454 90.9476 135.689 89.9834 134.213 90.1306C133.687 90.1807 133.164 90.2655 132.649 90.3845L128.369 95.5917L125.326 90.3882C124.295 90.0055 122.676 88.7911 121.701 89.2621Z" fill="#263238" stroke="#263238" stroke-width="0.368" stroke-linecap="round" stroke-linejoin="round"/>
<path d="M124.053 104.254C124.053 104.254 118.603 108.961 118.481 113.399C118.437 114.937 118.732 118.375 121.356 118.735C123.979 119.096 135.638 118.735 135.638 118.735C135.638 118.735 136.543 118.463 137.088 115.386C137.632 112.31 133.647 104.435 133.647 104.435L124.053 104.254Z" fill="#263238" stroke="#263238" stroke-width="0.368" stroke-linecap="round" stroke-linejoin="round"/>
<path d="M128.053 106.128C127.7 106.583 127.319 107.015 126.912 107.423C126.761 107.482 126.581 107.964 126.25 108.685C125.918 109.406 126.007 109.469 126.401 109.289C126.794 109.108 127.181 108.295 127.181 108.295L127.935 107.813C127.935 107.813 128.686 105.918 128.053 106.128Z" fill="white" stroke="#263238" stroke-width="0.368" stroke-linecap="round" stroke-linejoin="round"/>
<path d="M138.254 102.823C138.254 102.823 137.323 104.081 135.159 105.031C132.995 105.98 130.898 105.704 129.713 105.767C128.528 105.829 128.351 105.553 127.847 106.503C127.343 107.452 127.792 110.054 128.038 110.22C128.285 110.385 128.311 109.189 128.311 109.189C128.311 109.189 128.528 110.341 128.874 110.363C129.22 110.385 129.326 109.381 129.326 109.381C129.326 109.381 129.632 110.091 129.911 109.995C130.191 109.9 130.136 109.141 130.136 109.141C130.136 109.141 130.474 109.59 130.644 109.348C130.813 109.105 130.408 107.614 130.408 107.614C130.408 107.614 131.943 107.864 132.502 107.673C132.844 107.552 133.144 107.333 133.363 107.044C134.863 107.049 136.361 106.959 137.849 106.775C139.546 106.499 141.897 104.733 141.353 103.644C140.808 102.554 139.008 102.304 139.008 102.304" fill="white"/>
<path d="M138.254 102.823C138.254 102.823 137.323 104.081 135.159 105.031C132.995 105.98 130.898 105.704 129.713 105.767C128.528 105.829 128.351 105.553 127.847 106.503C127.343 107.452 127.792 110.054 128.038 110.22C128.285 110.385 128.311 109.189 128.311 109.189C128.311 109.189 128.528 110.341 128.874 110.363C129.22 110.385 129.326 109.381 129.326 109.381C129.326 109.381 129.632 110.091 129.911 109.995C130.191 109.9 130.136 109.141 130.136 109.141C130.136 109.141 130.474 109.59 130.644 109.348C130.813 109.105 130.408 107.614 130.408 107.614C130.408 107.614 131.943 107.864 132.502 107.673C132.844 107.552 133.144 107.333 133.363 107.044C134.863 107.049 136.361 106.959 137.849 106.775C139.546 106.499 141.897 104.733 141.353 103.644C140.808 102.554 139.008 102.304 139.008 102.304" stroke="#263238" stroke-width="0.368" stroke-linecap="round" stroke-linejoin="round"/>
<path d="M130.136 109.145C130.136 109.145 129.576 107.548 129.797 106.908" stroke="#263238" stroke-width="0.368" stroke-linecap="round" stroke-linejoin="round"/>
<path d="M129.326 109.384C129.125 108.565 129.025 107.725 129.028 106.882" stroke="#263238" stroke-width="0.368" stroke-linecap="round" stroke-linejoin="round"/>
<path d="M128.31 109.193C128.31 109.193 128.034 107.496 128.218 107.121" stroke="#263238" stroke-width="0.368" stroke-linecap="round" stroke-linejoin="round"/>
<path d="M138.254 102.823C137.802 103.365 137.27 103.834 136.675 104.214C137.062 104.521 137.383 104.902 137.62 105.336C137.856 105.77 138.003 106.247 138.051 106.738C139.726 106.37 141.878 104.692 141.363 103.647C140.848 102.602 139.019 102.308 139.019 102.308" fill="#263238"/>
<path d="M138.254 102.823C137.802 103.365 137.27 103.834 136.675 104.214C137.062 104.521 137.383 104.902 137.62 105.336C137.856 105.77 138.003 106.247 138.051 106.738C139.726 106.37 141.878 104.692 141.363 103.647C140.848 102.602 139.019 102.308 139.019 102.308" stroke="#263238" stroke-width="0.368" stroke-linecap="round" stroke-linejoin="round"/>
<path d="M121.252 99.2938C121.681 99.1892 122.098 99.0438 122.499 98.8595C123.14 98.5651 123.603 97.9248 123.784 98.1713C123.964 98.4179 123.835 98.8669 123.464 99.1833C122.997 99.5097 122.505 99.7976 121.992 100.044C121.992 100.044 120.836 99.8163 121.252 99.2938Z" fill="white" stroke="#263238" stroke-width="0.368" stroke-linecap="round" stroke-linejoin="round"/>
<path d="M118.551 101.833C118.551 101.833 120.023 97.9321 120.689 97.9211C121.355 97.91 124.524 98.4694 124.369 98.7859C124.273 98.9341 124.136 99.0508 123.974 99.1215C123.813 99.1922 123.634 99.2137 123.46 99.1833C122.854 99.0812 122.254 98.9435 121.664 98.7711L121.248 99.2937C121.248 99.2937 122.72 99.7132 122.938 99.8199C123.155 99.9267 124.042 100.784 123.813 101.123C123.585 101.461 123.504 101.31 123.504 101.31C123.574 101.505 123.574 101.719 123.504 101.914C123.375 102.183 123.239 102.12 123.239 102.12C123.23 102.188 123.205 102.254 123.167 102.312C123.129 102.369 123.078 102.418 123.019 102.453C122.959 102.488 122.893 102.51 122.824 102.516C122.755 102.522 122.686 102.512 122.621 102.488C122.294 102.359 122.29 101.734 121.885 101.785C121.48 101.837 121.355 101.763 121.355 101.763C120.92 102.181 120.457 102.571 119.971 102.93C119.582 103.166 119.136 103.293 118.68 103.298C118.68 103.298 115.982 105.572 113.697 105.855C111.154 106.175 112.019 103.437 113.289 102.175C114.558 100.913 118.551 101.833 118.551 101.833Z" fill="white" stroke="#263238" stroke-width="0.368" stroke-linecap="round" stroke-linejoin="round"/>
<path d="M123.508 101.31C123.508 101.31 123.018 100.512 122.706 100.361C122.265 100.22 121.813 100.118 121.355 100.055" stroke="#263238" stroke-width="0.368" stroke-linecap="round" stroke-linejoin="round"/>
<path d="M123.232 102.12C123.232 102.12 122.496 101.016 122.249 101.016C122.003 101.016 121.252 100.88 121.252 100.88" stroke="#263238" stroke-width="0.368" stroke-linecap="round" stroke-linejoin="round"/>
<path d="M114.304 103.647C114.442 102.844 114.828 102.103 115.408 101.531C114.555 101.564 113.734 101.737 113.274 102.201C112.004 103.478 111.14 106.216 113.682 105.881C114.207 105.806 114.719 105.661 115.206 105.45C114.917 105.249 114.683 104.979 114.526 104.664C114.368 104.349 114.292 103.999 114.304 103.647Z" fill="#263238" stroke="#263238" stroke-width="0.368" stroke-linecap="round" stroke-linejoin="round"/>
<path d="M125.006 83.282C125.006 83.282 124.454 83.0281 124.454 83.6942C124.454 84.3603 124.553 84.7283 125.12 85.0963C125.686 85.4643 125.219 82.7963 125.219 82.7963L125.006 83.282Z" fill="white" stroke="#263238" stroke-width="0.368" stroke-linecap="round" stroke-linejoin="round"/>
<path d="M128.487 78.6232C128.487 78.6232 127.618 78.8293 127.611 79.4917C127.604 80.1541 127.699 80.3785 127.195 80.5957C126.691 80.8128 126.415 80.9637 126.492 81.4347C126.57 81.9058 126.776 82.0493 126.124 82.1707C125.473 82.2922 125.528 81.8505 125.388 82.4761C125.248 83.1017 125.226 83.2857 124.991 83.3225C124.755 83.3593 125.046 85.4165 125.613 86.6345C126.179 87.8526 127.508 89.6779 128.306 89.7846C129.105 89.8913 130.146 88.9272 130.846 88.0955C131.49 87.3595 132.439 85.0632 132.439 85.0632L132.642 84.8461C132.642 84.8461 133.01 84.8461 133.098 84.3493C133.098 84.3493 133.028 83.5801 132.638 83.4035C132.267 83.1902 131.98 82.8583 131.821 82.4614C131.788 82.2848 131.983 82.0125 131.722 81.8763C131.46 81.7401 131.019 81.6371 130.89 81.236C130.761 80.8349 131.203 80.224 130.684 80.0105C130.165 79.7971 129.896 79.9627 129.826 79.5542C129.756 79.1457 129.981 78.6857 129.591 78.5128C129.201 78.3398 128.487 78.6232 128.487 78.6232Z" fill="white" stroke="#263238" stroke-width="0.368" stroke-linecap="round" stroke-linejoin="round"/>
<path d="M127.95 84.2278C128.081 84.6528 128.07 85.1092 127.917 85.5269C127.652 86.0936 128.517 86.0936 128.686 85.6594" stroke="#263238" stroke-width="0.368" stroke-linecap="round" stroke-linejoin="round"/>
<path d="M132.149 83.4955C132.149 83.4955 132.848 82.5644 133.116 82.8956C133.385 83.2268 133.514 84.5296 133.116 84.9933C132.719 85.4569 131.983 85.1956 131.983 85.1956" fill="white"/>
<path d="M132.149 83.4955C132.149 83.4955 132.848 82.5644 133.116 82.8956C133.385 83.2268 133.514 84.5296 133.116 84.9933C132.719 85.4569 131.983 85.1956 131.983 85.1956" stroke="#263238" stroke-width="0.368" stroke-linecap="round" stroke-linejoin="round"/>
<path d="M127.343 84.0254C127.405 84.3934 127.343 84.7062 127.181 84.732C127.019 84.7577 126.86 84.4817 126.813 84.1174C126.765 83.7531 126.813 83.4366 126.975 83.4108C127.136 83.3851 127.28 83.6611 127.343 84.0254Z" fill="#263238"/>
<path d="M130.036 84.0622C130.036 84.4302 129.907 84.732 129.757 84.732C129.606 84.732 129.484 84.4265 129.488 84.0585C129.492 83.6905 129.617 83.3887 129.771 83.3924C129.926 83.3961 130.036 83.6942 130.036 84.0622Z" fill="#263238"/>
<path d="M127.497 86.837C127.497 86.837 128.064 87.5951 129.705 86.837" stroke="#263238" stroke-width="0.368" stroke-linecap="round" stroke-linejoin="round"/>
<path d="M129.834 111.114C129.381 111.18 128.951 111.357 128.583 111.629C126.893 112.862 127.328 115.655 127.269 117.517C127.195 119.84 127.12 122.163 127.044 124.483C126.934 127.898 126.882 131.328 126.676 134.74C126.507 137.352 125.348 138.46 125.911 141.242C126.474 144.024 127.931 143.41 128.715 140.845C129.499 138.28 128.844 136.248 128.752 135.119C128.678 134.239 132.719 120.903 133.804 114.879C134.191 112.615 131.876 110.801 129.834 111.114Z" fill="white" stroke="#263238" stroke-width="0.368" stroke-linecap="round" stroke-linejoin="round"/>
<path d="M129.043 139.045C128.998 139.053 128.955 139.071 128.918 139.098C128.881 139.124 128.85 139.159 128.829 139.2C128.439 139.851 127.136 140.893 126.548 139.851C125.959 138.81 126.548 136.333 126.548 136.333L126.378 136.51C126.01 138.026 125.48 139.167 125.896 141.227C126.456 144.006 127.916 143.395 128.7 140.83C128.877 140.249 128.992 139.65 129.043 139.045Z" fill="#263238" stroke="#263238" stroke-width="0.368" stroke-linecap="round" stroke-linejoin="round"/>
<path d="M123 110.904C123.458 110.887 123.912 110.982 124.325 111.18C126.213 112.082 126.301 114.904 126.699 116.7C127.189 118.969 127.691 121.239 128.204 123.508C128.94 126.842 129.628 130.202 130.474 133.514C131.122 136.053 131.994 138.044 131.946 140.874C131.898 143.704 130.356 143.384 129.116 141.003C127.876 138.622 128.612 135.391 128.494 134.261C128.402 133.385 121.97 121.013 119.791 115.291C118.996 113.186 120.936 110.974 123 110.904Z" fill="white" stroke="#263238" stroke-width="0.368" stroke-linecap="round" stroke-linejoin="round"/>
<path d="M131.692 138.077C131.692 138.151 131.67 138.35 131.629 138.876C131.567 139.722 131.044 140.697 129.937 140.374C128.829 140.05 128.505 137.702 128.505 137.702L128.406 137.912C128.42 138.99 128.672 140.051 129.142 141.021C130.382 143.402 131.931 143.73 131.972 140.892C131.979 140.277 131.943 139.663 131.865 139.052C131.824 138.791 131.791 138.559 131.766 138.383C131.732 138.28 131.71 138.177 131.692 138.077Z" fill="#263238" stroke="#263238" stroke-width="0.368" stroke-linecap="round" stroke-linejoin="round"/>
<path d="M135.475 99.901H117.741V110.919H135.475V99.901Z" fill="#BFBFBF" stroke="#263238" stroke-width="0.368" stroke-linecap="round" stroke-linejoin="round"/>
<path d="M135.475 110.665H117.741V111.302H135.475V110.665Z" fill="#BFBFBF" stroke="#263238" stroke-width="0.368" stroke-linecap="round" stroke-linejoin="round"/>
<path d="M126.154 82.995C126.326 82.873 126.523 82.7917 126.731 82.7572C126.939 82.7228 127.152 82.7362 127.353 82.7963" stroke="#263238" stroke-width="0.368" stroke-linecap="round" stroke-linejoin="round"/>
<path d="M128.984 82.697C128.984 82.697 130.018 82.5277 130.482 83.1275" stroke="#263238" stroke-width="0.368" stroke-linecap="round" stroke-linejoin="round"/>
<path d="M42.294 57.7245L40.8809 59.0971L41.0465 61.7578L43.4201 58.8064L42.294 57.7245Z" fill="white" stroke="#263238" stroke-width="0.368" stroke-linecap="round" stroke-linejoin="round"/>
<path d="M39.6148 36.1413C39.6148 36.1413 40.6342 38.1322 40.4391 39.1515C40.2441 40.1709 40.2441 41.0946 40.5863 41.6282C40.9286 42.1618 41.6057 42.4525 41.2634 42.8426C40.9637 43.1391 40.6198 43.3874 40.2441 43.5786C40.2441 43.5786 39.9534 44.8887 39.7105 45.713C39.4676 46.5373 39.5154 46.6845 38.6433 46.7802C38.1921 46.8405 37.7362 46.8577 37.2817 46.8317C36.9555 44.951 36.7295 43.0544 36.6046 41.1498C36.3138 37.4072 39.6148 36.1413 39.6148 36.1413Z" fill="white" stroke="#263238" stroke-width="0.368" stroke-linecap="round" stroke-linejoin="round"/>
<path d="M39.9865 40.8001C39.9865 41.1313 39.8982 41.3963 39.7915 41.3963C39.6847 41.3963 39.6001 41.1313 39.6001 40.8001C39.6001 40.4689 39.6884 40.204 39.7915 40.204C39.8945 40.204 39.9865 40.4726 39.9865 40.8001Z" fill="#263238"/>
<path d="M39.1772 39.7366C39.1772 39.7366 39.9132 38.5664 40.4395 39.1515" stroke="#263238" stroke-width="0.368" stroke-linecap="round" stroke-linejoin="round"/>
<path d="M39.9866 44.506C39.6569 44.4817 39.3501 44.3283 39.1328 44.0791" stroke="#263238" stroke-width="0.368" stroke-linecap="round" stroke-linejoin="round"/>
<path d="M48.1049 52.1272L54.4749 54.7621C54.543 54.7902 54.6037 54.8335 54.6526 54.8886C54.7014 54.9436 54.7371 55.0091 54.757 55.08C54.7768 55.1509 54.7803 55.2254 54.7672 55.2978C54.754 55.3702 54.7245 55.4387 54.681 55.4981L46.585 66.4571C46.5114 66.5554 46.4037 66.6223 46.283 66.6448C46.1624 66.6673 46.0377 66.6437 45.9337 66.5786L40.4578 63.101C40.4063 63.0682 40.362 63.0254 40.3275 62.9751C40.293 62.9248 40.269 62.8681 40.2569 62.8083C40.2449 62.7485 40.2451 62.6868 40.2575 62.6271C40.2699 62.5674 40.2942 62.5108 40.329 62.4607L47.5308 52.2928C47.5948 52.2057 47.6858 52.1422 47.7896 52.1123C47.8935 52.0823 48.0043 52.0876 48.1049 52.1272Z" fill="white" stroke="#263238" stroke-width="0.368" stroke-linecap="round" stroke-linejoin="round"/>
<path d="M47.8764 52.7749L54.1176 55.3546L46.3712 65.8499L41.0205 62.4533L47.8764 52.7749Z" fill="white" stroke="#263238" stroke-width="0.368" stroke-linecap="round" stroke-linejoin="round"/>
<path d="M42.1284 58.0962C42.1284 58.0962 43.0852 56.8892 43.3355 56.6831C43.5857 56.477 44.9583 55.8514 45.2086 55.5166C45.4588 55.1817 45.5398 56.1017 45.0835 56.3924C44.7515 56.6098 44.4321 56.8457 44.1267 57.099C44.0011 57.532 43.7562 57.9209 43.4201 58.2214C43.1439 58.4372 42.8093 58.5654 42.4596 58.5894" fill="white"/>
<path d="M42.1284 58.0962C42.1284 58.0962 43.0852 56.8892 43.3355 56.6831C43.5857 56.477 44.9583 55.8514 45.2086 55.5166C45.4588 55.1817 45.5398 56.1017 45.0835 56.3924C44.7515 56.6098 44.4321 56.8457 44.1267 57.099C44.0011 57.532 43.7562 57.9209 43.4201 58.2214C43.1439 58.4372 42.8093 58.5654 42.4596 58.5894" stroke="#263238" stroke-width="0.368" stroke-linecap="round" stroke-linejoin="round"/>
<path d="M48.4151 54.5329L48.2593 54.8744L51.1219 56.1802L51.2777 55.8387L48.4151 54.5329Z" fill="#407BFF"/>
<path d="M49.0577 56.2893L47.4863 58.4715L49.503 59.6013L51.2031 57.3675L49.0577 56.2893Z" fill="#407BFF"/>
<path d="M46.8758 55.0786L43.5527 59.8037L44.366 60.2601L47.7222 55.5349L46.8758 55.0786Z" fill="#407BFF"/>
<path d="M30.8746 66.873C30.8746 66.873 28.593 71.8263 28.6887 75.1272C28.7843 78.4282 30.4367 82.1192 30.6795 82.7485C30.9224 83.3778 32.0411 89.1075 31.7835 91.5363C31.5259 93.9651 29.8405 94.8483 28.9168 97.4243C27.9931 100 26.7346 107.813 26.5874 109.708C26.4402 111.603 25.8109 116.7 25.7152 117.329C25.6195 117.959 25.6159 118.64 26.0538 118.64H33.4138C33.4138 118.64 33.8995 118.592 33.8039 118.301C33.7082 118.01 32.6999 117.565 31.7651 116.7C30.8304 115.835 29.1891 114.757 29.0935 114.028C28.9978 113.3 29.7264 110.146 30.5029 108.347C31.0517 107.142 31.7264 105.998 32.5159 104.935C32.5159 104.935 36.1075 98.5762 36.9797 93.185C37.8519 87.7938 39.6035 78.9139 39.6035 78.9139V67.5538L30.8746 66.873Z" fill="#263238" stroke="#263238" stroke-width="0.368" stroke-linecap="round" stroke-linejoin="round"/>
<path d="M31.7987 116.685C30.875 115.81 29.2227 114.742 29.127 114.014C29.0645 113.535 29.3552 112.012 29.7857 110.514L26.5731 110.069C26.3817 112.185 25.8371 116.722 25.7304 117.315C25.6237 117.907 25.631 118.625 26.0689 118.625H33.4289C33.4289 118.625 33.9147 118.577 33.819 118.286C33.7233 117.996 32.7187 117.558 31.7987 116.685Z" fill="white" stroke="#263238" stroke-width="0.368" stroke-linecap="round" stroke-linejoin="round"/>
<path d="M31.7989 116.685C31.1953 116.115 30.2901 115.464 29.7013 114.875L29.359 115.828C29.359 115.828 27.0185 115.662 25.9513 115.592C25.8446 116.457 25.76 117.112 25.7305 117.315C25.6312 117.948 25.6312 118.625 26.0691 118.625H33.4291C33.4291 118.625 33.9149 118.577 33.8192 118.286C33.7235 117.996 32.7189 117.558 31.7989 116.685Z" fill="white" stroke="#263238" stroke-width="0.368" stroke-linecap="round" stroke-linejoin="round"/>
<path d="M30.9224 78.3325L32.1846 79.8854C32.1846 79.8854 33.1561 85.0374 33.4947 88.6217C33.8332 92.2061 33.594 92.2171 33.0089 95.128C32.4238 98.0389 31.651 99.5955 32.0889 102.021C32.5268 104.446 33.2518 116.391 33.3512 116.928C33.4505 117.466 33.2113 118.433 33.7449 118.625C34.2785 118.816 42.3304 118.625 42.3304 118.625C42.3304 118.625 42.9155 117.996 42.5732 117.705C42.231 117.414 39.5078 116.527 38.2934 115.567C37.079 114.606 36.5601 114.268 36.4534 113.683C36.3467 113.097 36.8214 104.644 37.7083 101.148C38.5952 97.6525 39.6035 91.5363 40.2843 88.4304C40.9651 85.3245 41.6459 81.5341 41.1601 74.4464C41.0313 72.5843 40.6265 71.7784 40.6265 71.4361C40.6265 71.0939 40.5272 67.7966 40.5787 67.6016C40.6302 67.4065 32.1846 66.9208 32.1846 66.9208" fill="#263238"/>
<path d="M30.9224 78.3325L32.1846 79.8854C32.1846 79.8854 33.1561 85.0374 33.4947 88.6217C33.8332 92.2061 33.594 92.2171 33.0089 95.128C32.4238 98.0389 31.651 99.5955 32.0889 102.021C32.5268 104.446 33.2518 116.391 33.3512 116.928C33.4505 117.466 33.2113 118.433 33.7449 118.625C34.2785 118.816 42.3304 118.625 42.3304 118.625C42.3304 118.625 42.9155 117.996 42.5732 117.705C42.231 117.414 39.5078 116.527 38.2934 115.567C37.079 114.606 36.5601 114.268 36.4534 113.683C36.3467 113.097 36.8214 104.644 37.7083 101.148C38.5952 97.6525 39.6035 91.5363 40.2843 88.4304C40.9651 85.3245 41.6459 81.5341 41.1601 74.4464C41.0313 72.5843 40.6265 71.7784 40.6265 71.4361C40.6265 71.0939 40.5272 67.7966 40.5787 67.6016C40.6302 67.4065 32.1846 66.9208 32.1846 66.9208" stroke="#263238" stroke-width="0.368" stroke-linecap="round" stroke-linejoin="round"/>
<path d="M36.5052 50.1253C36.5052 50.1253 41.2156 57.213 41.2156 59.156C41.2156 61.0991 41.7492 67.4066 41.0684 67.6973C40.3876 67.988 36.0709 68.1831 34.4186 67.9917C32.7663 67.8004 31.022 67.4544 30.5841 66.9208C30.1461 66.3872 29.9327 66.2253 29.7377 64.1829C29.5426 62.1405 28.5453 57.316 28.4975 54.6149C28.4497 51.9138 32.3321 48.7821 33.69 49.0728C34.6664 49.3121 35.6113 49.6653 36.5052 50.1253Z" fill="white" stroke="#263238" stroke-width="0.368" stroke-linecap="round" stroke-linejoin="round"/>
<path d="M44.1454 59.6639C44.3589 59.1706 44.6387 58.7088 44.977 58.2912C45.3193 57.9968 46.9385 56.8192 47.1372 57.2608C47.3359 57.7024 47.1372 57.7503 46.8428 57.8975C46.3965 58.2688 45.985 58.6803 45.6137 59.1266C45.9717 59.2357 46.3171 59.3825 46.6441 59.5645C46.7664 59.6747 46.8613 59.8119 46.9214 59.9653C46.9814 60.1186 47.0049 60.2837 46.99 60.4477C46.8906 60.7936 46.7913 61.4303 46.5484 61.5296C46.3055 61.629 46.1546 61.1837 46.1546 61.1837C45.7363 61.6328 45.294 62.0591 44.8298 62.4607C44.6629 62.5553 44.4813 62.6212 44.2926 62.6557C44.2926 62.6557 35.5489 68.0101 34.9122 68.3524C34.2756 68.6946 33.4402 68.9412 33.098 68.5952C32.7558 68.2493 29.8743 56.1421 29.6278 54.9792C29.3812 53.8164 29.6756 51.2992 31.7364 51.3508C33.7972 51.4023 34.5332 53.1908 34.8754 54.5855C35.0962 55.4834 35.9794 63.9364 35.9794 63.9364L43.218 61.4082L44.1454 59.6639Z" fill="white" stroke="#263238" stroke-width="0.368" stroke-linecap="round" stroke-linejoin="round"/>
<path d="M40.1669 35.9867C40.1669 35.9867 40.3619 36.3216 39.1217 38.3751C37.8816 40.4285 37.7049 41.3632 38.2165 42.6328C38.4655 43.2543 38.5545 43.9283 38.4754 44.5931C38.3963 45.2579 38.1517 45.8922 37.7638 46.4379C36.9689 47.6303 36.5641 47.1371 36.7923 49.0139C37.0205 50.8907 35.1952 51.4869 34.1648 51.3875C33.1344 51.2882 31.9568 49.3231 31.0037 49.9155C30.0505 50.508 31.1803 52.3333 30.1757 52.8595C29.171 53.3858 26.3779 52.3591 25.9069 51.1373C25.4358 49.9155 26.4221 49.0581 25.6272 47.8952C24.8323 46.7323 23.6878 46.3975 24.5232 44.4397C25.3585 42.4819 27.6475 42.5666 27.7248 41.2602C27.8021 39.9538 27.9677 35.8984 29.3513 34.2203C30.735 32.5423 33.7158 32.6011 35.4381 33.0391C37.1603 33.477 40.2441 35.2213 40.1669 35.9867Z" fill="#263238" stroke="#263238" stroke-width="0.368" stroke-linecap="round" stroke-linejoin="round"/>
<path d="M38.2939 115.567C37.0795 114.595 36.5606 114.268 36.4539 113.683C36.4389 112.667 36.4757 111.651 36.5643 110.639H32.8843C33.1198 113.811 33.3075 116.656 33.3553 116.895C33.451 117.429 33.2155 118.4 33.7491 118.592C34.2827 118.783 42.3345 118.592 42.3345 118.592C42.3345 118.592 42.9196 117.962 42.5774 117.672C42.2352 117.381 39.5083 116.527 38.2939 115.567Z" fill="white" stroke="#263238" stroke-width="0.368" stroke-linecap="round" stroke-linejoin="round"/>
<path d="M42.3305 118.625C42.3305 118.625 42.9156 117.996 42.5734 117.705C42.2311 117.414 39.5079 116.527 38.2935 115.567C37.8262 115.199 37.4618 114.915 37.1895 114.68C37.1601 114.753 37.127 114.834 37.0938 114.937C36.8841 115.567 36.7258 116.141 36.7258 116.141L33.2593 115.894C33.3034 116.468 33.3366 116.844 33.3513 116.928C33.447 117.462 33.2114 118.433 33.745 118.625C34.2786 118.816 42.3305 118.625 42.3305 118.625Z" fill="white" stroke="#263238" stroke-width="0.368" stroke-linecap="round" stroke-linejoin="round"/>
<path d="M61.3379 18.8417H49.0835V2.96246H58.5448L61.3379 5.40966V18.8417Z" stroke="#263238" stroke-width="0.368" stroke-linejoin="round"/>
<path d="M58.5449 2.96246V5.55318H61.338L58.5449 2.96246Z" stroke="#263238" stroke-width="0.368" stroke-linejoin="round"/>
<path d="M51.1299 7.59924H58.8984" stroke="#263238" stroke-width="0.368" stroke-linejoin="round"/>
<path d="M51.1299 9.57538H58.8984" stroke="#263238" stroke-width="0.368" stroke-linejoin="round"/>
<path d="M51.1299 11.5552H58.8984" stroke="#263238" stroke-width="0.368" stroke-linejoin="round"/>
<path d="M51.1299 13.5314H58.8984" stroke="#263238" stroke-width="0.368" stroke-linejoin="round"/>
<path d="M51.1299 15.5075H58.8984" stroke="#263238" stroke-width="0.368" stroke-linejoin="round"/>
<path d="M74.6338 24.8069H62.3794V8.92767H71.8407L74.6338 11.3786V24.8069Z" stroke="#263238" stroke-width="0.368" stroke-linejoin="round"/>
<path d="M71.8403 8.92767V11.5184H74.6335L71.8403 8.92767Z" stroke="#263238" stroke-width="0.368" stroke-linejoin="round"/>
<path d="M64.4253 13.5645H72.1938" stroke="#263238" stroke-width="0.368" stroke-linejoin="round"/>
<path d="M64.4253 15.5444H72.1938" stroke="#263238" stroke-width="0.368" stroke-linejoin="round"/>
<path d="M64.4253 17.5204H72.1938" stroke="#263238" stroke-width="0.368" stroke-linejoin="round"/>
<path d="M64.4253 19.4966H72.1938" stroke="#263238" stroke-width="0.368" stroke-linejoin="round"/>
<path d="M64.4253 21.4728H72.1938" stroke="#263238" stroke-width="0.368" stroke-linejoin="round"/>
<path d="M61.3379 36.7411H49.0835V20.8619H58.5448L61.3379 23.3091V36.7411Z" stroke="#263238" stroke-width="0.368" stroke-linejoin="round"/>
<path d="M58.5449 20.8619V23.4489H61.338L58.5449 20.8619Z" stroke="#263238" stroke-width="0.368" stroke-linejoin="round"/>
<path d="M51.1299 25.4988H58.8984" stroke="#263238" stroke-width="0.368" stroke-linejoin="round"/>
<path d="M51.1299 27.4749H58.8984" stroke="#263238" stroke-width="0.368" stroke-linejoin="round"/>
<path d="M51.1299 29.451H58.8984" stroke="#263238" stroke-width="0.368" stroke-linejoin="round"/>
<path d="M51.1299 31.4272H58.8984" stroke="#263238" stroke-width="0.368" stroke-linejoin="round"/>
<path d="M51.1299 33.407H58.8984" stroke="#263238" stroke-width="0.368" stroke-linejoin="round"/>
<path d="M74.2512 0H48.8849C47.0354 0 45.5361 1.49931 45.5361 3.3488V37.2416C45.5361 39.0911 47.0354 40.5904 48.8849 40.5904H74.2512C76.1007 40.5904 77.6 39.0911 77.6 37.2416V3.3488C77.6 1.49931 76.1007 0 74.2512 0Z" stroke="#263238" stroke-width="0.368" stroke-linejoin="round"/>
<path d="M50.9565 40.7928V52.2854" stroke="#263238" stroke-width="0.368" stroke-linejoin="round"/>
<path d="M50.9564 53.3379C51.2471 53.3379 51.4827 53.1023 51.4827 52.8117C51.4827 52.5211 51.2471 52.2855 50.9564 52.2855C50.6658 52.2855 50.4302 52.5211 50.4302 52.8117C50.4302 53.1023 50.6658 53.3379 50.9564 53.3379Z" fill="#263238" stroke="#263238" stroke-width="0.368" stroke-linecap="round" stroke-linejoin="round"/>
<path d="M58.5892 143.778C67.0867 143.778 73.9753 136.889 73.9753 128.392C73.9753 119.894 67.0867 113.005 58.5892 113.005C50.0917 113.005 43.2031 119.894 43.2031 128.392C43.2031 136.889 50.0917 143.778 58.5892 143.778Z" fill="#263238" stroke="#263238" stroke-width="0.368" stroke-linecap="round" stroke-linejoin="round"/>
<path d="M66.085 119.291H51.9722V137.687H66.085V119.291Z" fill="white" stroke="#263238" stroke-width="0.368" stroke-linecap="round" stroke-linejoin="round"/>
<path d="M65.3784 120.218H52.686V136.764H65.3784V120.218Z" fill="#407BFF" stroke="#263238" stroke-width="0.368" stroke-linecap="round" stroke-linejoin="round"/>
<path d="M60.8778 118.367H60.3515V117.716H57.7093V118.367H57.172C56.9514 118.367 56.7399 118.455 56.5839 118.611C56.428 118.767 56.3403 118.978 56.3403 119.199V120.807H61.6984V119.199C61.6984 118.98 61.6123 118.77 61.4587 118.615C61.3051 118.459 61.0964 118.37 60.8778 118.367Z" fill="#407BFF" stroke="#263238" stroke-width="0.368" stroke-linecap="round" stroke-linejoin="round"/>
<path d="M55.9211 124.086H53.6763V126.331H55.9211V124.086Z" fill="white" stroke="#263238" stroke-width="0.368" stroke-linecap="round" stroke-linejoin="round"/>
<path d="M55.9211 128.075H53.6763V130.32H55.9211V128.075Z" fill="white" stroke="#263238" stroke-width="0.368" stroke-linecap="round" stroke-linejoin="round"/>
<path d="M55.9211 132.064H53.6763V134.309H55.9211V132.064Z" fill="white" stroke="#263238" stroke-width="0.368" stroke-linecap="round" stroke-linejoin="round"/>
<path d="M56.999 125.083H63.899" stroke="#263238" stroke-width="0.368" stroke-linecap="round" stroke-linejoin="round"/>
<path d="M56.999 129.404H63.899" stroke="#263238" stroke-width="0.368" stroke-linecap="round" stroke-linejoin="round"/>
<path d="M56.999 133.477H63.899" stroke="#263238" stroke-width="0.368" stroke-linecap="round" stroke-linejoin="round"/>
<path d="M54.3237 124.752L54.8205 125.547L56.6053 123.53" stroke="#263238" stroke-width="0.368" stroke-linecap="round" stroke-linejoin="round"/>
<path d="M54.3237 128.789L54.8205 129.584L56.6053 127.567" stroke="#263238" stroke-width="0.368" stroke-linecap="round" stroke-linejoin="round"/>
<path d="M54.3237 132.826L54.8205 133.621L56.6053 131.601" stroke="#263238" stroke-width="0.368" stroke-linecap="round" stroke-linejoin="round"/>
<path d="M15.8861 143.778C24.3836 143.778 31.2722 136.889 31.2722 128.392C31.2722 119.894 24.3836 113.005 15.8861 113.005C7.38858 113.005 0.5 119.894 0.5 128.392C0.5 136.889 7.38858 143.778 15.8861 143.778Z" fill="#263238" stroke="#263238" stroke-width="0.368" stroke-linecap="round" stroke-linejoin="round"/>
<path d="M18.532 133.698C18.7588 133.421 18.8765 133.07 18.8632 132.712L18.9368 132.255C19.1576 130.979 19.739 129.01 20.5413 127.99C21.1977 127.147 21.6023 126.135 21.7083 125.072C21.8143 124.008 21.6175 122.937 21.1406 121.98C20.6636 121.024 19.9259 120.222 19.0127 119.667C18.0995 119.112 17.0479 118.826 15.9793 118.843C14.9108 118.86 13.8688 119.179 12.9736 119.762C12.0784 120.346 11.3665 121.171 10.92 122.142C10.4736 123.113 10.3108 124.19 10.4505 125.25C10.5901 126.31 11.0265 127.308 11.7093 128.13C12.5814 129.175 13.0893 131.269 13.2696 132.616V132.712C13.2549 133.079 13.3783 133.439 13.6155 133.72" fill="#407BFF"/>
<path d="M18.532 133.698C18.7588 133.421 18.8765 133.07 18.8632 132.712L18.9368 132.255C19.1576 130.979 19.739 129.01 20.5413 127.99C21.1977 127.147 21.6023 126.135 21.7083 125.072C21.8143 124.008 21.6175 122.937 21.1406 121.98C20.6636 121.024 19.9259 120.222 19.0127 119.667C18.0995 119.112 17.0479 118.826 15.9793 118.843C14.9108 118.86 13.8688 119.179 12.9736 119.762C12.0784 120.346 11.3665 121.171 10.92 122.142C10.4736 123.113 10.3108 124.19 10.4505 125.25C10.5901 126.31 11.0265 127.308 11.7093 128.13C12.5814 129.175 13.0893 131.269 13.2696 132.616V132.712C13.2549 133.079 13.3783 133.439 13.6155 133.72" stroke="#263238" stroke-width="0.368" stroke-linecap="round" stroke-linejoin="round"/>
<path d="M18.5544 133.702H13.8072C13.5227 133.702 13.292 133.932 13.292 134.217V134.629C13.292 134.914 13.5227 135.144 13.8072 135.144H18.5544C18.8389 135.144 19.0696 134.914 19.0696 134.629V134.217C19.0696 133.932 18.8389 133.702 18.5544 133.702Z" fill="white" stroke="#263238" stroke-width="0.368" stroke-linecap="round" stroke-linejoin="round"/>
<path d="M18.5544 135.553H13.8072C13.5227 135.553 13.292 135.783 13.292 136.068V136.48C13.292 136.765 13.5227 136.995 13.8072 136.995H18.5544C18.8389 136.995 19.0696 136.765 19.0696 136.48V136.068C19.0696 135.783 18.8389 135.553 18.5544 135.553Z" fill="white" stroke="#263238" stroke-width="0.368" stroke-linecap="round" stroke-linejoin="round"/>
<path d="M13.8145 137.437C14.0941 138.291 15.0473 138.909 16.1807 138.909C17.3141 138.909 18.2636 138.283 18.5469 137.437H13.8145Z" fill="white" stroke="#263238" stroke-width="0.368" stroke-linecap="round" stroke-linejoin="round"/>
<path d="M7.146 124.763H9.46072" stroke="white" stroke-width="0.368" stroke-linecap="round" stroke-linejoin="round"/>
<path d="M9.85107 118.606L11.485 120.24" stroke="white" stroke-width="0.368" stroke-linecap="round" stroke-linejoin="round"/>
<path d="M22.3149 124.763H24.626" stroke="white" stroke-width="0.368" stroke-linecap="round" stroke-linejoin="round"/>
<path d="M20.4604 120.472L22.0944 118.838" stroke="white" stroke-width="0.368" stroke-linecap="round" stroke-linejoin="round"/>
<path d="M16.0264 116.071V118.198" stroke="white" stroke-width="0.368" stroke-linecap="round" stroke-linejoin="round"/>
</g>
<defs>
<clipPath id="clip0_453_9198">
<rect width="267" height="155" fill="white" transform="translate(0.5)"/>
</clipPath>
</defs>
</svg>
