<svg width="79" height="24" viewBox="0 0 79 24" fill="none" xmlns="http://www.w3.org/2000/svg">
<path d="M32.072 7.768V9.96H29.096V19H26.36V9.96H23.384V7.768H32.072ZM32.9011 14.52C32.9011 13.6027 33.0718 12.7973 33.4131 12.104C33.7651 11.4107 34.2398 10.8773 34.8371 10.504C35.4345 10.1307 36.1011 9.944 36.8371 9.944C37.4665 9.944 38.0158 10.072 38.4851 10.328C38.9651 10.584 39.3331 10.92 39.5891 11.336V10.072H42.3251V19H39.5891V17.736C39.3225 18.152 38.9491 18.488 38.4691 18.744C37.9998 19 37.4505 19.128 36.8211 19.128C36.0958 19.128 35.4345 18.9413 34.8371 18.568C34.2398 18.184 33.7651 17.6453 33.4131 16.952C33.0718 16.248 32.9011 15.4373 32.9011 14.52ZM39.5891 14.536C39.5891 13.8533 39.3971 13.3147 39.0131 12.92C38.6398 12.5253 38.1811 12.328 37.6371 12.328C37.0931 12.328 36.6291 12.5253 36.2451 12.92C35.8718 13.304 35.6851 13.8373 35.6851 14.52C35.6851 15.2027 35.8718 15.7467 36.2451 16.152C36.6291 16.5467 37.0931 16.744 37.6371 16.744C38.1811 16.744 38.6398 16.5467 39.0131 16.152C39.3971 15.7573 39.5891 15.2187 39.5891 14.536ZM47.9365 19.128C47.1578 19.128 46.4645 18.9947 45.8565 18.728C45.2485 18.4613 44.7685 18.0987 44.4165 17.64C44.0645 17.1707 43.8672 16.648 43.8245 16.072H46.5285C46.5605 16.3813 46.7045 16.632 46.9605 16.824C47.2165 17.016 47.5312 17.112 47.9045 17.112C48.2458 17.112 48.5072 17.048 48.6885 16.92C48.8805 16.7813 48.9765 16.6053 48.9765 16.392C48.9765 16.136 48.8432 15.9493 48.5765 15.832C48.3098 15.704 47.8778 15.5653 47.2805 15.416C46.6405 15.2667 46.1072 15.112 45.6805 14.952C45.2538 14.7813 44.8858 14.52 44.5765 14.168C44.2672 13.8053 44.1125 13.32 44.1125 12.712C44.1125 12.2 44.2512 11.736 44.5285 11.32C44.8165 10.8933 45.2325 10.5573 45.7765 10.312C46.3312 10.0667 46.9872 9.944 47.7445 9.944C48.8645 9.944 49.7445 10.2213 50.3845 10.776C51.0352 11.3307 51.4085 12.0667 51.5045 12.984H48.9765C48.9338 12.6747 48.7952 12.4293 48.5605 12.248C48.3365 12.0667 48.0378 11.976 47.6645 11.976C47.3445 11.976 47.0992 12.04 46.9285 12.168C46.7578 12.2853 46.6725 12.4507 46.6725 12.664C46.6725 12.92 46.8058 13.112 47.0725 13.24C47.3498 13.368 47.7765 13.496 48.3525 13.624C49.0138 13.7947 49.5525 13.9653 49.9685 14.136C50.3845 14.296 50.7472 14.5627 51.0565 14.936C51.3765 15.2987 51.5418 15.7893 51.5525 16.408C51.5525 16.9307 51.4032 17.4 51.1045 17.816C50.8165 18.2213 50.3952 18.5413 49.8405 18.776C49.2965 19.0107 48.6618 19.128 47.9365 19.128ZM58.6824 19L55.9624 15.256V19H53.2264V7.16H55.9624V13.704L58.6664 10.072H62.0424L58.3304 14.552L62.0744 19H58.6824ZM67.597 12.344H66.125V19H63.389V12.344H62.397V10.072H63.389V9.816C63.389 8.71733 63.7037 7.88533 64.333 7.32C64.9623 6.744 65.885 6.456 67.101 6.456C67.3037 6.456 67.453 6.46133 67.549 6.472V8.792C67.0263 8.76 66.6583 8.83467 66.445 9.016C66.2317 9.19733 66.125 9.52267 66.125 9.992V10.072H67.597V12.344ZM78.0026 10.072L72.4026 23.24H69.4586L71.5066 18.696L67.8746 10.072H70.9306L72.9946 15.656L75.0426 10.072H78.0026Z" fill="#FAFAFA"/>
<path d="M18.2202 2.06933C18.1977 2.08069 18.1776 2.09648 18.1613 2.11575L7.5686 14.6402L4.94528 11.6105C4.89166 11.5485 4.81928 11.5058 4.73915 11.4889L0.960851 10.6886C0.893694 10.6743 0.844212 10.7502 0.884308 10.8059L7.94586 20.6189C8.02316 20.7264 8.18435 20.7223 8.2561 20.6111L21.0361 0.806259C21.0776 0.741919 21.0076 0.663975 20.9392 0.698449L18.2202 2.06933Z" fill="#10B981"/>
</svg>
