<svg width="16" height="21" viewBox="0 0 16 21" fill="none" xmlns="http://www.w3.org/2000/svg">
<path d="M3.10344 6.62188C3.00844 7.6352 2.94177 9.4285 3.5401 10.1918C3.5401 10.1918 3.25844 8.22186 5.7834 5.75023C6.80005 4.75524 7.03504 3.40193 6.68005 2.38695C6.47839 1.81196 6.11006 1.33696 5.79006 1.0053C5.6034 0.810304 5.74673 0.488642 6.01839 0.500309C7.6617 0.573641 10.325 1.0303 11.4566 3.87026C11.9533 5.1169 11.99 6.40522 11.7533 7.7152C11.6033 8.55185 11.07 10.4118 12.2866 10.6402C13.1549 10.8035 13.5749 10.1135 13.7633 9.61683C13.8416 9.41017 14.1133 9.35851 14.2599 9.5235C15.7266 11.1918 15.8516 13.1568 15.5482 14.8484C14.9616 18.1184 11.65 20.4983 8.36002 20.4983C4.25009 20.4983 0.978471 18.1467 0.130151 13.8901C-0.211511 12.1718 -0.0381798 8.77185 2.61178 6.37188C2.80844 6.19189 3.1301 6.35189 3.10344 6.62188Z" fill="url(#paint0_radial_174_1140)"/>
<path d="M9.86154 12.7368C8.34656 10.7868 9.02488 8.56187 9.39654 7.67522C9.44654 7.55855 9.31321 7.44856 9.20821 7.52022C8.55656 7.96355 7.22158 9.00687 6.59992 10.4752C5.75827 12.4601 5.81827 13.4318 6.31659 14.6184C6.61659 15.3334 6.26826 15.4851 6.09326 15.5118C5.92326 15.5384 5.7666 15.4251 5.6416 15.3068C5.28327 14.9651 5.02494 14.5201 4.90161 14.0401C4.87495 13.9368 4.73995 13.9085 4.67828 13.9935C4.21162 14.6384 3.96996 15.6734 3.95829 16.4051C3.92163 18.6667 5.78993 20.5 8.0499 20.5C10.8982 20.5 12.9732 17.3501 11.3365 14.7168C10.8615 13.9501 10.4149 13.4485 9.86154 12.7368Z" fill="url(#paint1_radial_174_1140)"/>
<defs>
<radialGradient id="paint0_radial_174_1140" cx="0" cy="0" r="1" gradientUnits="userSpaceOnUse" gradientTransform="translate(7.54605 20.5502) rotate(-179.751) scale(11.7644 19.3031)">
<stop offset="0.3144" stop-color="#FF9800"/>
<stop offset="0.6616" stop-color="#FF6D00"/>
<stop offset="0.9715" stop-color="#F44336"/>
</radialGradient>
<radialGradient id="paint1_radial_174_1140" cx="0" cy="0" r="1" gradientUnits="userSpaceOnUse" gradientTransform="translate(8.20653 8.84335) rotate(90.5787) scale(12.3092 9.26359)">
<stop offset="0.2141" stop-color="#FFF176"/>
<stop offset="0.3275" stop-color="#FFF27D"/>
<stop offset="0.4868" stop-color="#FFF48F"/>
<stop offset="0.6722" stop-color="#FFF7AD"/>
<stop offset="0.7931" stop-color="#FFF9C4"/>
<stop offset="0.8221" stop-color="#FFF8BD" stop-opacity="0.804"/>
<stop offset="0.8627" stop-color="#FFF6AB" stop-opacity="0.529"/>
<stop offset="0.9101" stop-color="#FFF38D" stop-opacity="0.2088"/>
<stop offset="0.9409" stop-color="#FFF176" stop-opacity="0"/>
</radialGradient>
</defs>
</svg>
