<svg width="19" height="20" viewBox="0 0 19 20" fill="none" xmlns="http://www.w3.org/2000/svg">
<path d="M3.42052 20H0V19.3396L1.83987 16.6529H0.567317C0.389179 16.6529 0.218685 16.6602 0.0568314 16.6755V15.8616H3.36369V16.4535L1.50753 19.1688H2.95856C3.14766 19.1688 3.30154 19.1631 3.42052 19.1518V20Z" fill="#0791E5"/>
<path d="M18.5119 10.0402H10.2129V8.4383L14.6773 1.91997H11.5895C11.1571 1.91997 10.744 1.93758 10.3505 1.97448V0H18.3737V1.43641L13.8707 8.02353H17.3909C17.8496 8.02353 18.2221 8.01024 18.5119 7.98265V10.0402Z" fill="#0791E5"/>
<path d="M8.75928 14.2976H3.70361V13.3215L6.42321 9.35126H4.54213C4.27891 9.35126 4.02732 9.36189 3.78736 9.38449V8.18173H8.67486V9.05647L5.93167 13.0692H8.07597C8.35515 13.0692 8.58214 13.0606 8.75928 13.0443V14.2976Z" fill="#0791E5"/>
</svg>
